%FSLAX46Y46*%
G04 Gerber Fmt 4.6, Leading zero omitted, Abs format (unit mm)*
G04 Created by KiCad (PCBNEW (2014-jul-16 BZR unknown)-product) date 2014-10-28T19:03:25 CET*
%MOMM*%
G01*
G04 APERTURE LIST*
%ADD10C,0.100000*%
%ADD11C,1.524000*%
%ADD12C,2.700020*%
%ADD13C,2.500000*%
%ADD14R,1.727200X1.727200*%
%ADD15O,1.727200X1.727200*%
%ADD16R,2.235200X2.235200*%
%ADD17C,1.397000*%
%ADD18C,2.000000*%
%ADD19C,5.000000*%
%ADD20C,0.889000*%
%ADD21C,1.000000*%
%ADD22C,0.254000*%
%ADD23C,0.500000*%
G04 APERTURE END LIST*
D10*
D11*
X62357000Y-86106000D03*
X62357000Y-83566000D03*
X60358020Y-83566000D03*
X60358020Y-86106000D03*
D12*
X57658000Y-90835480D03*
X57658000Y-78836520D03*
D13*
X54102000Y-64770000D03*
X54102000Y-59690000D03*
D14*
X74168000Y-95758000D03*
D15*
X74168000Y-93218000D03*
X76708000Y-95758000D03*
X76708000Y-93218000D03*
X79248000Y-95758000D03*
X79248000Y-93218000D03*
D16*
X102870000Y-91440000D03*
X102870000Y-88900000D03*
X102870000Y-86360000D03*
X102870000Y-83820000D03*
X102870000Y-101600000D03*
X102870000Y-99060000D03*
X102870000Y-96520000D03*
X102870000Y-93980000D03*
X87630000Y-74930000D03*
X90170000Y-74930000D03*
X92710000Y-74930000D03*
X95250000Y-74930000D03*
X97790000Y-74930000D03*
X100330000Y-74930000D03*
D17*
X88392000Y-107696000D03*
X88392000Y-102616000D03*
X96012000Y-107696000D03*
X96012000Y-102616000D03*
X120396000Y-77470000D03*
X120396000Y-82550000D03*
X112776000Y-77470000D03*
X112776000Y-82550000D03*
D11*
X137922000Y-85598000D03*
X135922000Y-85598000D03*
X133922000Y-85598000D03*
X131922000Y-85598000D03*
X129922000Y-85598000D03*
X127922000Y-85598000D03*
X125922000Y-85598000D03*
X123922000Y-85598000D03*
X121922000Y-85598000D03*
X119922000Y-85598000D03*
X119922000Y-107598000D03*
X121922000Y-107598000D03*
X123922000Y-107598000D03*
X125922000Y-107598000D03*
X127922000Y-107598000D03*
X129922000Y-107598000D03*
X131922000Y-107598000D03*
X133922000Y-107598000D03*
X135922000Y-107598000D03*
X137922000Y-107598000D03*
D18*
X146050000Y-83312000D03*
X146050000Y-79812000D03*
X146050000Y-76312000D03*
X146050000Y-72812000D03*
X146050000Y-69312000D03*
X146050000Y-65812000D03*
X146050000Y-62312000D03*
X146050000Y-58812000D03*
X112268000Y-53848000D03*
X108768000Y-53848000D03*
X105268000Y-53848000D03*
X101768000Y-53848000D03*
X98268000Y-53848000D03*
X94768000Y-53848000D03*
X91268000Y-53848000D03*
X87768000Y-53848000D03*
X83058000Y-53848000D03*
X79558000Y-53848000D03*
X76058000Y-53848000D03*
X72558000Y-53848000D03*
X69058000Y-53848000D03*
X65558000Y-53848000D03*
X62058000Y-53848000D03*
X58558000Y-53848000D03*
X141478000Y-53848000D03*
X137978000Y-53848000D03*
X134478000Y-53848000D03*
X130978000Y-53848000D03*
X127478000Y-53848000D03*
X123978000Y-53848000D03*
X120478000Y-53848000D03*
X116978000Y-53848000D03*
D19*
X147000000Y-53000000D03*
X53000000Y-53000000D03*
X53000000Y-107000000D03*
X147000000Y-107000000D03*
D16*
X72390000Y-69850000D03*
X82550000Y-74930000D03*
X80010000Y-74930000D03*
X110490000Y-93980000D03*
X85090000Y-74930000D03*
D20*
X71628000Y-59436000D03*
X77978000Y-57912000D03*
X64897000Y-69723000D03*
X58928000Y-71247000D03*
X86106000Y-59817000D03*
X86741000Y-71247000D03*
X105410000Y-67310000D03*
X94488000Y-68072000D03*
X113792000Y-60325000D03*
X112522000Y-69596000D03*
X68199000Y-61341000D03*
X66675000Y-81788000D03*
X66548000Y-84074000D03*
X59182000Y-97790000D03*
X59182000Y-95758000D03*
X87630000Y-93980000D03*
X89027000Y-99060000D03*
X84582000Y-96139000D03*
X78232000Y-89662000D03*
X86741000Y-86360000D03*
X129413000Y-70612000D03*
X131699000Y-70866000D03*
X64770000Y-78867000D03*
X92837000Y-84328000D03*
X99822000Y-79121000D03*
X67310000Y-77089000D03*
X136906000Y-65278000D03*
X135509000Y-93218000D03*
X110109000Y-65405000D03*
X97790000Y-103505000D03*
X97663000Y-99695000D03*
X81915000Y-96901000D03*
X81915000Y-92710000D03*
X86995000Y-90424000D03*
X90170000Y-62357000D03*
X89789000Y-66421000D03*
X85344000Y-83058000D03*
X71501000Y-75184000D03*
X55372000Y-70866000D03*
X130048000Y-90424000D03*
X116840000Y-91313000D03*
X108966000Y-87503000D03*
X110363000Y-71374000D03*
X127635000Y-75946000D03*
X106680000Y-65913000D03*
X136525000Y-95758000D03*
X78740000Y-76962000D03*
X86741000Y-76962000D03*
X70358000Y-92583000D03*
X85090000Y-88900000D03*
X80264000Y-59944000D03*
X72136000Y-57912000D03*
X121920000Y-65024000D03*
X120904000Y-63119000D03*
X90043000Y-90805000D03*
X91313000Y-90805000D03*
X83693000Y-81915000D03*
X88011000Y-82550000D03*
X89281000Y-82677000D03*
X89535000Y-83947000D03*
X90932000Y-83820000D03*
X92075000Y-83058000D03*
X76200000Y-83185000D03*
X85598000Y-85471000D03*
X71882000Y-85090000D03*
X85725000Y-84201000D03*
X77597000Y-84074000D03*
X129032000Y-68707000D03*
X111506000Y-64897000D03*
X101981000Y-77597000D03*
X96520000Y-70231000D03*
X114554000Y-73533000D03*
X139827000Y-100711000D03*
X92202000Y-85979000D03*
X125857000Y-71501000D03*
X115824000Y-73787000D03*
X101981000Y-79248000D03*
X129159000Y-67437000D03*
X112776000Y-64770000D03*
X93472000Y-87757000D03*
X95504000Y-71120000D03*
X107696000Y-63627000D03*
X116713000Y-73025000D03*
X106045000Y-72644000D03*
X100457000Y-70866000D03*
X128778000Y-65024000D03*
X91567000Y-72390000D03*
X107823000Y-66675000D03*
X90551000Y-93853000D03*
X108458000Y-104140000D03*
X88773000Y-100838000D03*
X56896000Y-100838000D03*
X63119000Y-101346000D03*
X66040000Y-99314000D03*
X117475000Y-90043000D03*
X133223000Y-89535000D03*
X51308000Y-100965000D03*
X114935000Y-88900000D03*
X92583000Y-93599000D03*
X53086000Y-100965000D03*
X113284000Y-89154000D03*
X54356000Y-101473000D03*
X110236000Y-104648000D03*
X61722000Y-95758000D03*
X66040000Y-90043000D03*
X72390000Y-87630000D03*
X69723000Y-87630000D03*
D21*
X71628000Y-59436000D02*
X76200000Y-59436000D01*
X76200000Y-59436000D02*
X77724000Y-57912000D01*
X77724000Y-57912000D02*
X77978000Y-57912000D01*
X85090000Y-51181000D02*
X109601000Y-51181000D01*
X109601000Y-51181000D02*
X112268000Y-53848000D01*
X83058000Y-53213000D02*
X85090000Y-51181000D01*
X83058000Y-53848000D02*
X83058000Y-53213000D01*
X138938000Y-51308000D02*
X141478000Y-53848000D01*
X114808000Y-51308000D02*
X138938000Y-51308000D01*
X112268000Y-53848000D02*
X114808000Y-51308000D01*
D22*
X60452000Y-69723000D02*
X64897000Y-69723000D01*
X58928000Y-71247000D02*
X60452000Y-69723000D01*
D23*
X86106000Y-70612000D02*
X86106000Y-59817000D01*
X86741000Y-71247000D02*
X86106000Y-70612000D01*
D22*
X68199000Y-61341000D02*
X66929000Y-62611000D01*
X66929000Y-62611000D02*
X56261000Y-62611000D01*
X56261000Y-62611000D02*
X54102000Y-64770000D01*
D23*
X58928000Y-86106000D02*
X57658000Y-84836000D01*
X57658000Y-84836000D02*
X57658000Y-82169000D01*
X60358020Y-86106000D02*
X58928000Y-86106000D01*
X66548000Y-81915000D02*
X66675000Y-81788000D01*
X66548000Y-84074000D02*
X66548000Y-81915000D01*
X58039000Y-81788000D02*
X57658000Y-82169000D01*
X66675000Y-81788000D02*
X58039000Y-81788000D01*
X59182000Y-97790000D02*
X59182000Y-95758000D01*
D22*
X87630000Y-93980000D02*
X89027000Y-95377000D01*
D23*
X84582000Y-96139000D02*
X86741000Y-93980000D01*
X86741000Y-93980000D02*
X87630000Y-93980000D01*
X89027000Y-95377000D02*
X87630000Y-93980000D01*
X89027000Y-99060000D02*
X89027000Y-95377000D01*
X78232000Y-89662000D02*
X79248000Y-90678000D01*
X79248000Y-90678000D02*
X79248000Y-93218000D01*
X84328000Y-89662000D02*
X84709000Y-90043000D01*
X84709000Y-90043000D02*
X85598000Y-90043000D01*
X85598000Y-90043000D02*
X86741000Y-88900000D01*
X86741000Y-88900000D02*
X86741000Y-86360000D01*
X78232000Y-89662000D02*
X84328000Y-89662000D01*
X129413000Y-70612000D02*
X129667000Y-70866000D01*
X129667000Y-70866000D02*
X131699000Y-70866000D01*
X66675000Y-80772000D02*
X64770000Y-78867000D01*
X66675000Y-81788000D02*
X66675000Y-80772000D01*
D21*
X97917000Y-79121000D02*
X99822000Y-79121000D01*
X92837000Y-84201000D02*
X97917000Y-79121000D01*
X92837000Y-84328000D02*
X92837000Y-84201000D01*
X67310000Y-77089000D02*
X67818000Y-77597000D01*
X67818000Y-77597000D02*
X73279000Y-77597000D01*
X73279000Y-77597000D02*
X79629000Y-71247000D01*
X79629000Y-71247000D02*
X86741000Y-71247000D01*
X87630000Y-71247000D02*
X90805000Y-68072000D01*
X90805000Y-68072000D02*
X94488000Y-68072000D01*
X86741000Y-71247000D02*
X87630000Y-71247000D01*
X104648000Y-68072000D02*
X105410000Y-67310000D01*
X94488000Y-68072000D02*
X104648000Y-68072000D01*
X110109000Y-62865000D02*
X112649000Y-60325000D01*
X112649000Y-60325000D02*
X113792000Y-60325000D01*
X110109000Y-65405000D02*
X110109000Y-62865000D01*
X112522000Y-67818000D02*
X110109000Y-65405000D01*
X112522000Y-69596000D02*
X112522000Y-67818000D01*
X114300000Y-60325000D02*
X120269000Y-66294000D01*
X120269000Y-66294000D02*
X124333000Y-66294000D01*
X124333000Y-66294000D02*
X127000000Y-63627000D01*
X127000000Y-63627000D02*
X135509000Y-63627000D01*
X135509000Y-63627000D02*
X136906000Y-65024000D01*
X136906000Y-65024000D02*
X136906000Y-65278000D01*
X113792000Y-60325000D02*
X114300000Y-60325000D01*
D22*
X112776000Y-82550000D02*
X120396000Y-82550000D01*
D21*
X119922000Y-87410000D02*
X120650000Y-88138000D01*
X120650000Y-88138000D02*
X130175000Y-88138000D01*
X130175000Y-88138000D02*
X131826000Y-89789000D01*
X131826000Y-89789000D02*
X131826000Y-91821000D01*
X131826000Y-91821000D02*
X133223000Y-93218000D01*
X133223000Y-93218000D02*
X135509000Y-93218000D01*
X119922000Y-85598000D02*
X119922000Y-87410000D01*
D22*
X97790000Y-103505000D02*
X97663000Y-103378000D01*
X97663000Y-103378000D02*
X97663000Y-99695000D01*
D23*
X81915000Y-92710000D02*
X81915000Y-96901000D01*
D22*
X89789000Y-62738000D02*
X90170000Y-62357000D01*
D23*
X85471000Y-92710000D02*
X81915000Y-92710000D01*
X86995000Y-91186000D02*
X85471000Y-92710000D01*
X86995000Y-90424000D02*
X86995000Y-91186000D01*
D22*
X56896000Y-72390000D02*
X65786000Y-72390000D01*
X55372000Y-70866000D02*
X56896000Y-72390000D01*
X69469000Y-72390000D02*
X71501000Y-74422000D01*
X71501000Y-74422000D02*
X71501000Y-75184000D01*
X65786000Y-72390000D02*
X69469000Y-72390000D01*
D21*
X85725000Y-82677000D02*
X86106000Y-82677000D01*
X86106000Y-82677000D02*
X89154000Y-85725000D01*
X89154000Y-85725000D02*
X89154000Y-88265000D01*
X89154000Y-88265000D02*
X86995000Y-90424000D01*
X85344000Y-83058000D02*
X85725000Y-82677000D01*
X91186000Y-88265000D02*
X92202000Y-89281000D01*
X92202000Y-89281000D02*
X94869000Y-89281000D01*
X94869000Y-89281000D02*
X99441000Y-84709000D01*
X99441000Y-84709000D02*
X99441000Y-83058000D01*
X99441000Y-83058000D02*
X100838000Y-81661000D01*
X100838000Y-81661000D02*
X104902000Y-81661000D01*
X104902000Y-81661000D02*
X110363000Y-76200000D01*
X110363000Y-76200000D02*
X110363000Y-71374000D01*
X89154000Y-88265000D02*
X91186000Y-88265000D01*
X130048000Y-90424000D02*
X129159000Y-91313000D01*
X129159000Y-91313000D02*
X116840000Y-91313000D01*
X108966000Y-87503000D02*
X104902000Y-83439000D01*
X104902000Y-83439000D02*
X104902000Y-81661000D01*
X110363000Y-71374000D02*
X114046000Y-75057000D01*
X114046000Y-75057000D02*
X126746000Y-75057000D01*
X126746000Y-75057000D02*
X127635000Y-75946000D01*
X89789000Y-62738000D02*
X90170000Y-62357000D01*
X89789000Y-66421000D02*
X89789000Y-62738000D01*
X103124000Y-62357000D02*
X106680000Y-65913000D01*
X90170000Y-62357000D02*
X103124000Y-62357000D01*
D23*
X81153000Y-96901000D02*
X80391000Y-97663000D01*
X80391000Y-97663000D02*
X73152000Y-97663000D01*
X73152000Y-97663000D02*
X72136000Y-96647000D01*
X72136000Y-96647000D02*
X72136000Y-93599000D01*
X72136000Y-93599000D02*
X72517000Y-93218000D01*
X72517000Y-93218000D02*
X74168000Y-93218000D01*
X81915000Y-96901000D02*
X81153000Y-96901000D01*
D21*
X136525000Y-95758000D02*
X137922000Y-94361000D01*
X137922000Y-94361000D02*
X137922000Y-85598000D01*
D22*
X86741000Y-76962000D02*
X78740000Y-76962000D01*
X70358000Y-92583000D02*
X66802000Y-89027000D01*
X66802000Y-89027000D02*
X59817000Y-89027000D01*
X59817000Y-89027000D02*
X50927000Y-80137000D01*
X50927000Y-80137000D02*
X50927000Y-62865000D01*
X50927000Y-62865000D02*
X54102000Y-59690000D01*
X81788000Y-88900000D02*
X81280000Y-88392000D01*
X81280000Y-88392000D02*
X77724000Y-88392000D01*
X77724000Y-88392000D02*
X75438000Y-90678000D01*
X75438000Y-90678000D02*
X75438000Y-94488000D01*
X75438000Y-94488000D02*
X76708000Y-95758000D01*
X85090000Y-88900000D02*
X81788000Y-88900000D01*
X80264000Y-59944000D02*
X79558000Y-59238000D01*
X79558000Y-59238000D02*
X79558000Y-53848000D01*
X60844000Y-56134000D02*
X58558000Y-53848000D01*
X70358000Y-56134000D02*
X60844000Y-56134000D01*
X72136000Y-57912000D02*
X70358000Y-56134000D01*
X123978000Y-54711000D02*
X123978000Y-53848000D01*
X121920000Y-56769000D02*
X121920000Y-65024000D01*
X123978000Y-54711000D02*
X121920000Y-56769000D01*
X120904000Y-63119000D02*
X120478000Y-62693000D01*
X120478000Y-62693000D02*
X120478000Y-53848000D01*
X90043000Y-90805000D02*
X91313000Y-92075000D01*
X91313000Y-92075000D02*
X93853000Y-92075000D01*
X93853000Y-92075000D02*
X100584000Y-98806000D01*
X100584000Y-98806000D02*
X100584000Y-100838000D01*
X100584000Y-100838000D02*
X101346000Y-101600000D01*
X101346000Y-101600000D02*
X102870000Y-101600000D01*
X101854000Y-99060000D02*
X102870000Y-99060000D01*
X91313000Y-90805000D02*
X91821000Y-91313000D01*
X91821000Y-91313000D02*
X94107000Y-91313000D01*
X94107000Y-91313000D02*
X101854000Y-99060000D01*
X83693000Y-81915000D02*
X87630000Y-77978000D01*
X87630000Y-77978000D02*
X87630000Y-74930000D01*
X88011000Y-82550000D02*
X88138000Y-82423000D01*
X88138000Y-82423000D02*
X88138000Y-78867000D01*
X88138000Y-78867000D02*
X90170000Y-76835000D01*
X90170000Y-76835000D02*
X90170000Y-74930000D01*
X89281000Y-82677000D02*
X89281000Y-78994000D01*
X89281000Y-78994000D02*
X91059000Y-77216000D01*
X91059000Y-77216000D02*
X91948000Y-77216000D01*
X91948000Y-77216000D02*
X92710000Y-76454000D01*
X92710000Y-76454000D02*
X92710000Y-74930000D01*
X89535000Y-83947000D02*
X90297000Y-83185000D01*
X90297000Y-83185000D02*
X90297000Y-79756000D01*
X90297000Y-79756000D02*
X92456000Y-77597000D01*
X92456000Y-77597000D02*
X94234000Y-77597000D01*
X94234000Y-77597000D02*
X95250000Y-76581000D01*
X95250000Y-76581000D02*
X95250000Y-74930000D01*
X97790000Y-75946000D02*
X97790000Y-74930000D01*
X90932000Y-83820000D02*
X90932000Y-80264000D01*
X90932000Y-80264000D02*
X92837000Y-78359000D01*
X92837000Y-78359000D02*
X95377000Y-78359000D01*
X95377000Y-78359000D02*
X97790000Y-75946000D01*
X92075000Y-83058000D02*
X91948000Y-82931000D01*
X91948000Y-82931000D02*
X91948000Y-80645000D01*
X91948000Y-80645000D02*
X93345000Y-79248000D01*
X93345000Y-79248000D02*
X95758000Y-79248000D01*
X95758000Y-79248000D02*
X98044000Y-76962000D01*
X98044000Y-76962000D02*
X99949000Y-76962000D01*
X99949000Y-76962000D02*
X100330000Y-76581000D01*
X100330000Y-76581000D02*
X100330000Y-74930000D01*
X76200000Y-83185000D02*
X76327000Y-83312000D01*
X76327000Y-83312000D02*
X76327000Y-84201000D01*
X76327000Y-84201000D02*
X77089000Y-84963000D01*
X77089000Y-84963000D02*
X85090000Y-84963000D01*
X85090000Y-84963000D02*
X85598000Y-85471000D01*
X71882000Y-85090000D02*
X72771000Y-84201000D01*
X72771000Y-84201000D02*
X76327000Y-84201000D01*
X77597000Y-84074000D02*
X77724000Y-84201000D01*
X77724000Y-84201000D02*
X85725000Y-84201000D01*
X128524000Y-68199000D02*
X129032000Y-68707000D01*
X114808000Y-68199000D02*
X128524000Y-68199000D01*
X111506000Y-64897000D02*
X114808000Y-68199000D01*
X101981000Y-77597000D02*
X102489000Y-77089000D01*
X102489000Y-77089000D02*
X102489000Y-73660000D01*
X102489000Y-73660000D02*
X101981000Y-73152000D01*
X101981000Y-73152000D02*
X95377000Y-73152000D01*
X95377000Y-73152000D02*
X94615000Y-72390000D01*
X94615000Y-72390000D02*
X94615000Y-70612000D01*
X94615000Y-70612000D02*
X95123000Y-70104000D01*
X95123000Y-70104000D02*
X96393000Y-70104000D01*
X96393000Y-70104000D02*
X96520000Y-70231000D01*
X114554000Y-73533000D02*
X114808000Y-73279000D01*
X114808000Y-73279000D02*
X114808000Y-68199000D01*
X139827000Y-100711000D02*
X137922000Y-102616000D01*
X137922000Y-102616000D02*
X137922000Y-107598000D01*
X112776000Y-77470000D02*
X120396000Y-77470000D01*
X125349000Y-71501000D02*
X125857000Y-71501000D01*
X122809000Y-74041000D02*
X125349000Y-71501000D01*
X116078000Y-74041000D02*
X122809000Y-74041000D01*
X115824000Y-73787000D02*
X116078000Y-74041000D01*
X92710000Y-85979000D02*
X98425000Y-80264000D01*
X98425000Y-80264000D02*
X100965000Y-80264000D01*
X100965000Y-80264000D02*
X101981000Y-79248000D01*
X92202000Y-85979000D02*
X92710000Y-85979000D01*
X103124000Y-75438000D02*
X103124000Y-73533000D01*
X103124000Y-73533000D02*
X101981000Y-72390000D01*
X101981000Y-72390000D02*
X96774000Y-72390000D01*
X96774000Y-72390000D02*
X95504000Y-71120000D01*
X103505000Y-75438000D02*
X104648000Y-74295000D01*
X104648000Y-74295000D02*
X106807000Y-74295000D01*
X106807000Y-74295000D02*
X109220000Y-71882000D01*
X109220000Y-71882000D02*
X109220000Y-64392998D01*
X109220000Y-64392998D02*
X108454002Y-63627000D01*
X108454002Y-63627000D02*
X107696000Y-63627000D01*
X103124000Y-75438000D02*
X103505000Y-75438000D01*
X116459000Y-67437000D02*
X113792000Y-64770000D01*
X113792000Y-64770000D02*
X112776000Y-64770000D01*
X129159000Y-67437000D02*
X116459000Y-67437000D01*
X93472000Y-86106000D02*
X98806000Y-80772000D01*
X93472000Y-87757000D02*
X93472000Y-86106000D01*
X101600000Y-80772000D02*
X103124000Y-79248000D01*
X103124000Y-79248000D02*
X103124000Y-75438000D01*
X98806000Y-80772000D02*
X101600000Y-80772000D01*
X116967000Y-72771000D02*
X116713000Y-73025000D01*
X106045000Y-72644000D02*
X104902000Y-71501000D01*
X104902000Y-71501000D02*
X101092000Y-71501000D01*
X101092000Y-71501000D02*
X100457000Y-70866000D01*
X122301000Y-72771000D02*
X117094000Y-72771000D01*
X125476000Y-69596000D02*
X122301000Y-72771000D01*
X129540000Y-69596000D02*
X125476000Y-69596000D01*
X130048000Y-69088000D02*
X129540000Y-69596000D01*
X130048000Y-66294000D02*
X130048000Y-69088000D01*
X128778000Y-65024000D02*
X130048000Y-66294000D01*
X117094000Y-72771000D02*
X116967000Y-72771000D01*
X107442000Y-66675000D02*
X107823000Y-66675000D01*
X104775000Y-69342000D02*
X107442000Y-66675000D01*
X94615000Y-69342000D02*
X104775000Y-69342000D01*
X91567000Y-72390000D02*
X94615000Y-69342000D01*
X109601000Y-98679000D02*
X109601000Y-102616000D01*
X112395000Y-95885000D02*
X109601000Y-98679000D01*
X112395000Y-92964000D02*
X112395000Y-95885000D01*
X109601000Y-102616000D02*
X109601000Y-102743000D01*
X90551000Y-93853000D02*
X90551000Y-99314000D01*
X90551000Y-99314000D02*
X89408000Y-100457000D01*
X109601000Y-102997000D02*
X108458000Y-104140000D01*
X109601000Y-102743000D02*
X109601000Y-102997000D01*
X89154000Y-100457000D02*
X88773000Y-100838000D01*
X89408000Y-100457000D02*
X89154000Y-100457000D01*
X56896000Y-100838000D02*
X57023000Y-100711000D01*
X57023000Y-100711000D02*
X62738000Y-100711000D01*
X62738000Y-100711000D02*
X63119000Y-101092000D01*
X63119000Y-101092000D02*
X63119000Y-101346000D01*
X66040000Y-99314000D02*
X70739000Y-104013000D01*
X70739000Y-104013000D02*
X84582000Y-104013000D01*
X84582000Y-104013000D02*
X87757000Y-100838000D01*
X87757000Y-100838000D02*
X88773000Y-100838000D01*
X135922000Y-85598000D02*
X135890000Y-85598000D01*
X112395000Y-92583000D02*
X114935000Y-90043000D01*
X114935000Y-90043000D02*
X117475000Y-90043000D01*
X133223000Y-89535000D02*
X135922000Y-86836000D01*
X135922000Y-86836000D02*
X135922000Y-85598000D01*
X112395000Y-92964000D02*
X112395000Y-92583000D01*
X65151000Y-99822000D02*
X66548000Y-101219000D01*
X66548000Y-101219000D02*
X69977000Y-104648000D01*
X69977000Y-104648000D02*
X89027000Y-104648000D01*
X107696000Y-91567000D02*
X110998000Y-88265000D01*
X107696000Y-101473000D02*
X107696000Y-91567000D01*
X89027000Y-104648000D02*
X104521000Y-104648000D01*
X104521000Y-104648000D02*
X107696000Y-101473000D01*
X51308000Y-99822000D02*
X52451000Y-98679000D01*
X52451000Y-98679000D02*
X64008000Y-98679000D01*
X64008000Y-98679000D02*
X65151000Y-99822000D01*
X51308000Y-100965000D02*
X51308000Y-99822000D01*
X92583000Y-93599000D02*
X91186000Y-94996000D01*
X91186000Y-94996000D02*
X91186000Y-99568000D01*
X91186000Y-99568000D02*
X89662000Y-101092000D01*
X89662000Y-104013000D02*
X89027000Y-104648000D01*
X89662000Y-101092000D02*
X89662000Y-104013000D01*
X114300000Y-88265000D02*
X114935000Y-88900000D01*
X110998000Y-88265000D02*
X114300000Y-88265000D01*
X64579500Y-100520500D02*
X69342000Y-105283000D01*
X69342000Y-105283000D02*
X105283000Y-105283000D01*
X108331000Y-102235000D02*
X108331000Y-99060000D01*
X108331000Y-99060000D02*
X108331000Y-93599000D01*
X108331000Y-93599000D02*
X108331000Y-91948000D01*
X108331000Y-91948000D02*
X110998000Y-89281000D01*
X110998000Y-89281000D02*
X113157000Y-89281000D01*
X113157000Y-89281000D02*
X113284000Y-89154000D01*
X105283000Y-105283000D02*
X108331000Y-102235000D01*
X53086000Y-100203000D02*
X53975000Y-99314000D01*
X53975000Y-99314000D02*
X63373000Y-99314000D01*
X63373000Y-99314000D02*
X64579500Y-100520500D01*
X53086000Y-100965000D02*
X53086000Y-100203000D01*
X69215000Y-106045000D02*
X108839000Y-106045000D01*
X64389000Y-101219000D02*
X69215000Y-106045000D01*
X108839000Y-106045000D02*
X110236000Y-104648000D01*
X110236000Y-104648000D02*
X110236000Y-104648000D01*
X54356000Y-100584000D02*
X54991000Y-99949000D01*
X54991000Y-99949000D02*
X63119000Y-99949000D01*
X63119000Y-99949000D02*
X64389000Y-101219000D01*
X54356000Y-101473000D02*
X54356000Y-100584000D01*
D23*
X61722000Y-94361000D02*
X61722000Y-95758000D01*
X66040000Y-90043000D02*
X61722000Y-94361000D01*
X72390000Y-87630000D02*
X69596000Y-87630000D01*
X69596000Y-87630000D02*
X69723000Y-87630000D01*
D22*
G36*
X101369019Y-76682600D02*
X101066378Y-76984714D01*
X100901687Y-77381332D01*
X100901313Y-77810784D01*
X101065311Y-78207689D01*
X101279855Y-78422608D01*
X101066378Y-78635714D01*
X100901687Y-79032332D01*
X100901497Y-79249872D01*
X100649370Y-79502000D01*
X98425000Y-79502000D01*
X98133396Y-79560003D01*
X97886185Y-79725184D01*
X92625417Y-84985952D01*
X92417668Y-84899687D01*
X91988216Y-84899313D01*
X91591311Y-85063311D01*
X91287378Y-85366714D01*
X91122687Y-85763332D01*
X91122313Y-86192784D01*
X91286311Y-86589689D01*
X91589714Y-86893622D01*
X91986332Y-87058313D01*
X92415784Y-87058687D01*
X92710000Y-86937119D01*
X92710000Y-86992358D01*
X92557378Y-87144714D01*
X92392687Y-87541332D01*
X92392404Y-87866272D01*
X91988566Y-87462434D01*
X91620346Y-87216397D01*
X91186000Y-87130000D01*
X90289000Y-87130000D01*
X90289000Y-85725000D01*
X90202603Y-85290655D01*
X90202603Y-85290654D01*
X89966200Y-84936852D01*
X90145689Y-84862689D01*
X90296886Y-84711754D01*
X90319714Y-84734622D01*
X90716332Y-84899313D01*
X91145784Y-84899687D01*
X91542689Y-84735689D01*
X91846622Y-84432286D01*
X91969066Y-84137408D01*
X92288784Y-84137687D01*
X92685689Y-83973689D01*
X92989622Y-83670286D01*
X93154313Y-83273668D01*
X93154687Y-82844216D01*
X92990689Y-82447311D01*
X92710000Y-82166131D01*
X92710000Y-80960630D01*
X93660630Y-80010000D01*
X95758000Y-80010000D01*
X95758000Y-80009999D01*
X96049604Y-79951996D01*
X96049605Y-79951996D01*
X96296815Y-79786815D01*
X98359630Y-77724000D01*
X99949000Y-77724000D01*
X99949000Y-77723999D01*
X100240604Y-77665996D01*
X100240605Y-77665996D01*
X100487815Y-77500815D01*
X100868815Y-77119816D01*
X100868815Y-77119815D01*
X101033996Y-76872605D01*
X101071790Y-76682600D01*
X101369019Y-76682600D01*
X101369019Y-76682600D01*
G37*
X101369019Y-76682600D02*
X101066378Y-76984714D01*
X100901687Y-77381332D01*
X100901313Y-77810784D01*
X101065311Y-78207689D01*
X101279855Y-78422608D01*
X101066378Y-78635714D01*
X100901687Y-79032332D01*
X100901497Y-79249872D01*
X100649370Y-79502000D01*
X98425000Y-79502000D01*
X98133396Y-79560003D01*
X97886185Y-79725184D01*
X92625417Y-84985952D01*
X92417668Y-84899687D01*
X91988216Y-84899313D01*
X91591311Y-85063311D01*
X91287378Y-85366714D01*
X91122687Y-85763332D01*
X91122313Y-86192784D01*
X91286311Y-86589689D01*
X91589714Y-86893622D01*
X91986332Y-87058313D01*
X92415784Y-87058687D01*
X92710000Y-86937119D01*
X92710000Y-86992358D01*
X92557378Y-87144714D01*
X92392687Y-87541332D01*
X92392404Y-87866272D01*
X91988566Y-87462434D01*
X91620346Y-87216397D01*
X91186000Y-87130000D01*
X90289000Y-87130000D01*
X90289000Y-85725000D01*
X90202603Y-85290655D01*
X90202603Y-85290654D01*
X89966200Y-84936852D01*
X90145689Y-84862689D01*
X90296886Y-84711754D01*
X90319714Y-84734622D01*
X90716332Y-84899313D01*
X91145784Y-84899687D01*
X91542689Y-84735689D01*
X91846622Y-84432286D01*
X91969066Y-84137408D01*
X92288784Y-84137687D01*
X92685689Y-83973689D01*
X92989622Y-83670286D01*
X93154313Y-83273668D01*
X93154687Y-82844216D01*
X92990689Y-82447311D01*
X92710000Y-82166131D01*
X92710000Y-80960630D01*
X93660630Y-80010000D01*
X95758000Y-80010000D01*
X95758000Y-80009999D01*
X96049604Y-79951996D01*
X96049605Y-79951996D01*
X96296815Y-79786815D01*
X98359630Y-77724000D01*
X99949000Y-77724000D01*
X99949000Y-77723999D01*
X100240604Y-77665996D01*
X100240605Y-77665996D01*
X100487815Y-77500815D01*
X100868815Y-77119816D01*
X100868815Y-77119815D01*
X101033996Y-76872605D01*
X101071790Y-76682600D01*
X101369019Y-76682600D01*
G36*
X149290000Y-104856567D02*
X148778153Y-104343826D01*
X147685284Y-103890027D01*
X147685284Y-82988205D01*
X147685284Y-79488205D01*
X147685284Y-75988205D01*
X147685284Y-72488205D01*
X147685284Y-68988205D01*
X147685284Y-65488205D01*
X147685284Y-61988205D01*
X147685284Y-58488205D01*
X147436894Y-57887057D01*
X146977363Y-57426722D01*
X146376648Y-57177284D01*
X145726205Y-57176716D01*
X145125057Y-57425106D01*
X144664722Y-57884637D01*
X144415284Y-58485352D01*
X144414716Y-59135795D01*
X144663106Y-59736943D01*
X145122637Y-60197278D01*
X145723352Y-60446716D01*
X146373795Y-60447284D01*
X146974943Y-60198894D01*
X147435278Y-59739363D01*
X147684716Y-59138648D01*
X147685284Y-58488205D01*
X147685284Y-61988205D01*
X147436894Y-61387057D01*
X146977363Y-60926722D01*
X146376648Y-60677284D01*
X145726205Y-60676716D01*
X145125057Y-60925106D01*
X144664722Y-61384637D01*
X144415284Y-61985352D01*
X144414716Y-62635795D01*
X144663106Y-63236943D01*
X145122637Y-63697278D01*
X145723352Y-63946716D01*
X146373795Y-63947284D01*
X146974943Y-63698894D01*
X147435278Y-63239363D01*
X147684716Y-62638648D01*
X147685284Y-61988205D01*
X147685284Y-65488205D01*
X147436894Y-64887057D01*
X146977363Y-64426722D01*
X146376648Y-64177284D01*
X145726205Y-64176716D01*
X145125057Y-64425106D01*
X144664722Y-64884637D01*
X144415284Y-65485352D01*
X144414716Y-66135795D01*
X144663106Y-66736943D01*
X145122637Y-67197278D01*
X145723352Y-67446716D01*
X146373795Y-67447284D01*
X146974943Y-67198894D01*
X147435278Y-66739363D01*
X147684716Y-66138648D01*
X147685284Y-65488205D01*
X147685284Y-68988205D01*
X147436894Y-68387057D01*
X146977363Y-67926722D01*
X146376648Y-67677284D01*
X145726205Y-67676716D01*
X145125057Y-67925106D01*
X144664722Y-68384637D01*
X144415284Y-68985352D01*
X144414716Y-69635795D01*
X144663106Y-70236943D01*
X145122637Y-70697278D01*
X145723352Y-70946716D01*
X146373795Y-70947284D01*
X146974943Y-70698894D01*
X147435278Y-70239363D01*
X147684716Y-69638648D01*
X147685284Y-68988205D01*
X147685284Y-72488205D01*
X147436894Y-71887057D01*
X146977363Y-71426722D01*
X146376648Y-71177284D01*
X145726205Y-71176716D01*
X145125057Y-71425106D01*
X144664722Y-71884637D01*
X144415284Y-72485352D01*
X144414716Y-73135795D01*
X144663106Y-73736943D01*
X145122637Y-74197278D01*
X145723352Y-74446716D01*
X146373795Y-74447284D01*
X146974943Y-74198894D01*
X147435278Y-73739363D01*
X147684716Y-73138648D01*
X147685284Y-72488205D01*
X147685284Y-75988205D01*
X147436894Y-75387057D01*
X146977363Y-74926722D01*
X146376648Y-74677284D01*
X145726205Y-74676716D01*
X145125057Y-74925106D01*
X144664722Y-75384637D01*
X144415284Y-75985352D01*
X144414716Y-76635795D01*
X144663106Y-77236943D01*
X145122637Y-77697278D01*
X145723352Y-77946716D01*
X146373795Y-77947284D01*
X146974943Y-77698894D01*
X147435278Y-77239363D01*
X147684716Y-76638648D01*
X147685284Y-75988205D01*
X147685284Y-79488205D01*
X147436894Y-78887057D01*
X146977363Y-78426722D01*
X146376648Y-78177284D01*
X145726205Y-78176716D01*
X145125057Y-78425106D01*
X144664722Y-78884637D01*
X144415284Y-79485352D01*
X144414716Y-80135795D01*
X144663106Y-80736943D01*
X145122637Y-81197278D01*
X145723352Y-81446716D01*
X146373795Y-81447284D01*
X146974943Y-81198894D01*
X147435278Y-80739363D01*
X147684716Y-80138648D01*
X147685284Y-79488205D01*
X147685284Y-82988205D01*
X147436894Y-82387057D01*
X146977363Y-81926722D01*
X146376648Y-81677284D01*
X145726205Y-81676716D01*
X145125057Y-81925106D01*
X144664722Y-82384637D01*
X144415284Y-82985352D01*
X144414716Y-83635795D01*
X144663106Y-84236943D01*
X145122637Y-84697278D01*
X145723352Y-84946716D01*
X146373795Y-84947284D01*
X146974943Y-84698894D01*
X147435278Y-84239363D01*
X147684716Y-83638648D01*
X147685284Y-82988205D01*
X147685284Y-103890027D01*
X147626326Y-103865546D01*
X146379146Y-103864457D01*
X145226485Y-104340727D01*
X144343826Y-105221847D01*
X143865546Y-106373674D01*
X143864457Y-107620854D01*
X144340727Y-108773515D01*
X144856311Y-109290000D01*
X140906687Y-109290000D01*
X140906687Y-100497216D01*
X140742689Y-100100311D01*
X140439286Y-99796378D01*
X140042668Y-99631687D01*
X139613216Y-99631313D01*
X139319242Y-99752780D01*
X139319242Y-85321339D01*
X139107010Y-84807697D01*
X138714370Y-84414371D01*
X138201100Y-84201243D01*
X137645339Y-84200758D01*
X137131697Y-84412990D01*
X136921978Y-84622342D01*
X136714370Y-84414371D01*
X136201100Y-84201243D01*
X135645339Y-84200758D01*
X135131697Y-84412990D01*
X134921978Y-84622342D01*
X134714370Y-84414371D01*
X134201100Y-84201243D01*
X133645339Y-84200758D01*
X133131697Y-84412990D01*
X132921978Y-84622342D01*
X132714370Y-84414371D01*
X132201100Y-84201243D01*
X131645339Y-84200758D01*
X131131697Y-84412990D01*
X130921978Y-84622342D01*
X130714370Y-84414371D01*
X130201100Y-84201243D01*
X129645339Y-84200758D01*
X129131697Y-84412990D01*
X128921978Y-84622342D01*
X128714370Y-84414371D01*
X128201100Y-84201243D01*
X127645339Y-84200758D01*
X127131697Y-84412990D01*
X126921978Y-84622342D01*
X126714370Y-84414371D01*
X126201100Y-84201243D01*
X125645339Y-84200758D01*
X125131697Y-84412990D01*
X124921978Y-84622342D01*
X124714370Y-84414371D01*
X124201100Y-84201243D01*
X123645339Y-84200758D01*
X123131697Y-84412990D01*
X122921978Y-84622342D01*
X122714370Y-84414371D01*
X122201100Y-84201243D01*
X121741927Y-84200842D01*
X121741927Y-82742520D01*
X121713148Y-82212801D01*
X121565800Y-81857071D01*
X121330188Y-81795417D01*
X121150583Y-81975022D01*
X121150583Y-81615812D01*
X121088929Y-81380200D01*
X120588520Y-81204073D01*
X120058801Y-81232852D01*
X119703071Y-81380200D01*
X119641417Y-81615812D01*
X120396000Y-82370395D01*
X121150583Y-81615812D01*
X121150583Y-81975022D01*
X120575605Y-82550000D01*
X121330188Y-83304583D01*
X121565800Y-83242929D01*
X121741927Y-82742520D01*
X121741927Y-84200842D01*
X121645339Y-84200758D01*
X121150583Y-84405186D01*
X121150583Y-83484188D01*
X120396000Y-82729605D01*
X120216395Y-82909210D01*
X120216395Y-82550000D01*
X119461812Y-81795417D01*
X119226200Y-81857071D01*
X119050073Y-82357480D01*
X119078852Y-82887199D01*
X119226200Y-83242929D01*
X119461812Y-83304583D01*
X120216395Y-82550000D01*
X120216395Y-82909210D01*
X119641417Y-83484188D01*
X119703071Y-83719800D01*
X120203480Y-83895927D01*
X120733199Y-83867148D01*
X121088929Y-83719800D01*
X121150583Y-83484188D01*
X121150583Y-84405186D01*
X121131697Y-84412990D01*
X120738371Y-84805630D01*
X120722608Y-84843591D01*
X120722608Y-84617787D01*
X120653143Y-84375603D01*
X120129698Y-84188856D01*
X119574632Y-84216638D01*
X119190857Y-84375603D01*
X119121392Y-84617787D01*
X119922000Y-85418395D01*
X120722608Y-84617787D01*
X120722608Y-84843591D01*
X120627878Y-85071726D01*
X120101605Y-85598000D01*
X120627907Y-86124302D01*
X120736990Y-86388303D01*
X121129630Y-86781629D01*
X121642900Y-86994757D01*
X122198661Y-86995242D01*
X122712303Y-86783010D01*
X122922021Y-86573657D01*
X123129630Y-86781629D01*
X123642900Y-86994757D01*
X124198661Y-86995242D01*
X124712303Y-86783010D01*
X124922021Y-86573657D01*
X125129630Y-86781629D01*
X125642900Y-86994757D01*
X126198661Y-86995242D01*
X126712303Y-86783010D01*
X126922021Y-86573657D01*
X127129630Y-86781629D01*
X127642900Y-86994757D01*
X128198661Y-86995242D01*
X128712303Y-86783010D01*
X128922021Y-86573657D01*
X129129630Y-86781629D01*
X129642900Y-86994757D01*
X130198661Y-86995242D01*
X130712303Y-86783010D01*
X130922021Y-86573657D01*
X131129630Y-86781629D01*
X131642900Y-86994757D01*
X132198661Y-86995242D01*
X132712303Y-86783010D01*
X132922021Y-86573657D01*
X133129630Y-86781629D01*
X133642900Y-86994757D01*
X134198661Y-86995242D01*
X134712303Y-86783010D01*
X134922021Y-86573657D01*
X135014285Y-86666083D01*
X133224868Y-88455500D01*
X133009216Y-88455313D01*
X132612311Y-88619311D01*
X132308378Y-88922714D01*
X132143687Y-89319332D01*
X132143313Y-89748784D01*
X132307311Y-90145689D01*
X132610714Y-90449622D01*
X133007332Y-90614313D01*
X133436784Y-90614687D01*
X133833689Y-90450689D01*
X134137622Y-90147286D01*
X134302313Y-89750668D01*
X134302502Y-89533127D01*
X136460815Y-87374816D01*
X136460815Y-87374815D01*
X136625996Y-87127605D01*
X136683999Y-86836000D01*
X136684000Y-86836000D01*
X136684000Y-86794704D01*
X136712303Y-86783010D01*
X136787000Y-86708443D01*
X136787000Y-93890868D01*
X135722434Y-94955434D01*
X135476397Y-95323655D01*
X135390000Y-95758000D01*
X135476397Y-96192345D01*
X135722434Y-96560566D01*
X136090655Y-96806603D01*
X136525000Y-96893000D01*
X136959345Y-96806603D01*
X137327566Y-96560566D01*
X138724566Y-95163566D01*
X138970603Y-94795346D01*
X139056999Y-94361000D01*
X139057000Y-94361000D01*
X139057000Y-86438914D01*
X139105629Y-86390370D01*
X139318757Y-85877100D01*
X139319242Y-85321339D01*
X139319242Y-99752780D01*
X139216311Y-99795311D01*
X138912378Y-100098714D01*
X138747687Y-100495332D01*
X138747497Y-100712872D01*
X137383185Y-102077185D01*
X137218004Y-102324395D01*
X137160000Y-102616000D01*
X137160000Y-106401295D01*
X137131697Y-106412990D01*
X136921978Y-106622342D01*
X136714370Y-106414371D01*
X136201100Y-106201243D01*
X135645339Y-106200758D01*
X135131697Y-106412990D01*
X134921978Y-106622342D01*
X134714370Y-106414371D01*
X134201100Y-106201243D01*
X133645339Y-106200758D01*
X133131697Y-106412990D01*
X132921978Y-106622342D01*
X132714370Y-106414371D01*
X132201100Y-106201243D01*
X131645339Y-106200758D01*
X131131697Y-106412990D01*
X130921978Y-106622342D01*
X130714370Y-106414371D01*
X130201100Y-106201243D01*
X129645339Y-106200758D01*
X129131697Y-106412990D01*
X128921978Y-106622342D01*
X128714370Y-106414371D01*
X128201100Y-106201243D01*
X127645339Y-106200758D01*
X127131697Y-106412990D01*
X126921978Y-106622342D01*
X126714370Y-106414371D01*
X126201100Y-106201243D01*
X125645339Y-106200758D01*
X125131697Y-106412990D01*
X124921978Y-106622342D01*
X124714370Y-106414371D01*
X124201100Y-106201243D01*
X123645339Y-106200758D01*
X123131697Y-106412990D01*
X122921978Y-106622342D01*
X122714370Y-106414371D01*
X122201100Y-106201243D01*
X121645339Y-106200758D01*
X121131697Y-106412990D01*
X120921978Y-106622342D01*
X120714370Y-106414371D01*
X120201100Y-106201243D01*
X119645339Y-106200758D01*
X119131697Y-106412990D01*
X118738371Y-106805630D01*
X118525243Y-107318900D01*
X118524758Y-107874661D01*
X118736990Y-108388303D01*
X119129630Y-108781629D01*
X119642900Y-108994757D01*
X120198661Y-108995242D01*
X120712303Y-108783010D01*
X120922021Y-108573657D01*
X121129630Y-108781629D01*
X121642900Y-108994757D01*
X122198661Y-108995242D01*
X122712303Y-108783010D01*
X122922021Y-108573657D01*
X123129630Y-108781629D01*
X123642900Y-108994757D01*
X124198661Y-108995242D01*
X124712303Y-108783010D01*
X124922021Y-108573657D01*
X125129630Y-108781629D01*
X125642900Y-108994757D01*
X126198661Y-108995242D01*
X126712303Y-108783010D01*
X126922021Y-108573657D01*
X127129630Y-108781629D01*
X127642900Y-108994757D01*
X128198661Y-108995242D01*
X128712303Y-108783010D01*
X128922021Y-108573657D01*
X129129630Y-108781629D01*
X129642900Y-108994757D01*
X130198661Y-108995242D01*
X130712303Y-108783010D01*
X130922021Y-108573657D01*
X131129630Y-108781629D01*
X131642900Y-108994757D01*
X132198661Y-108995242D01*
X132712303Y-108783010D01*
X132922021Y-108573657D01*
X133129630Y-108781629D01*
X133642900Y-108994757D01*
X134198661Y-108995242D01*
X134712303Y-108783010D01*
X134922021Y-108573657D01*
X135129630Y-108781629D01*
X135642900Y-108994757D01*
X136198661Y-108995242D01*
X136712303Y-108783010D01*
X136922021Y-108573657D01*
X137129630Y-108781629D01*
X137642900Y-108994757D01*
X138198661Y-108995242D01*
X138712303Y-108783010D01*
X139105629Y-108390370D01*
X139318757Y-107877100D01*
X139319242Y-107321339D01*
X139107010Y-106807697D01*
X138714370Y-106414371D01*
X138684000Y-106401760D01*
X138684000Y-102931630D01*
X139825130Y-101790499D01*
X140040784Y-101790687D01*
X140437689Y-101626689D01*
X140741622Y-101323286D01*
X140906313Y-100926668D01*
X140906687Y-100497216D01*
X140906687Y-109290000D01*
X97357927Y-109290000D01*
X96766583Y-109290000D01*
X96766583Y-108630188D01*
X96012000Y-107875605D01*
X95832395Y-108055210D01*
X95257417Y-108630188D01*
X95319071Y-108865800D01*
X95819480Y-109041927D01*
X96349199Y-109013148D01*
X96704929Y-108865800D01*
X96766583Y-108630188D01*
X96766583Y-109290000D01*
X89737927Y-109290000D01*
X89146583Y-109290000D01*
X89146583Y-108630188D01*
X88392000Y-107875605D01*
X88212395Y-108055210D01*
X87637417Y-108630188D01*
X87699071Y-108865800D01*
X88199480Y-109041927D01*
X88729199Y-109013148D01*
X89084929Y-108865800D01*
X89146583Y-108630188D01*
X89146583Y-109290000D01*
X55143432Y-109290000D01*
X55656174Y-108778153D01*
X56134454Y-107626326D01*
X56135543Y-106379146D01*
X55659273Y-105226485D01*
X54778153Y-104343826D01*
X53626326Y-103865546D01*
X52379146Y-103864457D01*
X51226485Y-104340727D01*
X50710000Y-104856311D01*
X50710000Y-101885554D01*
X51092332Y-102044313D01*
X51521784Y-102044687D01*
X51918689Y-101880689D01*
X52197219Y-101602644D01*
X52473714Y-101879622D01*
X52870332Y-102044313D01*
X53299784Y-102044687D01*
X53406052Y-102000777D01*
X53440311Y-102083689D01*
X53743714Y-102387622D01*
X54140332Y-102552313D01*
X54569784Y-102552687D01*
X54966689Y-102388689D01*
X55270622Y-102085286D01*
X55435313Y-101688668D01*
X55435687Y-101259216D01*
X55271689Y-100862311D01*
X55213555Y-100804075D01*
X55306630Y-100711000D01*
X55816609Y-100711000D01*
X55816313Y-101051784D01*
X55980311Y-101448689D01*
X56283714Y-101752622D01*
X56680332Y-101917313D01*
X57109784Y-101917687D01*
X57506689Y-101753689D01*
X57787868Y-101473000D01*
X62039388Y-101473000D01*
X62039313Y-101559784D01*
X62203311Y-101956689D01*
X62506714Y-102260622D01*
X62903332Y-102425313D01*
X63332784Y-102425687D01*
X63729689Y-102261689D01*
X64033622Y-101958286D01*
X64038619Y-101946249D01*
X68676185Y-106583816D01*
X68824376Y-106682834D01*
X68923395Y-106748996D01*
X68923396Y-106748996D01*
X69215000Y-106807000D01*
X87361717Y-106807000D01*
X87342555Y-106826163D01*
X87457809Y-106941417D01*
X87222200Y-107003071D01*
X87046073Y-107503480D01*
X87074852Y-108033199D01*
X87222200Y-108388929D01*
X87457812Y-108450583D01*
X88212395Y-107696000D01*
X88198252Y-107681857D01*
X88377857Y-107502252D01*
X88392000Y-107516395D01*
X88406142Y-107502252D01*
X88585747Y-107681857D01*
X88571605Y-107696000D01*
X89326188Y-108450583D01*
X89561800Y-108388929D01*
X89737927Y-107888520D01*
X89709148Y-107358801D01*
X89561800Y-107003071D01*
X89326190Y-106941417D01*
X89441445Y-106826163D01*
X89422282Y-106807000D01*
X94981718Y-106807000D01*
X94962555Y-106826163D01*
X95077809Y-106941417D01*
X94842200Y-107003071D01*
X94666073Y-107503480D01*
X94694852Y-108033199D01*
X94842200Y-108388929D01*
X95077812Y-108450583D01*
X95832395Y-107696000D01*
X95818252Y-107681857D01*
X95997857Y-107502252D01*
X96012000Y-107516395D01*
X96026142Y-107502252D01*
X96205747Y-107681857D01*
X96191605Y-107696000D01*
X96946188Y-108450583D01*
X97181800Y-108388929D01*
X97357927Y-107888520D01*
X97329148Y-107358801D01*
X97181800Y-107003071D01*
X96946190Y-106941417D01*
X97061445Y-106826163D01*
X97042282Y-106807000D01*
X108839000Y-106807000D01*
X108839000Y-106806999D01*
X109130604Y-106748996D01*
X109130605Y-106748996D01*
X109377815Y-106583815D01*
X110234131Y-105727499D01*
X110449784Y-105727687D01*
X110846689Y-105563689D01*
X111150622Y-105260286D01*
X111315313Y-104863668D01*
X111315687Y-104434216D01*
X111151689Y-104037311D01*
X110848286Y-103733378D01*
X110451668Y-103568687D01*
X110107242Y-103568387D01*
X110139815Y-103535815D01*
X110304996Y-103288605D01*
X110362999Y-102997000D01*
X110363000Y-102997000D01*
X110363000Y-102743000D01*
X110363000Y-102616000D01*
X110363000Y-98994630D01*
X112933815Y-96423815D01*
X112933816Y-96423815D01*
X113032834Y-96275623D01*
X113098996Y-96176605D01*
X113098996Y-96176604D01*
X113157000Y-95885000D01*
X113157000Y-92964000D01*
X113157000Y-92898630D01*
X115250630Y-90805000D01*
X115840611Y-90805000D01*
X115791397Y-90878654D01*
X115705000Y-91313000D01*
X115791397Y-91747346D01*
X116037434Y-92115566D01*
X116405654Y-92361603D01*
X116840000Y-92448000D01*
X129159000Y-92448000D01*
X129593345Y-92361603D01*
X129593346Y-92361603D01*
X129961566Y-92115566D01*
X130850566Y-91226566D01*
X131096603Y-90858345D01*
X131183000Y-90424000D01*
X131096603Y-89989655D01*
X130850566Y-89621434D01*
X130482345Y-89375397D01*
X130048000Y-89289000D01*
X129613655Y-89375397D01*
X129245434Y-89621434D01*
X128688868Y-90178000D01*
X120722608Y-90178000D01*
X120722608Y-86578213D01*
X119922000Y-85777605D01*
X119742395Y-85957210D01*
X119742395Y-85598000D01*
X118941787Y-84797392D01*
X118699603Y-84866857D01*
X118512856Y-85390302D01*
X118540638Y-85945368D01*
X118699603Y-86329143D01*
X118941787Y-86398608D01*
X119742395Y-85598000D01*
X119742395Y-85957210D01*
X119121392Y-86578213D01*
X119190857Y-86820397D01*
X119714302Y-87007144D01*
X120269368Y-86979362D01*
X120653143Y-86820397D01*
X120722608Y-86578213D01*
X120722608Y-90178000D01*
X118554383Y-90178000D01*
X118554687Y-89829216D01*
X118390689Y-89432311D01*
X118087286Y-89128378D01*
X117690668Y-88963687D01*
X117261216Y-88963313D01*
X116864311Y-89127311D01*
X116710353Y-89281000D01*
X115945660Y-89281000D01*
X116014313Y-89115668D01*
X116014687Y-88686216D01*
X115850689Y-88289311D01*
X115547286Y-87985378D01*
X115150668Y-87820687D01*
X114933127Y-87820497D01*
X114838815Y-87726185D01*
X114591605Y-87561004D01*
X114300000Y-87503000D01*
X114121927Y-87503000D01*
X114121927Y-82742520D01*
X114093148Y-82212801D01*
X113945800Y-81857071D01*
X113710188Y-81795417D01*
X113530583Y-81975022D01*
X113530583Y-81615812D01*
X113468929Y-81380200D01*
X112968520Y-81204073D01*
X112438801Y-81232852D01*
X112083071Y-81380200D01*
X112021417Y-81615812D01*
X112776000Y-82370395D01*
X113530583Y-81615812D01*
X113530583Y-81975022D01*
X112955605Y-82550000D01*
X113710188Y-83304583D01*
X113945800Y-83242929D01*
X114121927Y-82742520D01*
X114121927Y-87503000D01*
X113530583Y-87503000D01*
X113530583Y-83484188D01*
X112776000Y-82729605D01*
X112596395Y-82909210D01*
X112596395Y-82550000D01*
X111841812Y-81795417D01*
X111606200Y-81857071D01*
X111430073Y-82357480D01*
X111458852Y-82887199D01*
X111606200Y-83242929D01*
X111841812Y-83304583D01*
X112596395Y-82550000D01*
X112596395Y-82909210D01*
X112021417Y-83484188D01*
X112083071Y-83719800D01*
X112583480Y-83895927D01*
X113113199Y-83867148D01*
X113468929Y-83719800D01*
X113530583Y-83484188D01*
X113530583Y-87503000D01*
X110998000Y-87503000D01*
X110706395Y-87561004D01*
X110459185Y-87726185D01*
X107157185Y-91028185D01*
X106992004Y-91275395D01*
X106934000Y-91567000D01*
X106934000Y-101157370D01*
X104205369Y-103886000D01*
X96430327Y-103886000D01*
X96766380Y-103747146D01*
X97141827Y-103372353D01*
X97345268Y-102882413D01*
X97345731Y-102351914D01*
X97143146Y-101861620D01*
X96768353Y-101486173D01*
X96278413Y-101282732D01*
X95747914Y-101282269D01*
X95257620Y-101484854D01*
X94882173Y-101859647D01*
X94678732Y-102349587D01*
X94678269Y-102880086D01*
X94880854Y-103370380D01*
X95255647Y-103745827D01*
X95593220Y-103886000D01*
X90424000Y-103886000D01*
X90424000Y-101407630D01*
X91724815Y-100106816D01*
X91724815Y-100106815D01*
X91889996Y-99859605D01*
X91947999Y-99568000D01*
X91948000Y-99568000D01*
X91948000Y-95311630D01*
X92581131Y-94678499D01*
X92796784Y-94678687D01*
X93193689Y-94514689D01*
X93497622Y-94211286D01*
X93662313Y-93814668D01*
X93662687Y-93385216D01*
X93498689Y-92988311D01*
X93347641Y-92837000D01*
X93537369Y-92837000D01*
X99822000Y-99121630D01*
X99822000Y-100838000D01*
X99880004Y-101129605D01*
X100045185Y-101376815D01*
X100807185Y-102138816D01*
X100955376Y-102237834D01*
X101054395Y-102303996D01*
X101054396Y-102303996D01*
X101117400Y-102316528D01*
X101117400Y-102843909D01*
X101214073Y-103077298D01*
X101392701Y-103255927D01*
X101626090Y-103352600D01*
X101878709Y-103352600D01*
X104113909Y-103352600D01*
X104347298Y-103255927D01*
X104525927Y-103077299D01*
X104622600Y-102843910D01*
X104622600Y-102591291D01*
X104622600Y-100356091D01*
X104611792Y-100330000D01*
X104622600Y-100303910D01*
X104622600Y-100051291D01*
X104622600Y-97816091D01*
X104611792Y-97790000D01*
X104622600Y-97763910D01*
X104622600Y-97511291D01*
X104622600Y-95276091D01*
X104611792Y-95250000D01*
X104622600Y-95223910D01*
X104622600Y-94971291D01*
X104622600Y-92736091D01*
X104611792Y-92710000D01*
X104622600Y-92683910D01*
X104622600Y-92431291D01*
X104622600Y-90196091D01*
X104611792Y-90170000D01*
X104622600Y-90143910D01*
X104622600Y-89891291D01*
X104622600Y-87656091D01*
X104611792Y-87630000D01*
X104622600Y-87603910D01*
X104622600Y-87351291D01*
X104622600Y-85116091D01*
X104611792Y-85090000D01*
X104622600Y-85063910D01*
X104622600Y-84811291D01*
X104622600Y-84764732D01*
X108163434Y-88305566D01*
X108531655Y-88551603D01*
X108966000Y-88638000D01*
X109400345Y-88551603D01*
X109768566Y-88305566D01*
X110014603Y-87937345D01*
X110101000Y-87503000D01*
X110014603Y-87068655D01*
X109768566Y-86700434D01*
X106037000Y-82968868D01*
X106037000Y-82131132D01*
X111165566Y-77002566D01*
X111411603Y-76634346D01*
X111411603Y-76634345D01*
X111498000Y-76200000D01*
X111498000Y-74114132D01*
X113243434Y-75859567D01*
X113611654Y-76105603D01*
X113611655Y-76105604D01*
X114046000Y-76192000D01*
X119997034Y-76192000D01*
X119641620Y-76338854D01*
X119271829Y-76708000D01*
X113899539Y-76708000D01*
X113532353Y-76340173D01*
X113042413Y-76136732D01*
X112511914Y-76136269D01*
X112021620Y-76338854D01*
X111646173Y-76713647D01*
X111442732Y-77203587D01*
X111442269Y-77734086D01*
X111644854Y-78224380D01*
X112019647Y-78599827D01*
X112509587Y-78803268D01*
X113040086Y-78803731D01*
X113530380Y-78601146D01*
X113900170Y-78232000D01*
X119272460Y-78232000D01*
X119639647Y-78599827D01*
X120129587Y-78803268D01*
X120660086Y-78803731D01*
X121150380Y-78601146D01*
X121525827Y-78226353D01*
X121729268Y-77736413D01*
X121729731Y-77205914D01*
X121527146Y-76715620D01*
X121152353Y-76340173D01*
X120795513Y-76192000D01*
X126275868Y-76192000D01*
X126832434Y-76748566D01*
X127200655Y-76994603D01*
X127635000Y-77081000D01*
X128069345Y-76994603D01*
X128437566Y-76748566D01*
X128683603Y-76380345D01*
X128770000Y-75946000D01*
X128683603Y-75511655D01*
X128437566Y-75143434D01*
X127548566Y-74254434D01*
X127180346Y-74008397D01*
X126746000Y-73922000D01*
X124005630Y-73922000D01*
X125433583Y-72494047D01*
X125641332Y-72580313D01*
X126070784Y-72580687D01*
X126467689Y-72416689D01*
X126771622Y-72113286D01*
X126936313Y-71716668D01*
X126936687Y-71287216D01*
X126772689Y-70890311D01*
X126469286Y-70586378D01*
X126072668Y-70421687D01*
X125728242Y-70421387D01*
X125791630Y-70358000D01*
X129540000Y-70358000D01*
X129540000Y-70357999D01*
X129831604Y-70299996D01*
X129831605Y-70299996D01*
X130078815Y-70134815D01*
X130586815Y-69626816D01*
X130586815Y-69626815D01*
X130751996Y-69379605D01*
X130809999Y-69088000D01*
X130810000Y-69088000D01*
X130810000Y-66294000D01*
X130751996Y-66002395D01*
X130586815Y-65755185D01*
X130586815Y-65755184D01*
X129857499Y-65025868D01*
X129857687Y-64810216D01*
X129693689Y-64413311D01*
X129390286Y-64109378D01*
X128993668Y-63944687D01*
X128564216Y-63944313D01*
X128167311Y-64108311D01*
X127863378Y-64411714D01*
X127698687Y-64808332D01*
X127698313Y-65237784D01*
X127862311Y-65634689D01*
X128165714Y-65938622D01*
X128562332Y-66103313D01*
X128779872Y-66103502D01*
X129033759Y-66357390D01*
X128945216Y-66357313D01*
X128548311Y-66521311D01*
X128394353Y-66675000D01*
X116774630Y-66675000D01*
X114330815Y-64231185D01*
X114083605Y-64066004D01*
X113792000Y-64008000D01*
X113540641Y-64008000D01*
X113388286Y-63855378D01*
X112991668Y-63690687D01*
X112562216Y-63690313D01*
X112165311Y-63854311D01*
X112060893Y-63958546D01*
X111721668Y-63817687D01*
X111292216Y-63817313D01*
X110895311Y-63981311D01*
X110591378Y-64284714D01*
X110426687Y-64681332D01*
X110426313Y-65110784D01*
X110590311Y-65507689D01*
X110893714Y-65811622D01*
X111290332Y-65976313D01*
X111507872Y-65976502D01*
X114046000Y-68514630D01*
X114046000Y-72574880D01*
X113943311Y-72617311D01*
X113639378Y-72920714D01*
X113602839Y-73008707D01*
X111165566Y-70571434D01*
X110797346Y-70325397D01*
X110363000Y-70239000D01*
X109982000Y-70314785D01*
X109982000Y-64392998D01*
X109923996Y-64101394D01*
X109923996Y-64101393D01*
X109857834Y-64002374D01*
X109758816Y-63854183D01*
X108992817Y-63088185D01*
X108745607Y-62923004D01*
X108462286Y-62866647D01*
X108308286Y-62712378D01*
X107911668Y-62547687D01*
X107482216Y-62547313D01*
X107085311Y-62711311D01*
X106781378Y-63014714D01*
X106616687Y-63411332D01*
X106616313Y-63840784D01*
X106780311Y-64237689D01*
X107083714Y-64541622D01*
X107480332Y-64706313D01*
X107909784Y-64706687D01*
X108296337Y-64546966D01*
X108458000Y-64708628D01*
X108458000Y-65783131D01*
X108435286Y-65760378D01*
X108038668Y-65595687D01*
X107751832Y-65595437D01*
X107728603Y-65478654D01*
X107482566Y-65110434D01*
X103926566Y-61554434D01*
X103558346Y-61308397D01*
X103124000Y-61222000D01*
X90170000Y-61222000D01*
X89735654Y-61308397D01*
X89367434Y-61554434D01*
X88986434Y-61935434D01*
X88740397Y-62303654D01*
X88654000Y-62738000D01*
X88654000Y-66421000D01*
X88740397Y-66855346D01*
X88986434Y-67223566D01*
X89354654Y-67469603D01*
X89789000Y-67556000D01*
X90223346Y-67469603D01*
X90591566Y-67223566D01*
X90837603Y-66855346D01*
X90924000Y-66421000D01*
X90924000Y-63492000D01*
X102653868Y-63492000D01*
X105877434Y-66715566D01*
X106145012Y-66894356D01*
X104459369Y-68580000D01*
X94615000Y-68580000D01*
X94323395Y-68638004D01*
X94076185Y-68803185D01*
X91568869Y-71310500D01*
X91353216Y-71310313D01*
X90956311Y-71474311D01*
X90652378Y-71777714D01*
X90487687Y-72174332D01*
X90487313Y-72603784D01*
X90651311Y-73000689D01*
X90827713Y-73177400D01*
X88926091Y-73177400D01*
X88900000Y-73188207D01*
X88873910Y-73177400D01*
X88621291Y-73177400D01*
X86386091Y-73177400D01*
X86360000Y-73188207D01*
X86333909Y-73177400D01*
X85375750Y-73177400D01*
X85217000Y-73336150D01*
X85217000Y-74803000D01*
X85237000Y-74803000D01*
X85237000Y-75057000D01*
X85217000Y-75057000D01*
X85217000Y-75077000D01*
X84963000Y-75077000D01*
X84963000Y-75057000D01*
X84943000Y-75057000D01*
X84943000Y-74803000D01*
X84963000Y-74803000D01*
X84963000Y-73336150D01*
X84804250Y-73177400D01*
X83846091Y-73177400D01*
X83820000Y-73188207D01*
X83793910Y-73177400D01*
X83541291Y-73177400D01*
X81343687Y-73177400D01*
X81343687Y-59730216D01*
X81179689Y-59333311D01*
X80876286Y-59029378D01*
X80479668Y-58864687D01*
X80320000Y-58864547D01*
X80320000Y-55302220D01*
X80482943Y-55234894D01*
X80943278Y-54775363D01*
X81192716Y-54174648D01*
X81193284Y-53524205D01*
X80944894Y-52923057D01*
X80485363Y-52462722D01*
X79884648Y-52213284D01*
X79234205Y-52212716D01*
X78633057Y-52461106D01*
X78172722Y-52920637D01*
X77923284Y-53521352D01*
X77922716Y-54171795D01*
X78171106Y-54772943D01*
X78630637Y-55233278D01*
X78796000Y-55301942D01*
X78796000Y-57132532D01*
X78780566Y-57109434D01*
X78412346Y-56863397D01*
X77978000Y-56777000D01*
X77724000Y-56777000D01*
X77693284Y-56783109D01*
X77693284Y-53524205D01*
X77444894Y-52923057D01*
X76985363Y-52462722D01*
X76384648Y-52213284D01*
X75734205Y-52212716D01*
X75133057Y-52461106D01*
X74672722Y-52920637D01*
X74423284Y-53521352D01*
X74422716Y-54171795D01*
X74671106Y-54772943D01*
X75130637Y-55233278D01*
X75731352Y-55482716D01*
X76381795Y-55483284D01*
X76982943Y-55234894D01*
X77443278Y-54775363D01*
X77692716Y-54174648D01*
X77693284Y-53524205D01*
X77693284Y-56783109D01*
X77289654Y-56863397D01*
X76921433Y-57109434D01*
X75729867Y-58301000D01*
X74193284Y-58301000D01*
X74193284Y-53524205D01*
X73944894Y-52923057D01*
X73485363Y-52462722D01*
X72884648Y-52213284D01*
X72234205Y-52212716D01*
X71633057Y-52461106D01*
X71172722Y-52920637D01*
X70923284Y-53521352D01*
X70922716Y-54171795D01*
X71171106Y-54772943D01*
X71630637Y-55233278D01*
X72231352Y-55482716D01*
X72881795Y-55483284D01*
X73482943Y-55234894D01*
X73943278Y-54775363D01*
X74192716Y-54174648D01*
X74193284Y-53524205D01*
X74193284Y-58301000D01*
X73143338Y-58301000D01*
X73215313Y-58127668D01*
X73215687Y-57698216D01*
X73051689Y-57301311D01*
X72748286Y-56997378D01*
X72351668Y-56832687D01*
X72134128Y-56832497D01*
X70896815Y-55595185D01*
X70649605Y-55430004D01*
X70358000Y-55372000D01*
X69651122Y-55372000D01*
X69982943Y-55234894D01*
X70443278Y-54775363D01*
X70692716Y-54174648D01*
X70693284Y-53524205D01*
X70444894Y-52923057D01*
X69985363Y-52462722D01*
X69384648Y-52213284D01*
X68734205Y-52212716D01*
X68133057Y-52461106D01*
X67672722Y-52920637D01*
X67423284Y-53521352D01*
X67422716Y-54171795D01*
X67671106Y-54772943D01*
X68130637Y-55233278D01*
X68464717Y-55372000D01*
X66151122Y-55372000D01*
X66482943Y-55234894D01*
X66943278Y-54775363D01*
X67192716Y-54174648D01*
X67193284Y-53524205D01*
X66944894Y-52923057D01*
X66485363Y-52462722D01*
X65884648Y-52213284D01*
X65234205Y-52212716D01*
X64633057Y-52461106D01*
X64172722Y-52920637D01*
X63923284Y-53521352D01*
X63922716Y-54171795D01*
X64171106Y-54772943D01*
X64630637Y-55233278D01*
X64964717Y-55372000D01*
X62651122Y-55372000D01*
X62982943Y-55234894D01*
X63443278Y-54775363D01*
X63692716Y-54174648D01*
X63693284Y-53524205D01*
X63444894Y-52923057D01*
X62985363Y-52462722D01*
X62384648Y-52213284D01*
X61734205Y-52212716D01*
X61133057Y-52461106D01*
X60672722Y-52920637D01*
X60423284Y-53521352D01*
X60422716Y-54171795D01*
X60671106Y-54772943D01*
X61130637Y-55233278D01*
X61464717Y-55372000D01*
X61159630Y-55372000D01*
X60125104Y-54337474D01*
X60192716Y-54174648D01*
X60193284Y-53524205D01*
X59944894Y-52923057D01*
X59485363Y-52462722D01*
X58884648Y-52213284D01*
X58234205Y-52212716D01*
X57633057Y-52461106D01*
X57172722Y-52920637D01*
X56923284Y-53521352D01*
X56922716Y-54171795D01*
X57171106Y-54772943D01*
X57630637Y-55233278D01*
X58231352Y-55482716D01*
X58881795Y-55483284D01*
X59047277Y-55414907D01*
X60305184Y-56672815D01*
X60305185Y-56672815D01*
X60552395Y-56837996D01*
X60844000Y-56896000D01*
X70042369Y-56896000D01*
X71056500Y-57910131D01*
X71056313Y-58125784D01*
X71170736Y-58402709D01*
X70825434Y-58633434D01*
X70579397Y-59001654D01*
X70493000Y-59436000D01*
X70579397Y-59870346D01*
X70825434Y-60238566D01*
X71193654Y-60484603D01*
X71628000Y-60571000D01*
X76200000Y-60571000D01*
X76634345Y-60484603D01*
X76634346Y-60484603D01*
X77002566Y-60238566D01*
X78247799Y-58993333D01*
X78412346Y-58960603D01*
X78780566Y-58714566D01*
X78796000Y-58691467D01*
X78796000Y-59238000D01*
X78854004Y-59529605D01*
X79019185Y-59776815D01*
X79184500Y-59942131D01*
X79184313Y-60157784D01*
X79348311Y-60554689D01*
X79651714Y-60858622D01*
X80048332Y-61023313D01*
X80477784Y-61023687D01*
X80874689Y-60859689D01*
X81178622Y-60556286D01*
X81343313Y-60159668D01*
X81343687Y-59730216D01*
X81343687Y-73177400D01*
X81306091Y-73177400D01*
X81280000Y-73188207D01*
X81253910Y-73177400D01*
X81001291Y-73177400D01*
X78766091Y-73177400D01*
X78532702Y-73274073D01*
X78354073Y-73452701D01*
X78257400Y-73686090D01*
X78257400Y-73938709D01*
X78257400Y-75993385D01*
X78129311Y-76046311D01*
X77825378Y-76349714D01*
X77660687Y-76746332D01*
X77660313Y-77175784D01*
X77824311Y-77572689D01*
X78127714Y-77876622D01*
X78524332Y-78041313D01*
X78953784Y-78041687D01*
X79350689Y-77877689D01*
X79504646Y-77724000D01*
X85976358Y-77724000D01*
X86128714Y-77876622D01*
X86499699Y-78030669D01*
X83694869Y-80835500D01*
X83479216Y-80835313D01*
X83082311Y-80999311D01*
X82778378Y-81302714D01*
X82613687Y-81699332D01*
X82613313Y-82128784D01*
X82777311Y-82525689D01*
X83080714Y-82829622D01*
X83477332Y-82994313D01*
X83906784Y-82994687D01*
X84249784Y-82852961D01*
X84209000Y-83058000D01*
X84284785Y-83439000D01*
X78488420Y-83439000D01*
X78209286Y-83159378D01*
X77812668Y-82994687D01*
X77383216Y-82994313D01*
X77279629Y-83037114D01*
X77279687Y-82971216D01*
X77115689Y-82574311D01*
X76812286Y-82270378D01*
X76415668Y-82105687D01*
X75986216Y-82105313D01*
X75589311Y-82269311D01*
X75285378Y-82572714D01*
X75120687Y-82969332D01*
X75120313Y-83398784D01*
X75136929Y-83439000D01*
X74142600Y-83439000D01*
X74142600Y-71093910D01*
X74142600Y-70841291D01*
X74142600Y-68606091D01*
X74045927Y-68372702D01*
X73867299Y-68194073D01*
X73633910Y-68097400D01*
X73381291Y-68097400D01*
X71146091Y-68097400D01*
X70912702Y-68194073D01*
X70734073Y-68372701D01*
X70637400Y-68606090D01*
X70637400Y-68858709D01*
X70637400Y-71093909D01*
X70734073Y-71327298D01*
X70912701Y-71505927D01*
X71146090Y-71602600D01*
X71398709Y-71602600D01*
X73633909Y-71602600D01*
X73867298Y-71505927D01*
X74045927Y-71327299D01*
X74142600Y-71093910D01*
X74142600Y-83439000D01*
X72771000Y-83439000D01*
X72580687Y-83476855D01*
X72580687Y-74970216D01*
X72416689Y-74573311D01*
X72262342Y-74418694D01*
X72204996Y-74130396D01*
X72204996Y-74130395D01*
X72039815Y-73883185D01*
X70007815Y-71851185D01*
X69760605Y-71686004D01*
X69469000Y-71628000D01*
X65786000Y-71628000D01*
X59938660Y-71628000D01*
X60007313Y-71462668D01*
X60007502Y-71245127D01*
X60767630Y-70485000D01*
X64132358Y-70485000D01*
X64284714Y-70637622D01*
X64681332Y-70802313D01*
X65110784Y-70802687D01*
X65507689Y-70638689D01*
X65811622Y-70335286D01*
X65976313Y-69938668D01*
X65976687Y-69509216D01*
X65812689Y-69112311D01*
X65509286Y-68808378D01*
X65112668Y-68643687D01*
X64683216Y-68643313D01*
X64286311Y-68807311D01*
X64132353Y-68961000D01*
X60452000Y-68961000D01*
X60160395Y-69019004D01*
X59913184Y-69184185D01*
X58929868Y-70167500D01*
X58714216Y-70167313D01*
X58317311Y-70331311D01*
X58013378Y-70634714D01*
X57848687Y-71031332D01*
X57848313Y-71460784D01*
X57917405Y-71628000D01*
X57211630Y-71628000D01*
X56451499Y-70867868D01*
X56451687Y-70652216D01*
X56287689Y-70255311D01*
X55996388Y-69963501D01*
X55996388Y-65094194D01*
X55976250Y-64344565D01*
X55728123Y-63745533D01*
X55435320Y-63616285D01*
X55255715Y-63795890D01*
X55255715Y-63436680D01*
X55126467Y-63143877D01*
X54426194Y-62875612D01*
X53676565Y-62895750D01*
X53077533Y-63143877D01*
X52948285Y-63436680D01*
X54102000Y-64590395D01*
X55255715Y-63436680D01*
X55255715Y-63795890D01*
X54281605Y-64770000D01*
X55435320Y-65923715D01*
X55728123Y-65794467D01*
X55996388Y-65094194D01*
X55996388Y-69963501D01*
X55984286Y-69951378D01*
X55587668Y-69786687D01*
X55255715Y-69786397D01*
X55255715Y-66103320D01*
X54102000Y-64949605D01*
X53922395Y-65129210D01*
X53922395Y-64770000D01*
X52768680Y-63616285D01*
X52475877Y-63745533D01*
X52207612Y-64445806D01*
X52227750Y-65195435D01*
X52475877Y-65794467D01*
X52768680Y-65923715D01*
X53922395Y-64770000D01*
X53922395Y-65129210D01*
X52948285Y-66103320D01*
X53077533Y-66396123D01*
X53777806Y-66664388D01*
X54527435Y-66644250D01*
X55126467Y-66396123D01*
X55255715Y-66103320D01*
X55255715Y-69786397D01*
X55158216Y-69786313D01*
X54761311Y-69950311D01*
X54457378Y-70253714D01*
X54292687Y-70650332D01*
X54292313Y-71079784D01*
X54456311Y-71476689D01*
X54759714Y-71780622D01*
X55156332Y-71945313D01*
X55373872Y-71945502D01*
X56357184Y-72928815D01*
X56357185Y-72928815D01*
X56604395Y-73093996D01*
X56896000Y-73152000D01*
X65786000Y-73152000D01*
X69153370Y-73152000D01*
X70582477Y-74581107D01*
X70421687Y-74968332D01*
X70421313Y-75397784D01*
X70585311Y-75794689D01*
X70888714Y-76098622D01*
X71285332Y-76263313D01*
X71714784Y-76263687D01*
X72111689Y-76099689D01*
X72415622Y-75796286D01*
X72580313Y-75399668D01*
X72580687Y-74970216D01*
X72580687Y-83476855D01*
X72479395Y-83497004D01*
X72232185Y-83662185D01*
X71883869Y-84010500D01*
X71668216Y-84010313D01*
X71271311Y-84174311D01*
X70967378Y-84477714D01*
X70802687Y-84874332D01*
X70802313Y-85303784D01*
X70966311Y-85700689D01*
X71269714Y-86004622D01*
X71666332Y-86169313D01*
X72095784Y-86169687D01*
X72492689Y-86005689D01*
X72796622Y-85702286D01*
X72961313Y-85305668D01*
X72961502Y-85088127D01*
X73086630Y-84963000D01*
X76011369Y-84963000D01*
X76550185Y-85501816D01*
X76698376Y-85600834D01*
X76797395Y-85666996D01*
X76797396Y-85666996D01*
X77089000Y-85725000D01*
X84534929Y-85725000D01*
X84682311Y-86081689D01*
X84985714Y-86385622D01*
X85382332Y-86550313D01*
X85811784Y-86550687D01*
X86208689Y-86386689D01*
X86512622Y-86083286D01*
X86677313Y-85686668D01*
X86677687Y-85257216D01*
X86536707Y-84916020D01*
X86638386Y-84814518D01*
X88019000Y-86195132D01*
X88019000Y-87794868D01*
X86192434Y-89621434D01*
X85946397Y-89989655D01*
X85860000Y-90424000D01*
X85946397Y-90858345D01*
X85996336Y-90933084D01*
X85104420Y-91825000D01*
X82556856Y-91825000D01*
X82527286Y-91795378D01*
X82130668Y-91630687D01*
X81701216Y-91630313D01*
X81304311Y-91794311D01*
X81000378Y-92097714D01*
X80835687Y-92494332D01*
X80835313Y-92923784D01*
X80999311Y-93320689D01*
X81030000Y-93351431D01*
X81030000Y-96040465D01*
X80870515Y-96072189D01*
X80814325Y-96083367D01*
X80695438Y-96162803D01*
X80775959Y-95758000D01*
X80661885Y-95184511D01*
X80337029Y-94698330D01*
X80013771Y-94482336D01*
X80136490Y-94424821D01*
X80530688Y-93992947D01*
X80702958Y-93577026D01*
X80702958Y-92858974D01*
X80530688Y-92443053D01*
X80136490Y-92011179D01*
X79607027Y-91763032D01*
X79375000Y-91883531D01*
X79375000Y-93091000D01*
X80581817Y-93091000D01*
X80702958Y-92858974D01*
X80702958Y-93577026D01*
X80581817Y-93345000D01*
X79375000Y-93345000D01*
X79375000Y-93365000D01*
X79121000Y-93365000D01*
X79121000Y-93345000D01*
X79101000Y-93345000D01*
X79101000Y-93091000D01*
X79121000Y-93091000D01*
X79121000Y-91883531D01*
X78888973Y-91763032D01*
X78359510Y-92011179D01*
X77977992Y-92429160D01*
X77797029Y-92158330D01*
X77310848Y-91833474D01*
X76737359Y-91719400D01*
X76678641Y-91719400D01*
X76200000Y-91814607D01*
X76200000Y-90993630D01*
X78039630Y-89154000D01*
X80964369Y-89154000D01*
X81249184Y-89438815D01*
X81249185Y-89438815D01*
X81496395Y-89603996D01*
X81788000Y-89662000D01*
X84325358Y-89662000D01*
X84477714Y-89814622D01*
X84874332Y-89979313D01*
X85303784Y-89979687D01*
X85700689Y-89815689D01*
X86004622Y-89512286D01*
X86169313Y-89115668D01*
X86169687Y-88686216D01*
X86005689Y-88289311D01*
X85702286Y-87985378D01*
X85305668Y-87820687D01*
X84876216Y-87820313D01*
X84479311Y-87984311D01*
X84325353Y-88138000D01*
X82103630Y-88138000D01*
X81818815Y-87853185D01*
X81571605Y-87688004D01*
X81280000Y-87630000D01*
X77724000Y-87630000D01*
X77432395Y-87688004D01*
X77185184Y-87853185D01*
X74899185Y-90139185D01*
X74734004Y-90386395D01*
X74676000Y-90678000D01*
X74676000Y-91814607D01*
X74197359Y-91719400D01*
X74138641Y-91719400D01*
X73565152Y-91833474D01*
X73469687Y-91897261D01*
X73469687Y-87416216D01*
X73305689Y-87019311D01*
X73002286Y-86715378D01*
X72605668Y-86550687D01*
X72176216Y-86550313D01*
X71779311Y-86714311D01*
X71748568Y-86745000D01*
X70364856Y-86745000D01*
X70335286Y-86715378D01*
X69938668Y-86550687D01*
X69509216Y-86550313D01*
X69112311Y-86714311D01*
X68808378Y-87017714D01*
X68643687Y-87414332D01*
X68643313Y-87843784D01*
X68807311Y-88240689D01*
X69110714Y-88544622D01*
X69507332Y-88709313D01*
X69936784Y-88709687D01*
X70333689Y-88545689D01*
X70364431Y-88515000D01*
X71748143Y-88515000D01*
X71777714Y-88544622D01*
X72174332Y-88709313D01*
X72603784Y-88709687D01*
X73000689Y-88545689D01*
X73304622Y-88242286D01*
X73469313Y-87845668D01*
X73469687Y-87416216D01*
X73469687Y-91897261D01*
X73078971Y-92158330D01*
X72962260Y-92333000D01*
X72517000Y-92333000D01*
X72178325Y-92400367D01*
X71891210Y-92592210D01*
X71891207Y-92592213D01*
X71510210Y-92973210D01*
X71318367Y-93260325D01*
X71307189Y-93316515D01*
X71250999Y-93599000D01*
X71251000Y-93599005D01*
X71251000Y-96646994D01*
X71250999Y-96647000D01*
X71307189Y-96929484D01*
X71318367Y-96985675D01*
X71510210Y-97272790D01*
X72526207Y-98288786D01*
X72526210Y-98288790D01*
X72526211Y-98288790D01*
X72813325Y-98480633D01*
X72813326Y-98480633D01*
X72869515Y-98491810D01*
X73152000Y-98548001D01*
X73152000Y-98548000D01*
X73152005Y-98548000D01*
X80390994Y-98548000D01*
X80391000Y-98548001D01*
X80391000Y-98548000D01*
X80673484Y-98491810D01*
X80729674Y-98480633D01*
X80729675Y-98480633D01*
X81016790Y-98288790D01*
X81435019Y-97870560D01*
X81699332Y-97980313D01*
X82128784Y-97980687D01*
X82525689Y-97816689D01*
X82829622Y-97513286D01*
X82994313Y-97116668D01*
X82994687Y-96687216D01*
X82830689Y-96290311D01*
X82800000Y-96259568D01*
X82800000Y-93595000D01*
X85470994Y-93595000D01*
X85471000Y-93595001D01*
X85471000Y-93595000D01*
X85753484Y-93538810D01*
X85809674Y-93527633D01*
X85809675Y-93527633D01*
X86096790Y-93335790D01*
X87620786Y-91811792D01*
X87620789Y-91811790D01*
X87620790Y-91811790D01*
X87812633Y-91524675D01*
X87880000Y-91186000D01*
X87880000Y-91144132D01*
X89624132Y-89400000D01*
X90715868Y-89400000D01*
X91058149Y-89742281D01*
X90702311Y-89889311D01*
X90678223Y-89913356D01*
X90655286Y-89890378D01*
X90258668Y-89725687D01*
X89829216Y-89725313D01*
X89432311Y-89889311D01*
X89128378Y-90192714D01*
X88963687Y-90589332D01*
X88963313Y-91018784D01*
X89127311Y-91415689D01*
X89430714Y-91719622D01*
X89827332Y-91884313D01*
X90044872Y-91884502D01*
X90774184Y-92613815D01*
X90774185Y-92613815D01*
X91021395Y-92778996D01*
X91313000Y-92837000D01*
X91818353Y-92837000D01*
X91668378Y-92986714D01*
X91514348Y-93357656D01*
X91466689Y-93242311D01*
X91163286Y-92938378D01*
X90766668Y-92773687D01*
X90337216Y-92773313D01*
X89940311Y-92937311D01*
X89636378Y-93240714D01*
X89471687Y-93637332D01*
X89471313Y-94066784D01*
X89635311Y-94463689D01*
X89789000Y-94617646D01*
X89789000Y-98998370D01*
X89077067Y-99710302D01*
X89077066Y-99710303D01*
X88862395Y-99753004D01*
X88854065Y-99758569D01*
X88559216Y-99758313D01*
X88162311Y-99922311D01*
X88008353Y-100076000D01*
X87757000Y-100076000D01*
X87465395Y-100134004D01*
X87218185Y-100299185D01*
X84266370Y-103251000D01*
X71054630Y-103251000D01*
X67119499Y-99315869D01*
X67119687Y-99100216D01*
X66955689Y-98703311D01*
X66652286Y-98399378D01*
X66255668Y-98234687D01*
X65826216Y-98234313D01*
X65429311Y-98398311D01*
X65125378Y-98701714D01*
X65120380Y-98713750D01*
X64546815Y-98140185D01*
X64299605Y-97975004D01*
X64008000Y-97917000D01*
X59651747Y-97917000D01*
X59651747Y-91183528D01*
X59633174Y-90394060D01*
X59366790Y-89750952D01*
X59063601Y-89609484D01*
X58883996Y-89789089D01*
X58883996Y-89429879D01*
X58742528Y-89126690D01*
X58006048Y-88841733D01*
X57216580Y-88860306D01*
X56573472Y-89126690D01*
X56432004Y-89429879D01*
X57658000Y-90655875D01*
X58883996Y-89429879D01*
X58883996Y-89789089D01*
X57837605Y-90835480D01*
X59063601Y-92061476D01*
X59366790Y-91920008D01*
X59651747Y-91183528D01*
X59651747Y-97917000D01*
X58883996Y-97917000D01*
X58883996Y-92241081D01*
X57658000Y-91015085D01*
X57478395Y-91194690D01*
X57478395Y-90835480D01*
X56252399Y-89609484D01*
X55949210Y-89750952D01*
X55664253Y-90487432D01*
X55682826Y-91276900D01*
X55949210Y-91920008D01*
X56252399Y-92061476D01*
X57478395Y-90835480D01*
X57478395Y-91194690D01*
X56432004Y-92241081D01*
X56573472Y-92544270D01*
X57309952Y-92829227D01*
X58099420Y-92810654D01*
X58742528Y-92544270D01*
X58883996Y-92241081D01*
X58883996Y-97917000D01*
X52451000Y-97917000D01*
X52159395Y-97975004D01*
X51912185Y-98140185D01*
X50769185Y-99283185D01*
X50710000Y-99371761D01*
X50710000Y-80997630D01*
X59278185Y-89565816D01*
X59525395Y-89730996D01*
X59525396Y-89730997D01*
X59817000Y-89789000D01*
X64976603Y-89789000D01*
X64960687Y-89827332D01*
X64960649Y-89870771D01*
X61096210Y-93735210D01*
X60904367Y-94022325D01*
X60893189Y-94078515D01*
X60836999Y-94361000D01*
X60837000Y-94361005D01*
X60837000Y-95116143D01*
X60807378Y-95145714D01*
X60642687Y-95542332D01*
X60642313Y-95971784D01*
X60806311Y-96368689D01*
X61109714Y-96672622D01*
X61506332Y-96837313D01*
X61935784Y-96837687D01*
X62332689Y-96673689D01*
X62636622Y-96370286D01*
X62801313Y-95973668D01*
X62801687Y-95544216D01*
X62637689Y-95147311D01*
X62607000Y-95116568D01*
X62607000Y-94727579D01*
X66211928Y-91122650D01*
X66253784Y-91122687D01*
X66650689Y-90958689D01*
X66954622Y-90655286D01*
X67071407Y-90374037D01*
X69278500Y-92581131D01*
X69278313Y-92796784D01*
X69442311Y-93193689D01*
X69745714Y-93497622D01*
X70142332Y-93662313D01*
X70571784Y-93662687D01*
X70968689Y-93498689D01*
X71272622Y-93195286D01*
X71437313Y-92798668D01*
X71437687Y-92369216D01*
X71273689Y-91972311D01*
X70970286Y-91668378D01*
X70573668Y-91503687D01*
X70356128Y-91503497D01*
X67340815Y-88488185D01*
X67093605Y-88323004D01*
X66802000Y-88265000D01*
X63754242Y-88265000D01*
X63754242Y-85829339D01*
X63542010Y-85315697D01*
X63149370Y-84922371D01*
X62941487Y-84836050D01*
X63147303Y-84751010D01*
X63540629Y-84358370D01*
X63753757Y-83845100D01*
X63754242Y-83289339D01*
X63542010Y-82775697D01*
X63149370Y-82382371D01*
X62636100Y-82169243D01*
X62080339Y-82168758D01*
X61566697Y-82380990D01*
X61357489Y-82589832D01*
X61150390Y-82382371D01*
X60637120Y-82169243D01*
X60081359Y-82168758D01*
X59651747Y-82346269D01*
X59651747Y-79184568D01*
X59633174Y-78395100D01*
X59366790Y-77751992D01*
X59063601Y-77610524D01*
X58883996Y-77790129D01*
X58883996Y-77430919D01*
X58742528Y-77127730D01*
X58006048Y-76842773D01*
X57216580Y-76861346D01*
X56573472Y-77127730D01*
X56432004Y-77430919D01*
X57658000Y-78656915D01*
X58883996Y-77430919D01*
X58883996Y-77790129D01*
X57837605Y-78836520D01*
X59063601Y-80062516D01*
X59366790Y-79921048D01*
X59651747Y-79184568D01*
X59651747Y-82346269D01*
X59567717Y-82380990D01*
X59174391Y-82773630D01*
X58961263Y-83286900D01*
X58960778Y-83842661D01*
X59173010Y-84356303D01*
X59565650Y-84749629D01*
X59757747Y-84829394D01*
X59626877Y-84883603D01*
X59557412Y-85125787D01*
X60358020Y-85926395D01*
X61158628Y-85125787D01*
X61089163Y-84883603D01*
X60948702Y-84833491D01*
X61148323Y-84751010D01*
X61357530Y-84542167D01*
X61564630Y-84749629D01*
X61772512Y-84835949D01*
X61566697Y-84920990D01*
X61173371Y-85313630D01*
X61062153Y-85581471D01*
X60537625Y-86106000D01*
X61062189Y-86630564D01*
X61171990Y-86896303D01*
X61564630Y-87289629D01*
X62077900Y-87502757D01*
X62633661Y-87503242D01*
X63147303Y-87291010D01*
X63540629Y-86898370D01*
X63753757Y-86385100D01*
X63754242Y-85829339D01*
X63754242Y-88265000D01*
X61158628Y-88265000D01*
X61158628Y-87086213D01*
X60358020Y-86285605D01*
X60178415Y-86465210D01*
X60178415Y-86106000D01*
X59377807Y-85305392D01*
X59135623Y-85374857D01*
X58948876Y-85898302D01*
X58976658Y-86453368D01*
X59135623Y-86837143D01*
X59377807Y-86906608D01*
X60178415Y-86106000D01*
X60178415Y-86465210D01*
X59557412Y-87086213D01*
X59626877Y-87328397D01*
X60150322Y-87515144D01*
X60705388Y-87487362D01*
X61089163Y-87328397D01*
X61158628Y-87086213D01*
X61158628Y-88265000D01*
X60132630Y-88265000D01*
X58883996Y-87016365D01*
X58883996Y-80242121D01*
X57658000Y-79016125D01*
X57478395Y-79195730D01*
X57478395Y-78836520D01*
X56252399Y-77610524D01*
X55949210Y-77751992D01*
X55664253Y-78488472D01*
X55682826Y-79277940D01*
X55949210Y-79921048D01*
X56252399Y-80062516D01*
X57478395Y-78836520D01*
X57478395Y-79195730D01*
X56432004Y-80242121D01*
X56573472Y-80545310D01*
X57309952Y-80830267D01*
X58099420Y-80811694D01*
X58742528Y-80545310D01*
X58883996Y-80242121D01*
X58883996Y-87016365D01*
X51689000Y-79821369D01*
X51689000Y-63180630D01*
X53421253Y-61448376D01*
X53725405Y-61574672D01*
X54475305Y-61575326D01*
X55168372Y-61288957D01*
X55699093Y-60759161D01*
X55986672Y-60066595D01*
X55987326Y-59316695D01*
X55700957Y-58623628D01*
X55171161Y-58092907D01*
X54478595Y-57805328D01*
X53728695Y-57804674D01*
X53035628Y-58091043D01*
X52504907Y-58620839D01*
X52217328Y-59313405D01*
X52216674Y-60063305D01*
X52343681Y-60370688D01*
X50710000Y-62004370D01*
X50710000Y-55143432D01*
X51221847Y-55656174D01*
X52373674Y-56134454D01*
X53620854Y-56135543D01*
X54773515Y-55659273D01*
X55656174Y-54778153D01*
X56134454Y-53626326D01*
X56135543Y-52379146D01*
X55659273Y-51226485D01*
X55143688Y-50710000D01*
X83955868Y-50710000D01*
X82255434Y-52410434D01*
X82255335Y-52410581D01*
X82133057Y-52461106D01*
X81672722Y-52920637D01*
X81423284Y-53521352D01*
X81422716Y-54171795D01*
X81671106Y-54772943D01*
X82130637Y-55233278D01*
X82731352Y-55482716D01*
X83381795Y-55483284D01*
X83982943Y-55234894D01*
X84443278Y-54775363D01*
X84692716Y-54174648D01*
X84693284Y-53524205D01*
X84593477Y-53282654D01*
X85560132Y-52316000D01*
X87194239Y-52316000D01*
X86843057Y-52461106D01*
X86382722Y-52920637D01*
X86133284Y-53521352D01*
X86132716Y-54171795D01*
X86381106Y-54772943D01*
X86840637Y-55233278D01*
X87441352Y-55482716D01*
X88091795Y-55483284D01*
X88692943Y-55234894D01*
X89153278Y-54775363D01*
X89402716Y-54174648D01*
X89403284Y-53524205D01*
X89154894Y-52923057D01*
X88695363Y-52462722D01*
X88342016Y-52316000D01*
X90694239Y-52316000D01*
X90343057Y-52461106D01*
X89882722Y-52920637D01*
X89633284Y-53521352D01*
X89632716Y-54171795D01*
X89881106Y-54772943D01*
X90340637Y-55233278D01*
X90941352Y-55482716D01*
X91591795Y-55483284D01*
X92192943Y-55234894D01*
X92653278Y-54775363D01*
X92902716Y-54174648D01*
X92903284Y-53524205D01*
X92654894Y-52923057D01*
X92195363Y-52462722D01*
X91842016Y-52316000D01*
X94194239Y-52316000D01*
X93843057Y-52461106D01*
X93382722Y-52920637D01*
X93133284Y-53521352D01*
X93132716Y-54171795D01*
X93381106Y-54772943D01*
X93840637Y-55233278D01*
X94441352Y-55482716D01*
X95091795Y-55483284D01*
X95692943Y-55234894D01*
X96153278Y-54775363D01*
X96402716Y-54174648D01*
X96403284Y-53524205D01*
X96154894Y-52923057D01*
X95695363Y-52462722D01*
X95342016Y-52316000D01*
X97694239Y-52316000D01*
X97343057Y-52461106D01*
X96882722Y-52920637D01*
X96633284Y-53521352D01*
X96632716Y-54171795D01*
X96881106Y-54772943D01*
X97340637Y-55233278D01*
X97941352Y-55482716D01*
X98591795Y-55483284D01*
X99192943Y-55234894D01*
X99653278Y-54775363D01*
X99902716Y-54174648D01*
X99903284Y-53524205D01*
X99654894Y-52923057D01*
X99195363Y-52462722D01*
X98842016Y-52316000D01*
X101194239Y-52316000D01*
X100843057Y-52461106D01*
X100382722Y-52920637D01*
X100133284Y-53521352D01*
X100132716Y-54171795D01*
X100381106Y-54772943D01*
X100840637Y-55233278D01*
X101441352Y-55482716D01*
X102091795Y-55483284D01*
X102692943Y-55234894D01*
X103153278Y-54775363D01*
X103402716Y-54174648D01*
X103403284Y-53524205D01*
X103154894Y-52923057D01*
X102695363Y-52462722D01*
X102342016Y-52316000D01*
X104694239Y-52316000D01*
X104343057Y-52461106D01*
X103882722Y-52920637D01*
X103633284Y-53521352D01*
X103632716Y-54171795D01*
X103881106Y-54772943D01*
X104340637Y-55233278D01*
X104941352Y-55482716D01*
X105591795Y-55483284D01*
X106192943Y-55234894D01*
X106653278Y-54775363D01*
X106902716Y-54174648D01*
X106903284Y-53524205D01*
X106654894Y-52923057D01*
X106195363Y-52462722D01*
X105842016Y-52316000D01*
X108194239Y-52316000D01*
X107843057Y-52461106D01*
X107382722Y-52920637D01*
X107133284Y-53521352D01*
X107132716Y-54171795D01*
X107381106Y-54772943D01*
X107840637Y-55233278D01*
X108441352Y-55482716D01*
X109091795Y-55483284D01*
X109692943Y-55234894D01*
X110153278Y-54775363D01*
X110402716Y-54174648D01*
X110403227Y-53588360D01*
X110633024Y-53818157D01*
X110632716Y-54171795D01*
X110881106Y-54772943D01*
X111340637Y-55233278D01*
X111941352Y-55482716D01*
X112591795Y-55483284D01*
X113192943Y-55234894D01*
X113653278Y-54775363D01*
X113902716Y-54174648D01*
X113903027Y-53818104D01*
X115278132Y-52443000D01*
X116096876Y-52443000D01*
X116053057Y-52461106D01*
X115592722Y-52920637D01*
X115343284Y-53521352D01*
X115342716Y-54171795D01*
X115591106Y-54772943D01*
X116050637Y-55233278D01*
X116651352Y-55482716D01*
X117301795Y-55483284D01*
X117902943Y-55234894D01*
X118363278Y-54775363D01*
X118612716Y-54174648D01*
X118613284Y-53524205D01*
X118364894Y-52923057D01*
X117905363Y-52462722D01*
X117857867Y-52443000D01*
X119596876Y-52443000D01*
X119553057Y-52461106D01*
X119092722Y-52920637D01*
X118843284Y-53521352D01*
X118842716Y-54171795D01*
X119091106Y-54772943D01*
X119550637Y-55233278D01*
X119716000Y-55301942D01*
X119716000Y-62693000D01*
X119774004Y-62984605D01*
X119824550Y-63060252D01*
X119824313Y-63332784D01*
X119988311Y-63729689D01*
X120291714Y-64033622D01*
X120688332Y-64198313D01*
X121117784Y-64198687D01*
X121158000Y-64182070D01*
X121158000Y-64259358D01*
X121005378Y-64411714D01*
X120840687Y-64808332D01*
X120840313Y-65237784D01*
X121004311Y-65634689D01*
X121307714Y-65938622D01*
X121704332Y-66103313D01*
X122133784Y-66103687D01*
X122530689Y-65939689D01*
X122834622Y-65636286D01*
X122999313Y-65239668D01*
X122999687Y-64810216D01*
X122835689Y-64413311D01*
X122682000Y-64259353D01*
X122682000Y-57084630D01*
X124283362Y-55483267D01*
X124301795Y-55483284D01*
X124902943Y-55234894D01*
X125363278Y-54775363D01*
X125612716Y-54174648D01*
X125613284Y-53524205D01*
X125364894Y-52923057D01*
X124905363Y-52462722D01*
X124857867Y-52443000D01*
X126596876Y-52443000D01*
X126553057Y-52461106D01*
X126092722Y-52920637D01*
X125843284Y-53521352D01*
X125842716Y-54171795D01*
X126091106Y-54772943D01*
X126550637Y-55233278D01*
X127151352Y-55482716D01*
X127801795Y-55483284D01*
X128402943Y-55234894D01*
X128863278Y-54775363D01*
X129112716Y-54174648D01*
X129113284Y-53524205D01*
X128864894Y-52923057D01*
X128405363Y-52462722D01*
X128357867Y-52443000D01*
X130096876Y-52443000D01*
X130053057Y-52461106D01*
X129592722Y-52920637D01*
X129343284Y-53521352D01*
X129342716Y-54171795D01*
X129591106Y-54772943D01*
X130050637Y-55233278D01*
X130651352Y-55482716D01*
X131301795Y-55483284D01*
X131902943Y-55234894D01*
X132363278Y-54775363D01*
X132612716Y-54174648D01*
X132613284Y-53524205D01*
X132364894Y-52923057D01*
X131905363Y-52462722D01*
X131857867Y-52443000D01*
X133596876Y-52443000D01*
X133553057Y-52461106D01*
X133092722Y-52920637D01*
X132843284Y-53521352D01*
X132842716Y-54171795D01*
X133091106Y-54772943D01*
X133550637Y-55233278D01*
X134151352Y-55482716D01*
X134801795Y-55483284D01*
X135402943Y-55234894D01*
X135863278Y-54775363D01*
X136112716Y-54174648D01*
X136113284Y-53524205D01*
X135864894Y-52923057D01*
X135405363Y-52462722D01*
X135357867Y-52443000D01*
X137096876Y-52443000D01*
X137053057Y-52461106D01*
X136592722Y-52920637D01*
X136343284Y-53521352D01*
X136342716Y-54171795D01*
X136591106Y-54772943D01*
X137050637Y-55233278D01*
X137651352Y-55482716D01*
X138301795Y-55483284D01*
X138902943Y-55234894D01*
X139363278Y-54775363D01*
X139612716Y-54174648D01*
X139613227Y-53588360D01*
X139843024Y-53818157D01*
X139842716Y-54171795D01*
X140091106Y-54772943D01*
X140550637Y-55233278D01*
X141151352Y-55482716D01*
X141801795Y-55483284D01*
X142402943Y-55234894D01*
X142863278Y-54775363D01*
X143112716Y-54174648D01*
X143113284Y-53524205D01*
X142864894Y-52923057D01*
X142405363Y-52462722D01*
X141804648Y-52213284D01*
X141448105Y-52212972D01*
X139945132Y-50710000D01*
X144856567Y-50710000D01*
X144343826Y-51221847D01*
X143865546Y-52373674D01*
X143864457Y-53620854D01*
X144340727Y-54773515D01*
X145221847Y-55656174D01*
X146373674Y-56134454D01*
X147620854Y-56135543D01*
X148773515Y-55659273D01*
X149290000Y-55143688D01*
X149290000Y-104856567D01*
X149290000Y-104856567D01*
G37*
X149290000Y-104856567D02*
X148778153Y-104343826D01*
X147685284Y-103890027D01*
X147685284Y-82988205D01*
X147685284Y-79488205D01*
X147685284Y-75988205D01*
X147685284Y-72488205D01*
X147685284Y-68988205D01*
X147685284Y-65488205D01*
X147685284Y-61988205D01*
X147685284Y-58488205D01*
X147436894Y-57887057D01*
X146977363Y-57426722D01*
X146376648Y-57177284D01*
X145726205Y-57176716D01*
X145125057Y-57425106D01*
X144664722Y-57884637D01*
X144415284Y-58485352D01*
X144414716Y-59135795D01*
X144663106Y-59736943D01*
X145122637Y-60197278D01*
X145723352Y-60446716D01*
X146373795Y-60447284D01*
X146974943Y-60198894D01*
X147435278Y-59739363D01*
X147684716Y-59138648D01*
X147685284Y-58488205D01*
X147685284Y-61988205D01*
X147436894Y-61387057D01*
X146977363Y-60926722D01*
X146376648Y-60677284D01*
X145726205Y-60676716D01*
X145125057Y-60925106D01*
X144664722Y-61384637D01*
X144415284Y-61985352D01*
X144414716Y-62635795D01*
X144663106Y-63236943D01*
X145122637Y-63697278D01*
X145723352Y-63946716D01*
X146373795Y-63947284D01*
X146974943Y-63698894D01*
X147435278Y-63239363D01*
X147684716Y-62638648D01*
X147685284Y-61988205D01*
X147685284Y-65488205D01*
X147436894Y-64887057D01*
X146977363Y-64426722D01*
X146376648Y-64177284D01*
X145726205Y-64176716D01*
X145125057Y-64425106D01*
X144664722Y-64884637D01*
X144415284Y-65485352D01*
X144414716Y-66135795D01*
X144663106Y-66736943D01*
X145122637Y-67197278D01*
X145723352Y-67446716D01*
X146373795Y-67447284D01*
X146974943Y-67198894D01*
X147435278Y-66739363D01*
X147684716Y-66138648D01*
X147685284Y-65488205D01*
X147685284Y-68988205D01*
X147436894Y-68387057D01*
X146977363Y-67926722D01*
X146376648Y-67677284D01*
X145726205Y-67676716D01*
X145125057Y-67925106D01*
X144664722Y-68384637D01*
X144415284Y-68985352D01*
X144414716Y-69635795D01*
X144663106Y-70236943D01*
X145122637Y-70697278D01*
X145723352Y-70946716D01*
X146373795Y-70947284D01*
X146974943Y-70698894D01*
X147435278Y-70239363D01*
X147684716Y-69638648D01*
X147685284Y-68988205D01*
X147685284Y-72488205D01*
X147436894Y-71887057D01*
X146977363Y-71426722D01*
X146376648Y-71177284D01*
X145726205Y-71176716D01*
X145125057Y-71425106D01*
X144664722Y-71884637D01*
X144415284Y-72485352D01*
X144414716Y-73135795D01*
X144663106Y-73736943D01*
X145122637Y-74197278D01*
X145723352Y-74446716D01*
X146373795Y-74447284D01*
X146974943Y-74198894D01*
X147435278Y-73739363D01*
X147684716Y-73138648D01*
X147685284Y-72488205D01*
X147685284Y-75988205D01*
X147436894Y-75387057D01*
X146977363Y-74926722D01*
X146376648Y-74677284D01*
X145726205Y-74676716D01*
X145125057Y-74925106D01*
X144664722Y-75384637D01*
X144415284Y-75985352D01*
X144414716Y-76635795D01*
X144663106Y-77236943D01*
X145122637Y-77697278D01*
X145723352Y-77946716D01*
X146373795Y-77947284D01*
X146974943Y-77698894D01*
X147435278Y-77239363D01*
X147684716Y-76638648D01*
X147685284Y-75988205D01*
X147685284Y-79488205D01*
X147436894Y-78887057D01*
X146977363Y-78426722D01*
X146376648Y-78177284D01*
X145726205Y-78176716D01*
X145125057Y-78425106D01*
X144664722Y-78884637D01*
X144415284Y-79485352D01*
X144414716Y-80135795D01*
X144663106Y-80736943D01*
X145122637Y-81197278D01*
X145723352Y-81446716D01*
X146373795Y-81447284D01*
X146974943Y-81198894D01*
X147435278Y-80739363D01*
X147684716Y-80138648D01*
X147685284Y-79488205D01*
X147685284Y-82988205D01*
X147436894Y-82387057D01*
X146977363Y-81926722D01*
X146376648Y-81677284D01*
X145726205Y-81676716D01*
X145125057Y-81925106D01*
X144664722Y-82384637D01*
X144415284Y-82985352D01*
X144414716Y-83635795D01*
X144663106Y-84236943D01*
X145122637Y-84697278D01*
X145723352Y-84946716D01*
X146373795Y-84947284D01*
X146974943Y-84698894D01*
X147435278Y-84239363D01*
X147684716Y-83638648D01*
X147685284Y-82988205D01*
X147685284Y-103890027D01*
X147626326Y-103865546D01*
X146379146Y-103864457D01*
X145226485Y-104340727D01*
X144343826Y-105221847D01*
X143865546Y-106373674D01*
X143864457Y-107620854D01*
X144340727Y-108773515D01*
X144856311Y-109290000D01*
X140906687Y-109290000D01*
X140906687Y-100497216D01*
X140742689Y-100100311D01*
X140439286Y-99796378D01*
X140042668Y-99631687D01*
X139613216Y-99631313D01*
X139319242Y-99752780D01*
X139319242Y-85321339D01*
X139107010Y-84807697D01*
X138714370Y-84414371D01*
X138201100Y-84201243D01*
X137645339Y-84200758D01*
X137131697Y-84412990D01*
X136921978Y-84622342D01*
X136714370Y-84414371D01*
X136201100Y-84201243D01*
X135645339Y-84200758D01*
X135131697Y-84412990D01*
X134921978Y-84622342D01*
X134714370Y-84414371D01*
X134201100Y-84201243D01*
X133645339Y-84200758D01*
X133131697Y-84412990D01*
X132921978Y-84622342D01*
X132714370Y-84414371D01*
X132201100Y-84201243D01*
X131645339Y-84200758D01*
X131131697Y-84412990D01*
X130921978Y-84622342D01*
X130714370Y-84414371D01*
X130201100Y-84201243D01*
X129645339Y-84200758D01*
X129131697Y-84412990D01*
X128921978Y-84622342D01*
X128714370Y-84414371D01*
X128201100Y-84201243D01*
X127645339Y-84200758D01*
X127131697Y-84412990D01*
X126921978Y-84622342D01*
X126714370Y-84414371D01*
X126201100Y-84201243D01*
X125645339Y-84200758D01*
X125131697Y-84412990D01*
X124921978Y-84622342D01*
X124714370Y-84414371D01*
X124201100Y-84201243D01*
X123645339Y-84200758D01*
X123131697Y-84412990D01*
X122921978Y-84622342D01*
X122714370Y-84414371D01*
X122201100Y-84201243D01*
X121741927Y-84200842D01*
X121741927Y-82742520D01*
X121713148Y-82212801D01*
X121565800Y-81857071D01*
X121330188Y-81795417D01*
X121150583Y-81975022D01*
X121150583Y-81615812D01*
X121088929Y-81380200D01*
X120588520Y-81204073D01*
X120058801Y-81232852D01*
X119703071Y-81380200D01*
X119641417Y-81615812D01*
X120396000Y-82370395D01*
X121150583Y-81615812D01*
X121150583Y-81975022D01*
X120575605Y-82550000D01*
X121330188Y-83304583D01*
X121565800Y-83242929D01*
X121741927Y-82742520D01*
X121741927Y-84200842D01*
X121645339Y-84200758D01*
X121150583Y-84405186D01*
X121150583Y-83484188D01*
X120396000Y-82729605D01*
X120216395Y-82909210D01*
X120216395Y-82550000D01*
X119461812Y-81795417D01*
X119226200Y-81857071D01*
X119050073Y-82357480D01*
X119078852Y-82887199D01*
X119226200Y-83242929D01*
X119461812Y-83304583D01*
X120216395Y-82550000D01*
X120216395Y-82909210D01*
X119641417Y-83484188D01*
X119703071Y-83719800D01*
X120203480Y-83895927D01*
X120733199Y-83867148D01*
X121088929Y-83719800D01*
X121150583Y-83484188D01*
X121150583Y-84405186D01*
X121131697Y-84412990D01*
X120738371Y-84805630D01*
X120722608Y-84843591D01*
X120722608Y-84617787D01*
X120653143Y-84375603D01*
X120129698Y-84188856D01*
X119574632Y-84216638D01*
X119190857Y-84375603D01*
X119121392Y-84617787D01*
X119922000Y-85418395D01*
X120722608Y-84617787D01*
X120722608Y-84843591D01*
X120627878Y-85071726D01*
X120101605Y-85598000D01*
X120627907Y-86124302D01*
X120736990Y-86388303D01*
X121129630Y-86781629D01*
X121642900Y-86994757D01*
X122198661Y-86995242D01*
X122712303Y-86783010D01*
X122922021Y-86573657D01*
X123129630Y-86781629D01*
X123642900Y-86994757D01*
X124198661Y-86995242D01*
X124712303Y-86783010D01*
X124922021Y-86573657D01*
X125129630Y-86781629D01*
X125642900Y-86994757D01*
X126198661Y-86995242D01*
X126712303Y-86783010D01*
X126922021Y-86573657D01*
X127129630Y-86781629D01*
X127642900Y-86994757D01*
X128198661Y-86995242D01*
X128712303Y-86783010D01*
X128922021Y-86573657D01*
X129129630Y-86781629D01*
X129642900Y-86994757D01*
X130198661Y-86995242D01*
X130712303Y-86783010D01*
X130922021Y-86573657D01*
X131129630Y-86781629D01*
X131642900Y-86994757D01*
X132198661Y-86995242D01*
X132712303Y-86783010D01*
X132922021Y-86573657D01*
X133129630Y-86781629D01*
X133642900Y-86994757D01*
X134198661Y-86995242D01*
X134712303Y-86783010D01*
X134922021Y-86573657D01*
X135014285Y-86666083D01*
X133224868Y-88455500D01*
X133009216Y-88455313D01*
X132612311Y-88619311D01*
X132308378Y-88922714D01*
X132143687Y-89319332D01*
X132143313Y-89748784D01*
X132307311Y-90145689D01*
X132610714Y-90449622D01*
X133007332Y-90614313D01*
X133436784Y-90614687D01*
X133833689Y-90450689D01*
X134137622Y-90147286D01*
X134302313Y-89750668D01*
X134302502Y-89533127D01*
X136460815Y-87374816D01*
X136460815Y-87374815D01*
X136625996Y-87127605D01*
X136683999Y-86836000D01*
X136684000Y-86836000D01*
X136684000Y-86794704D01*
X136712303Y-86783010D01*
X136787000Y-86708443D01*
X136787000Y-93890868D01*
X135722434Y-94955434D01*
X135476397Y-95323655D01*
X135390000Y-95758000D01*
X135476397Y-96192345D01*
X135722434Y-96560566D01*
X136090655Y-96806603D01*
X136525000Y-96893000D01*
X136959345Y-96806603D01*
X137327566Y-96560566D01*
X138724566Y-95163566D01*
X138970603Y-94795346D01*
X139056999Y-94361000D01*
X139057000Y-94361000D01*
X139057000Y-86438914D01*
X139105629Y-86390370D01*
X139318757Y-85877100D01*
X139319242Y-85321339D01*
X139319242Y-99752780D01*
X139216311Y-99795311D01*
X138912378Y-100098714D01*
X138747687Y-100495332D01*
X138747497Y-100712872D01*
X137383185Y-102077185D01*
X137218004Y-102324395D01*
X137160000Y-102616000D01*
X137160000Y-106401295D01*
X137131697Y-106412990D01*
X136921978Y-106622342D01*
X136714370Y-106414371D01*
X136201100Y-106201243D01*
X135645339Y-106200758D01*
X135131697Y-106412990D01*
X134921978Y-106622342D01*
X134714370Y-106414371D01*
X134201100Y-106201243D01*
X133645339Y-106200758D01*
X133131697Y-106412990D01*
X132921978Y-106622342D01*
X132714370Y-106414371D01*
X132201100Y-106201243D01*
X131645339Y-106200758D01*
X131131697Y-106412990D01*
X130921978Y-106622342D01*
X130714370Y-106414371D01*
X130201100Y-106201243D01*
X129645339Y-106200758D01*
X129131697Y-106412990D01*
X128921978Y-106622342D01*
X128714370Y-106414371D01*
X128201100Y-106201243D01*
X127645339Y-106200758D01*
X127131697Y-106412990D01*
X126921978Y-106622342D01*
X126714370Y-106414371D01*
X126201100Y-106201243D01*
X125645339Y-106200758D01*
X125131697Y-106412990D01*
X124921978Y-106622342D01*
X124714370Y-106414371D01*
X124201100Y-106201243D01*
X123645339Y-106200758D01*
X123131697Y-106412990D01*
X122921978Y-106622342D01*
X122714370Y-106414371D01*
X122201100Y-106201243D01*
X121645339Y-106200758D01*
X121131697Y-106412990D01*
X120921978Y-106622342D01*
X120714370Y-106414371D01*
X120201100Y-106201243D01*
X119645339Y-106200758D01*
X119131697Y-106412990D01*
X118738371Y-106805630D01*
X118525243Y-107318900D01*
X118524758Y-107874661D01*
X118736990Y-108388303D01*
X119129630Y-108781629D01*
X119642900Y-108994757D01*
X120198661Y-108995242D01*
X120712303Y-108783010D01*
X120922021Y-108573657D01*
X121129630Y-108781629D01*
X121642900Y-108994757D01*
X122198661Y-108995242D01*
X122712303Y-108783010D01*
X122922021Y-108573657D01*
X123129630Y-108781629D01*
X123642900Y-108994757D01*
X124198661Y-108995242D01*
X124712303Y-108783010D01*
X124922021Y-108573657D01*
X125129630Y-108781629D01*
X125642900Y-108994757D01*
X126198661Y-108995242D01*
X126712303Y-108783010D01*
X126922021Y-108573657D01*
X127129630Y-108781629D01*
X127642900Y-108994757D01*
X128198661Y-108995242D01*
X128712303Y-108783010D01*
X128922021Y-108573657D01*
X129129630Y-108781629D01*
X129642900Y-108994757D01*
X130198661Y-108995242D01*
X130712303Y-108783010D01*
X130922021Y-108573657D01*
X131129630Y-108781629D01*
X131642900Y-108994757D01*
X132198661Y-108995242D01*
X132712303Y-108783010D01*
X132922021Y-108573657D01*
X133129630Y-108781629D01*
X133642900Y-108994757D01*
X134198661Y-108995242D01*
X134712303Y-108783010D01*
X134922021Y-108573657D01*
X135129630Y-108781629D01*
X135642900Y-108994757D01*
X136198661Y-108995242D01*
X136712303Y-108783010D01*
X136922021Y-108573657D01*
X137129630Y-108781629D01*
X137642900Y-108994757D01*
X138198661Y-108995242D01*
X138712303Y-108783010D01*
X139105629Y-108390370D01*
X139318757Y-107877100D01*
X139319242Y-107321339D01*
X139107010Y-106807697D01*
X138714370Y-106414371D01*
X138684000Y-106401760D01*
X138684000Y-102931630D01*
X139825130Y-101790499D01*
X140040784Y-101790687D01*
X140437689Y-101626689D01*
X140741622Y-101323286D01*
X140906313Y-100926668D01*
X140906687Y-100497216D01*
X140906687Y-109290000D01*
X97357927Y-109290000D01*
X96766583Y-109290000D01*
X96766583Y-108630188D01*
X96012000Y-107875605D01*
X95832395Y-108055210D01*
X95257417Y-108630188D01*
X95319071Y-108865800D01*
X95819480Y-109041927D01*
X96349199Y-109013148D01*
X96704929Y-108865800D01*
X96766583Y-108630188D01*
X96766583Y-109290000D01*
X89737927Y-109290000D01*
X89146583Y-109290000D01*
X89146583Y-108630188D01*
X88392000Y-107875605D01*
X88212395Y-108055210D01*
X87637417Y-108630188D01*
X87699071Y-108865800D01*
X88199480Y-109041927D01*
X88729199Y-109013148D01*
X89084929Y-108865800D01*
X89146583Y-108630188D01*
X89146583Y-109290000D01*
X55143432Y-109290000D01*
X55656174Y-108778153D01*
X56134454Y-107626326D01*
X56135543Y-106379146D01*
X55659273Y-105226485D01*
X54778153Y-104343826D01*
X53626326Y-103865546D01*
X52379146Y-103864457D01*
X51226485Y-104340727D01*
X50710000Y-104856311D01*
X50710000Y-101885554D01*
X51092332Y-102044313D01*
X51521784Y-102044687D01*
X51918689Y-101880689D01*
X52197219Y-101602644D01*
X52473714Y-101879622D01*
X52870332Y-102044313D01*
X53299784Y-102044687D01*
X53406052Y-102000777D01*
X53440311Y-102083689D01*
X53743714Y-102387622D01*
X54140332Y-102552313D01*
X54569784Y-102552687D01*
X54966689Y-102388689D01*
X55270622Y-102085286D01*
X55435313Y-101688668D01*
X55435687Y-101259216D01*
X55271689Y-100862311D01*
X55213555Y-100804075D01*
X55306630Y-100711000D01*
X55816609Y-100711000D01*
X55816313Y-101051784D01*
X55980311Y-101448689D01*
X56283714Y-101752622D01*
X56680332Y-101917313D01*
X57109784Y-101917687D01*
X57506689Y-101753689D01*
X57787868Y-101473000D01*
X62039388Y-101473000D01*
X62039313Y-101559784D01*
X62203311Y-101956689D01*
X62506714Y-102260622D01*
X62903332Y-102425313D01*
X63332784Y-102425687D01*
X63729689Y-102261689D01*
X64033622Y-101958286D01*
X64038619Y-101946249D01*
X68676185Y-106583816D01*
X68824376Y-106682834D01*
X68923395Y-106748996D01*
X68923396Y-106748996D01*
X69215000Y-106807000D01*
X87361717Y-106807000D01*
X87342555Y-106826163D01*
X87457809Y-106941417D01*
X87222200Y-107003071D01*
X87046073Y-107503480D01*
X87074852Y-108033199D01*
X87222200Y-108388929D01*
X87457812Y-108450583D01*
X88212395Y-107696000D01*
X88198252Y-107681857D01*
X88377857Y-107502252D01*
X88392000Y-107516395D01*
X88406142Y-107502252D01*
X88585747Y-107681857D01*
X88571605Y-107696000D01*
X89326188Y-108450583D01*
X89561800Y-108388929D01*
X89737927Y-107888520D01*
X89709148Y-107358801D01*
X89561800Y-107003071D01*
X89326190Y-106941417D01*
X89441445Y-106826163D01*
X89422282Y-106807000D01*
X94981718Y-106807000D01*
X94962555Y-106826163D01*
X95077809Y-106941417D01*
X94842200Y-107003071D01*
X94666073Y-107503480D01*
X94694852Y-108033199D01*
X94842200Y-108388929D01*
X95077812Y-108450583D01*
X95832395Y-107696000D01*
X95818252Y-107681857D01*
X95997857Y-107502252D01*
X96012000Y-107516395D01*
X96026142Y-107502252D01*
X96205747Y-107681857D01*
X96191605Y-107696000D01*
X96946188Y-108450583D01*
X97181800Y-108388929D01*
X97357927Y-107888520D01*
X97329148Y-107358801D01*
X97181800Y-107003071D01*
X96946190Y-106941417D01*
X97061445Y-106826163D01*
X97042282Y-106807000D01*
X108839000Y-106807000D01*
X108839000Y-106806999D01*
X109130604Y-106748996D01*
X109130605Y-106748996D01*
X109377815Y-106583815D01*
X110234131Y-105727499D01*
X110449784Y-105727687D01*
X110846689Y-105563689D01*
X111150622Y-105260286D01*
X111315313Y-104863668D01*
X111315687Y-104434216D01*
X111151689Y-104037311D01*
X110848286Y-103733378D01*
X110451668Y-103568687D01*
X110107242Y-103568387D01*
X110139815Y-103535815D01*
X110304996Y-103288605D01*
X110362999Y-102997000D01*
X110363000Y-102997000D01*
X110363000Y-102743000D01*
X110363000Y-102616000D01*
X110363000Y-98994630D01*
X112933815Y-96423815D01*
X112933816Y-96423815D01*
X113032834Y-96275623D01*
X113098996Y-96176605D01*
X113098996Y-96176604D01*
X113157000Y-95885000D01*
X113157000Y-92964000D01*
X113157000Y-92898630D01*
X115250630Y-90805000D01*
X115840611Y-90805000D01*
X115791397Y-90878654D01*
X115705000Y-91313000D01*
X115791397Y-91747346D01*
X116037434Y-92115566D01*
X116405654Y-92361603D01*
X116840000Y-92448000D01*
X129159000Y-92448000D01*
X129593345Y-92361603D01*
X129593346Y-92361603D01*
X129961566Y-92115566D01*
X130850566Y-91226566D01*
X131096603Y-90858345D01*
X131183000Y-90424000D01*
X131096603Y-89989655D01*
X130850566Y-89621434D01*
X130482345Y-89375397D01*
X130048000Y-89289000D01*
X129613655Y-89375397D01*
X129245434Y-89621434D01*
X128688868Y-90178000D01*
X120722608Y-90178000D01*
X120722608Y-86578213D01*
X119922000Y-85777605D01*
X119742395Y-85957210D01*
X119742395Y-85598000D01*
X118941787Y-84797392D01*
X118699603Y-84866857D01*
X118512856Y-85390302D01*
X118540638Y-85945368D01*
X118699603Y-86329143D01*
X118941787Y-86398608D01*
X119742395Y-85598000D01*
X119742395Y-85957210D01*
X119121392Y-86578213D01*
X119190857Y-86820397D01*
X119714302Y-87007144D01*
X120269368Y-86979362D01*
X120653143Y-86820397D01*
X120722608Y-86578213D01*
X120722608Y-90178000D01*
X118554383Y-90178000D01*
X118554687Y-89829216D01*
X118390689Y-89432311D01*
X118087286Y-89128378D01*
X117690668Y-88963687D01*
X117261216Y-88963313D01*
X116864311Y-89127311D01*
X116710353Y-89281000D01*
X115945660Y-89281000D01*
X116014313Y-89115668D01*
X116014687Y-88686216D01*
X115850689Y-88289311D01*
X115547286Y-87985378D01*
X115150668Y-87820687D01*
X114933127Y-87820497D01*
X114838815Y-87726185D01*
X114591605Y-87561004D01*
X114300000Y-87503000D01*
X114121927Y-87503000D01*
X114121927Y-82742520D01*
X114093148Y-82212801D01*
X113945800Y-81857071D01*
X113710188Y-81795417D01*
X113530583Y-81975022D01*
X113530583Y-81615812D01*
X113468929Y-81380200D01*
X112968520Y-81204073D01*
X112438801Y-81232852D01*
X112083071Y-81380200D01*
X112021417Y-81615812D01*
X112776000Y-82370395D01*
X113530583Y-81615812D01*
X113530583Y-81975022D01*
X112955605Y-82550000D01*
X113710188Y-83304583D01*
X113945800Y-83242929D01*
X114121927Y-82742520D01*
X114121927Y-87503000D01*
X113530583Y-87503000D01*
X113530583Y-83484188D01*
X112776000Y-82729605D01*
X112596395Y-82909210D01*
X112596395Y-82550000D01*
X111841812Y-81795417D01*
X111606200Y-81857071D01*
X111430073Y-82357480D01*
X111458852Y-82887199D01*
X111606200Y-83242929D01*
X111841812Y-83304583D01*
X112596395Y-82550000D01*
X112596395Y-82909210D01*
X112021417Y-83484188D01*
X112083071Y-83719800D01*
X112583480Y-83895927D01*
X113113199Y-83867148D01*
X113468929Y-83719800D01*
X113530583Y-83484188D01*
X113530583Y-87503000D01*
X110998000Y-87503000D01*
X110706395Y-87561004D01*
X110459185Y-87726185D01*
X107157185Y-91028185D01*
X106992004Y-91275395D01*
X106934000Y-91567000D01*
X106934000Y-101157370D01*
X104205369Y-103886000D01*
X96430327Y-103886000D01*
X96766380Y-103747146D01*
X97141827Y-103372353D01*
X97345268Y-102882413D01*
X97345731Y-102351914D01*
X97143146Y-101861620D01*
X96768353Y-101486173D01*
X96278413Y-101282732D01*
X95747914Y-101282269D01*
X95257620Y-101484854D01*
X94882173Y-101859647D01*
X94678732Y-102349587D01*
X94678269Y-102880086D01*
X94880854Y-103370380D01*
X95255647Y-103745827D01*
X95593220Y-103886000D01*
X90424000Y-103886000D01*
X90424000Y-101407630D01*
X91724815Y-100106816D01*
X91724815Y-100106815D01*
X91889996Y-99859605D01*
X91947999Y-99568000D01*
X91948000Y-99568000D01*
X91948000Y-95311630D01*
X92581131Y-94678499D01*
X92796784Y-94678687D01*
X93193689Y-94514689D01*
X93497622Y-94211286D01*
X93662313Y-93814668D01*
X93662687Y-93385216D01*
X93498689Y-92988311D01*
X93347641Y-92837000D01*
X93537369Y-92837000D01*
X99822000Y-99121630D01*
X99822000Y-100838000D01*
X99880004Y-101129605D01*
X100045185Y-101376815D01*
X100807185Y-102138816D01*
X100955376Y-102237834D01*
X101054395Y-102303996D01*
X101054396Y-102303996D01*
X101117400Y-102316528D01*
X101117400Y-102843909D01*
X101214073Y-103077298D01*
X101392701Y-103255927D01*
X101626090Y-103352600D01*
X101878709Y-103352600D01*
X104113909Y-103352600D01*
X104347298Y-103255927D01*
X104525927Y-103077299D01*
X104622600Y-102843910D01*
X104622600Y-102591291D01*
X104622600Y-100356091D01*
X104611792Y-100330000D01*
X104622600Y-100303910D01*
X104622600Y-100051291D01*
X104622600Y-97816091D01*
X104611792Y-97790000D01*
X104622600Y-97763910D01*
X104622600Y-97511291D01*
X104622600Y-95276091D01*
X104611792Y-95250000D01*
X104622600Y-95223910D01*
X104622600Y-94971291D01*
X104622600Y-92736091D01*
X104611792Y-92710000D01*
X104622600Y-92683910D01*
X104622600Y-92431291D01*
X104622600Y-90196091D01*
X104611792Y-90170000D01*
X104622600Y-90143910D01*
X104622600Y-89891291D01*
X104622600Y-87656091D01*
X104611792Y-87630000D01*
X104622600Y-87603910D01*
X104622600Y-87351291D01*
X104622600Y-85116091D01*
X104611792Y-85090000D01*
X104622600Y-85063910D01*
X104622600Y-84811291D01*
X104622600Y-84764732D01*
X108163434Y-88305566D01*
X108531655Y-88551603D01*
X108966000Y-88638000D01*
X109400345Y-88551603D01*
X109768566Y-88305566D01*
X110014603Y-87937345D01*
X110101000Y-87503000D01*
X110014603Y-87068655D01*
X109768566Y-86700434D01*
X106037000Y-82968868D01*
X106037000Y-82131132D01*
X111165566Y-77002566D01*
X111411603Y-76634346D01*
X111411603Y-76634345D01*
X111498000Y-76200000D01*
X111498000Y-74114132D01*
X113243434Y-75859567D01*
X113611654Y-76105603D01*
X113611655Y-76105604D01*
X114046000Y-76192000D01*
X119997034Y-76192000D01*
X119641620Y-76338854D01*
X119271829Y-76708000D01*
X113899539Y-76708000D01*
X113532353Y-76340173D01*
X113042413Y-76136732D01*
X112511914Y-76136269D01*
X112021620Y-76338854D01*
X111646173Y-76713647D01*
X111442732Y-77203587D01*
X111442269Y-77734086D01*
X111644854Y-78224380D01*
X112019647Y-78599827D01*
X112509587Y-78803268D01*
X113040086Y-78803731D01*
X113530380Y-78601146D01*
X113900170Y-78232000D01*
X119272460Y-78232000D01*
X119639647Y-78599827D01*
X120129587Y-78803268D01*
X120660086Y-78803731D01*
X121150380Y-78601146D01*
X121525827Y-78226353D01*
X121729268Y-77736413D01*
X121729731Y-77205914D01*
X121527146Y-76715620D01*
X121152353Y-76340173D01*
X120795513Y-76192000D01*
X126275868Y-76192000D01*
X126832434Y-76748566D01*
X127200655Y-76994603D01*
X127635000Y-77081000D01*
X128069345Y-76994603D01*
X128437566Y-76748566D01*
X128683603Y-76380345D01*
X128770000Y-75946000D01*
X128683603Y-75511655D01*
X128437566Y-75143434D01*
X127548566Y-74254434D01*
X127180346Y-74008397D01*
X126746000Y-73922000D01*
X124005630Y-73922000D01*
X125433583Y-72494047D01*
X125641332Y-72580313D01*
X126070784Y-72580687D01*
X126467689Y-72416689D01*
X126771622Y-72113286D01*
X126936313Y-71716668D01*
X126936687Y-71287216D01*
X126772689Y-70890311D01*
X126469286Y-70586378D01*
X126072668Y-70421687D01*
X125728242Y-70421387D01*
X125791630Y-70358000D01*
X129540000Y-70358000D01*
X129540000Y-70357999D01*
X129831604Y-70299996D01*
X129831605Y-70299996D01*
X130078815Y-70134815D01*
X130586815Y-69626816D01*
X130586815Y-69626815D01*
X130751996Y-69379605D01*
X130809999Y-69088000D01*
X130810000Y-69088000D01*
X130810000Y-66294000D01*
X130751996Y-66002395D01*
X130586815Y-65755185D01*
X130586815Y-65755184D01*
X129857499Y-65025868D01*
X129857687Y-64810216D01*
X129693689Y-64413311D01*
X129390286Y-64109378D01*
X128993668Y-63944687D01*
X128564216Y-63944313D01*
X128167311Y-64108311D01*
X127863378Y-64411714D01*
X127698687Y-64808332D01*
X127698313Y-65237784D01*
X127862311Y-65634689D01*
X128165714Y-65938622D01*
X128562332Y-66103313D01*
X128779872Y-66103502D01*
X129033759Y-66357390D01*
X128945216Y-66357313D01*
X128548311Y-66521311D01*
X128394353Y-66675000D01*
X116774630Y-66675000D01*
X114330815Y-64231185D01*
X114083605Y-64066004D01*
X113792000Y-64008000D01*
X113540641Y-64008000D01*
X113388286Y-63855378D01*
X112991668Y-63690687D01*
X112562216Y-63690313D01*
X112165311Y-63854311D01*
X112060893Y-63958546D01*
X111721668Y-63817687D01*
X111292216Y-63817313D01*
X110895311Y-63981311D01*
X110591378Y-64284714D01*
X110426687Y-64681332D01*
X110426313Y-65110784D01*
X110590311Y-65507689D01*
X110893714Y-65811622D01*
X111290332Y-65976313D01*
X111507872Y-65976502D01*
X114046000Y-68514630D01*
X114046000Y-72574880D01*
X113943311Y-72617311D01*
X113639378Y-72920714D01*
X113602839Y-73008707D01*
X111165566Y-70571434D01*
X110797346Y-70325397D01*
X110363000Y-70239000D01*
X109982000Y-70314785D01*
X109982000Y-64392998D01*
X109923996Y-64101394D01*
X109923996Y-64101393D01*
X109857834Y-64002374D01*
X109758816Y-63854183D01*
X108992817Y-63088185D01*
X108745607Y-62923004D01*
X108462286Y-62866647D01*
X108308286Y-62712378D01*
X107911668Y-62547687D01*
X107482216Y-62547313D01*
X107085311Y-62711311D01*
X106781378Y-63014714D01*
X106616687Y-63411332D01*
X106616313Y-63840784D01*
X106780311Y-64237689D01*
X107083714Y-64541622D01*
X107480332Y-64706313D01*
X107909784Y-64706687D01*
X108296337Y-64546966D01*
X108458000Y-64708628D01*
X108458000Y-65783131D01*
X108435286Y-65760378D01*
X108038668Y-65595687D01*
X107751832Y-65595437D01*
X107728603Y-65478654D01*
X107482566Y-65110434D01*
X103926566Y-61554434D01*
X103558346Y-61308397D01*
X103124000Y-61222000D01*
X90170000Y-61222000D01*
X89735654Y-61308397D01*
X89367434Y-61554434D01*
X88986434Y-61935434D01*
X88740397Y-62303654D01*
X88654000Y-62738000D01*
X88654000Y-66421000D01*
X88740397Y-66855346D01*
X88986434Y-67223566D01*
X89354654Y-67469603D01*
X89789000Y-67556000D01*
X90223346Y-67469603D01*
X90591566Y-67223566D01*
X90837603Y-66855346D01*
X90924000Y-66421000D01*
X90924000Y-63492000D01*
X102653868Y-63492000D01*
X105877434Y-66715566D01*
X106145012Y-66894356D01*
X104459369Y-68580000D01*
X94615000Y-68580000D01*
X94323395Y-68638004D01*
X94076185Y-68803185D01*
X91568869Y-71310500D01*
X91353216Y-71310313D01*
X90956311Y-71474311D01*
X90652378Y-71777714D01*
X90487687Y-72174332D01*
X90487313Y-72603784D01*
X90651311Y-73000689D01*
X90827713Y-73177400D01*
X88926091Y-73177400D01*
X88900000Y-73188207D01*
X88873910Y-73177400D01*
X88621291Y-73177400D01*
X86386091Y-73177400D01*
X86360000Y-73188207D01*
X86333909Y-73177400D01*
X85375750Y-73177400D01*
X85217000Y-73336150D01*
X85217000Y-74803000D01*
X85237000Y-74803000D01*
X85237000Y-75057000D01*
X85217000Y-75057000D01*
X85217000Y-75077000D01*
X84963000Y-75077000D01*
X84963000Y-75057000D01*
X84943000Y-75057000D01*
X84943000Y-74803000D01*
X84963000Y-74803000D01*
X84963000Y-73336150D01*
X84804250Y-73177400D01*
X83846091Y-73177400D01*
X83820000Y-73188207D01*
X83793910Y-73177400D01*
X83541291Y-73177400D01*
X81343687Y-73177400D01*
X81343687Y-59730216D01*
X81179689Y-59333311D01*
X80876286Y-59029378D01*
X80479668Y-58864687D01*
X80320000Y-58864547D01*
X80320000Y-55302220D01*
X80482943Y-55234894D01*
X80943278Y-54775363D01*
X81192716Y-54174648D01*
X81193284Y-53524205D01*
X80944894Y-52923057D01*
X80485363Y-52462722D01*
X79884648Y-52213284D01*
X79234205Y-52212716D01*
X78633057Y-52461106D01*
X78172722Y-52920637D01*
X77923284Y-53521352D01*
X77922716Y-54171795D01*
X78171106Y-54772943D01*
X78630637Y-55233278D01*
X78796000Y-55301942D01*
X78796000Y-57132532D01*
X78780566Y-57109434D01*
X78412346Y-56863397D01*
X77978000Y-56777000D01*
X77724000Y-56777000D01*
X77693284Y-56783109D01*
X77693284Y-53524205D01*
X77444894Y-52923057D01*
X76985363Y-52462722D01*
X76384648Y-52213284D01*
X75734205Y-52212716D01*
X75133057Y-52461106D01*
X74672722Y-52920637D01*
X74423284Y-53521352D01*
X74422716Y-54171795D01*
X74671106Y-54772943D01*
X75130637Y-55233278D01*
X75731352Y-55482716D01*
X76381795Y-55483284D01*
X76982943Y-55234894D01*
X77443278Y-54775363D01*
X77692716Y-54174648D01*
X77693284Y-53524205D01*
X77693284Y-56783109D01*
X77289654Y-56863397D01*
X76921433Y-57109434D01*
X75729867Y-58301000D01*
X74193284Y-58301000D01*
X74193284Y-53524205D01*
X73944894Y-52923057D01*
X73485363Y-52462722D01*
X72884648Y-52213284D01*
X72234205Y-52212716D01*
X71633057Y-52461106D01*
X71172722Y-52920637D01*
X70923284Y-53521352D01*
X70922716Y-54171795D01*
X71171106Y-54772943D01*
X71630637Y-55233278D01*
X72231352Y-55482716D01*
X72881795Y-55483284D01*
X73482943Y-55234894D01*
X73943278Y-54775363D01*
X74192716Y-54174648D01*
X74193284Y-53524205D01*
X74193284Y-58301000D01*
X73143338Y-58301000D01*
X73215313Y-58127668D01*
X73215687Y-57698216D01*
X73051689Y-57301311D01*
X72748286Y-56997378D01*
X72351668Y-56832687D01*
X72134128Y-56832497D01*
X70896815Y-55595185D01*
X70649605Y-55430004D01*
X70358000Y-55372000D01*
X69651122Y-55372000D01*
X69982943Y-55234894D01*
X70443278Y-54775363D01*
X70692716Y-54174648D01*
X70693284Y-53524205D01*
X70444894Y-52923057D01*
X69985363Y-52462722D01*
X69384648Y-52213284D01*
X68734205Y-52212716D01*
X68133057Y-52461106D01*
X67672722Y-52920637D01*
X67423284Y-53521352D01*
X67422716Y-54171795D01*
X67671106Y-54772943D01*
X68130637Y-55233278D01*
X68464717Y-55372000D01*
X66151122Y-55372000D01*
X66482943Y-55234894D01*
X66943278Y-54775363D01*
X67192716Y-54174648D01*
X67193284Y-53524205D01*
X66944894Y-52923057D01*
X66485363Y-52462722D01*
X65884648Y-52213284D01*
X65234205Y-52212716D01*
X64633057Y-52461106D01*
X64172722Y-52920637D01*
X63923284Y-53521352D01*
X63922716Y-54171795D01*
X64171106Y-54772943D01*
X64630637Y-55233278D01*
X64964717Y-55372000D01*
X62651122Y-55372000D01*
X62982943Y-55234894D01*
X63443278Y-54775363D01*
X63692716Y-54174648D01*
X63693284Y-53524205D01*
X63444894Y-52923057D01*
X62985363Y-52462722D01*
X62384648Y-52213284D01*
X61734205Y-52212716D01*
X61133057Y-52461106D01*
X60672722Y-52920637D01*
X60423284Y-53521352D01*
X60422716Y-54171795D01*
X60671106Y-54772943D01*
X61130637Y-55233278D01*
X61464717Y-55372000D01*
X61159630Y-55372000D01*
X60125104Y-54337474D01*
X60192716Y-54174648D01*
X60193284Y-53524205D01*
X59944894Y-52923057D01*
X59485363Y-52462722D01*
X58884648Y-52213284D01*
X58234205Y-52212716D01*
X57633057Y-52461106D01*
X57172722Y-52920637D01*
X56923284Y-53521352D01*
X56922716Y-54171795D01*
X57171106Y-54772943D01*
X57630637Y-55233278D01*
X58231352Y-55482716D01*
X58881795Y-55483284D01*
X59047277Y-55414907D01*
X60305184Y-56672815D01*
X60305185Y-56672815D01*
X60552395Y-56837996D01*
X60844000Y-56896000D01*
X70042369Y-56896000D01*
X71056500Y-57910131D01*
X71056313Y-58125784D01*
X71170736Y-58402709D01*
X70825434Y-58633434D01*
X70579397Y-59001654D01*
X70493000Y-59436000D01*
X70579397Y-59870346D01*
X70825434Y-60238566D01*
X71193654Y-60484603D01*
X71628000Y-60571000D01*
X76200000Y-60571000D01*
X76634345Y-60484603D01*
X76634346Y-60484603D01*
X77002566Y-60238566D01*
X78247799Y-58993333D01*
X78412346Y-58960603D01*
X78780566Y-58714566D01*
X78796000Y-58691467D01*
X78796000Y-59238000D01*
X78854004Y-59529605D01*
X79019185Y-59776815D01*
X79184500Y-59942131D01*
X79184313Y-60157784D01*
X79348311Y-60554689D01*
X79651714Y-60858622D01*
X80048332Y-61023313D01*
X80477784Y-61023687D01*
X80874689Y-60859689D01*
X81178622Y-60556286D01*
X81343313Y-60159668D01*
X81343687Y-59730216D01*
X81343687Y-73177400D01*
X81306091Y-73177400D01*
X81280000Y-73188207D01*
X81253910Y-73177400D01*
X81001291Y-73177400D01*
X78766091Y-73177400D01*
X78532702Y-73274073D01*
X78354073Y-73452701D01*
X78257400Y-73686090D01*
X78257400Y-73938709D01*
X78257400Y-75993385D01*
X78129311Y-76046311D01*
X77825378Y-76349714D01*
X77660687Y-76746332D01*
X77660313Y-77175784D01*
X77824311Y-77572689D01*
X78127714Y-77876622D01*
X78524332Y-78041313D01*
X78953784Y-78041687D01*
X79350689Y-77877689D01*
X79504646Y-77724000D01*
X85976358Y-77724000D01*
X86128714Y-77876622D01*
X86499699Y-78030669D01*
X83694869Y-80835500D01*
X83479216Y-80835313D01*
X83082311Y-80999311D01*
X82778378Y-81302714D01*
X82613687Y-81699332D01*
X82613313Y-82128784D01*
X82777311Y-82525689D01*
X83080714Y-82829622D01*
X83477332Y-82994313D01*
X83906784Y-82994687D01*
X84249784Y-82852961D01*
X84209000Y-83058000D01*
X84284785Y-83439000D01*
X78488420Y-83439000D01*
X78209286Y-83159378D01*
X77812668Y-82994687D01*
X77383216Y-82994313D01*
X77279629Y-83037114D01*
X77279687Y-82971216D01*
X77115689Y-82574311D01*
X76812286Y-82270378D01*
X76415668Y-82105687D01*
X75986216Y-82105313D01*
X75589311Y-82269311D01*
X75285378Y-82572714D01*
X75120687Y-82969332D01*
X75120313Y-83398784D01*
X75136929Y-83439000D01*
X74142600Y-83439000D01*
X74142600Y-71093910D01*
X74142600Y-70841291D01*
X74142600Y-68606091D01*
X74045927Y-68372702D01*
X73867299Y-68194073D01*
X73633910Y-68097400D01*
X73381291Y-68097400D01*
X71146091Y-68097400D01*
X70912702Y-68194073D01*
X70734073Y-68372701D01*
X70637400Y-68606090D01*
X70637400Y-68858709D01*
X70637400Y-71093909D01*
X70734073Y-71327298D01*
X70912701Y-71505927D01*
X71146090Y-71602600D01*
X71398709Y-71602600D01*
X73633909Y-71602600D01*
X73867298Y-71505927D01*
X74045927Y-71327299D01*
X74142600Y-71093910D01*
X74142600Y-83439000D01*
X72771000Y-83439000D01*
X72580687Y-83476855D01*
X72580687Y-74970216D01*
X72416689Y-74573311D01*
X72262342Y-74418694D01*
X72204996Y-74130396D01*
X72204996Y-74130395D01*
X72039815Y-73883185D01*
X70007815Y-71851185D01*
X69760605Y-71686004D01*
X69469000Y-71628000D01*
X65786000Y-71628000D01*
X59938660Y-71628000D01*
X60007313Y-71462668D01*
X60007502Y-71245127D01*
X60767630Y-70485000D01*
X64132358Y-70485000D01*
X64284714Y-70637622D01*
X64681332Y-70802313D01*
X65110784Y-70802687D01*
X65507689Y-70638689D01*
X65811622Y-70335286D01*
X65976313Y-69938668D01*
X65976687Y-69509216D01*
X65812689Y-69112311D01*
X65509286Y-68808378D01*
X65112668Y-68643687D01*
X64683216Y-68643313D01*
X64286311Y-68807311D01*
X64132353Y-68961000D01*
X60452000Y-68961000D01*
X60160395Y-69019004D01*
X59913184Y-69184185D01*
X58929868Y-70167500D01*
X58714216Y-70167313D01*
X58317311Y-70331311D01*
X58013378Y-70634714D01*
X57848687Y-71031332D01*
X57848313Y-71460784D01*
X57917405Y-71628000D01*
X57211630Y-71628000D01*
X56451499Y-70867868D01*
X56451687Y-70652216D01*
X56287689Y-70255311D01*
X55996388Y-69963501D01*
X55996388Y-65094194D01*
X55976250Y-64344565D01*
X55728123Y-63745533D01*
X55435320Y-63616285D01*
X55255715Y-63795890D01*
X55255715Y-63436680D01*
X55126467Y-63143877D01*
X54426194Y-62875612D01*
X53676565Y-62895750D01*
X53077533Y-63143877D01*
X52948285Y-63436680D01*
X54102000Y-64590395D01*
X55255715Y-63436680D01*
X55255715Y-63795890D01*
X54281605Y-64770000D01*
X55435320Y-65923715D01*
X55728123Y-65794467D01*
X55996388Y-65094194D01*
X55996388Y-69963501D01*
X55984286Y-69951378D01*
X55587668Y-69786687D01*
X55255715Y-69786397D01*
X55255715Y-66103320D01*
X54102000Y-64949605D01*
X53922395Y-65129210D01*
X53922395Y-64770000D01*
X52768680Y-63616285D01*
X52475877Y-63745533D01*
X52207612Y-64445806D01*
X52227750Y-65195435D01*
X52475877Y-65794467D01*
X52768680Y-65923715D01*
X53922395Y-64770000D01*
X53922395Y-65129210D01*
X52948285Y-66103320D01*
X53077533Y-66396123D01*
X53777806Y-66664388D01*
X54527435Y-66644250D01*
X55126467Y-66396123D01*
X55255715Y-66103320D01*
X55255715Y-69786397D01*
X55158216Y-69786313D01*
X54761311Y-69950311D01*
X54457378Y-70253714D01*
X54292687Y-70650332D01*
X54292313Y-71079784D01*
X54456311Y-71476689D01*
X54759714Y-71780622D01*
X55156332Y-71945313D01*
X55373872Y-71945502D01*
X56357184Y-72928815D01*
X56357185Y-72928815D01*
X56604395Y-73093996D01*
X56896000Y-73152000D01*
X65786000Y-73152000D01*
X69153370Y-73152000D01*
X70582477Y-74581107D01*
X70421687Y-74968332D01*
X70421313Y-75397784D01*
X70585311Y-75794689D01*
X70888714Y-76098622D01*
X71285332Y-76263313D01*
X71714784Y-76263687D01*
X72111689Y-76099689D01*
X72415622Y-75796286D01*
X72580313Y-75399668D01*
X72580687Y-74970216D01*
X72580687Y-83476855D01*
X72479395Y-83497004D01*
X72232185Y-83662185D01*
X71883869Y-84010500D01*
X71668216Y-84010313D01*
X71271311Y-84174311D01*
X70967378Y-84477714D01*
X70802687Y-84874332D01*
X70802313Y-85303784D01*
X70966311Y-85700689D01*
X71269714Y-86004622D01*
X71666332Y-86169313D01*
X72095784Y-86169687D01*
X72492689Y-86005689D01*
X72796622Y-85702286D01*
X72961313Y-85305668D01*
X72961502Y-85088127D01*
X73086630Y-84963000D01*
X76011369Y-84963000D01*
X76550185Y-85501816D01*
X76698376Y-85600834D01*
X76797395Y-85666996D01*
X76797396Y-85666996D01*
X77089000Y-85725000D01*
X84534929Y-85725000D01*
X84682311Y-86081689D01*
X84985714Y-86385622D01*
X85382332Y-86550313D01*
X85811784Y-86550687D01*
X86208689Y-86386689D01*
X86512622Y-86083286D01*
X86677313Y-85686668D01*
X86677687Y-85257216D01*
X86536707Y-84916020D01*
X86638386Y-84814518D01*
X88019000Y-86195132D01*
X88019000Y-87794868D01*
X86192434Y-89621434D01*
X85946397Y-89989655D01*
X85860000Y-90424000D01*
X85946397Y-90858345D01*
X85996336Y-90933084D01*
X85104420Y-91825000D01*
X82556856Y-91825000D01*
X82527286Y-91795378D01*
X82130668Y-91630687D01*
X81701216Y-91630313D01*
X81304311Y-91794311D01*
X81000378Y-92097714D01*
X80835687Y-92494332D01*
X80835313Y-92923784D01*
X80999311Y-93320689D01*
X81030000Y-93351431D01*
X81030000Y-96040465D01*
X80870515Y-96072189D01*
X80814325Y-96083367D01*
X80695438Y-96162803D01*
X80775959Y-95758000D01*
X80661885Y-95184511D01*
X80337029Y-94698330D01*
X80013771Y-94482336D01*
X80136490Y-94424821D01*
X80530688Y-93992947D01*
X80702958Y-93577026D01*
X80702958Y-92858974D01*
X80530688Y-92443053D01*
X80136490Y-92011179D01*
X79607027Y-91763032D01*
X79375000Y-91883531D01*
X79375000Y-93091000D01*
X80581817Y-93091000D01*
X80702958Y-92858974D01*
X80702958Y-93577026D01*
X80581817Y-93345000D01*
X79375000Y-93345000D01*
X79375000Y-93365000D01*
X79121000Y-93365000D01*
X79121000Y-93345000D01*
X79101000Y-93345000D01*
X79101000Y-93091000D01*
X79121000Y-93091000D01*
X79121000Y-91883531D01*
X78888973Y-91763032D01*
X78359510Y-92011179D01*
X77977992Y-92429160D01*
X77797029Y-92158330D01*
X77310848Y-91833474D01*
X76737359Y-91719400D01*
X76678641Y-91719400D01*
X76200000Y-91814607D01*
X76200000Y-90993630D01*
X78039630Y-89154000D01*
X80964369Y-89154000D01*
X81249184Y-89438815D01*
X81249185Y-89438815D01*
X81496395Y-89603996D01*
X81788000Y-89662000D01*
X84325358Y-89662000D01*
X84477714Y-89814622D01*
X84874332Y-89979313D01*
X85303784Y-89979687D01*
X85700689Y-89815689D01*
X86004622Y-89512286D01*
X86169313Y-89115668D01*
X86169687Y-88686216D01*
X86005689Y-88289311D01*
X85702286Y-87985378D01*
X85305668Y-87820687D01*
X84876216Y-87820313D01*
X84479311Y-87984311D01*
X84325353Y-88138000D01*
X82103630Y-88138000D01*
X81818815Y-87853185D01*
X81571605Y-87688004D01*
X81280000Y-87630000D01*
X77724000Y-87630000D01*
X77432395Y-87688004D01*
X77185184Y-87853185D01*
X74899185Y-90139185D01*
X74734004Y-90386395D01*
X74676000Y-90678000D01*
X74676000Y-91814607D01*
X74197359Y-91719400D01*
X74138641Y-91719400D01*
X73565152Y-91833474D01*
X73469687Y-91897261D01*
X73469687Y-87416216D01*
X73305689Y-87019311D01*
X73002286Y-86715378D01*
X72605668Y-86550687D01*
X72176216Y-86550313D01*
X71779311Y-86714311D01*
X71748568Y-86745000D01*
X70364856Y-86745000D01*
X70335286Y-86715378D01*
X69938668Y-86550687D01*
X69509216Y-86550313D01*
X69112311Y-86714311D01*
X68808378Y-87017714D01*
X68643687Y-87414332D01*
X68643313Y-87843784D01*
X68807311Y-88240689D01*
X69110714Y-88544622D01*
X69507332Y-88709313D01*
X69936784Y-88709687D01*
X70333689Y-88545689D01*
X70364431Y-88515000D01*
X71748143Y-88515000D01*
X71777714Y-88544622D01*
X72174332Y-88709313D01*
X72603784Y-88709687D01*
X73000689Y-88545689D01*
X73304622Y-88242286D01*
X73469313Y-87845668D01*
X73469687Y-87416216D01*
X73469687Y-91897261D01*
X73078971Y-92158330D01*
X72962260Y-92333000D01*
X72517000Y-92333000D01*
X72178325Y-92400367D01*
X71891210Y-92592210D01*
X71891207Y-92592213D01*
X71510210Y-92973210D01*
X71318367Y-93260325D01*
X71307189Y-93316515D01*
X71250999Y-93599000D01*
X71251000Y-93599005D01*
X71251000Y-96646994D01*
X71250999Y-96647000D01*
X71307189Y-96929484D01*
X71318367Y-96985675D01*
X71510210Y-97272790D01*
X72526207Y-98288786D01*
X72526210Y-98288790D01*
X72526211Y-98288790D01*
X72813325Y-98480633D01*
X72813326Y-98480633D01*
X72869515Y-98491810D01*
X73152000Y-98548001D01*
X73152000Y-98548000D01*
X73152005Y-98548000D01*
X80390994Y-98548000D01*
X80391000Y-98548001D01*
X80391000Y-98548000D01*
X80673484Y-98491810D01*
X80729674Y-98480633D01*
X80729675Y-98480633D01*
X81016790Y-98288790D01*
X81435019Y-97870560D01*
X81699332Y-97980313D01*
X82128784Y-97980687D01*
X82525689Y-97816689D01*
X82829622Y-97513286D01*
X82994313Y-97116668D01*
X82994687Y-96687216D01*
X82830689Y-96290311D01*
X82800000Y-96259568D01*
X82800000Y-93595000D01*
X85470994Y-93595000D01*
X85471000Y-93595001D01*
X85471000Y-93595000D01*
X85753484Y-93538810D01*
X85809674Y-93527633D01*
X85809675Y-93527633D01*
X86096790Y-93335790D01*
X87620786Y-91811792D01*
X87620789Y-91811790D01*
X87620790Y-91811790D01*
X87812633Y-91524675D01*
X87880000Y-91186000D01*
X87880000Y-91144132D01*
X89624132Y-89400000D01*
X90715868Y-89400000D01*
X91058149Y-89742281D01*
X90702311Y-89889311D01*
X90678223Y-89913356D01*
X90655286Y-89890378D01*
X90258668Y-89725687D01*
X89829216Y-89725313D01*
X89432311Y-89889311D01*
X89128378Y-90192714D01*
X88963687Y-90589332D01*
X88963313Y-91018784D01*
X89127311Y-91415689D01*
X89430714Y-91719622D01*
X89827332Y-91884313D01*
X90044872Y-91884502D01*
X90774184Y-92613815D01*
X90774185Y-92613815D01*
X91021395Y-92778996D01*
X91313000Y-92837000D01*
X91818353Y-92837000D01*
X91668378Y-92986714D01*
X91514348Y-93357656D01*
X91466689Y-93242311D01*
X91163286Y-92938378D01*
X90766668Y-92773687D01*
X90337216Y-92773313D01*
X89940311Y-92937311D01*
X89636378Y-93240714D01*
X89471687Y-93637332D01*
X89471313Y-94066784D01*
X89635311Y-94463689D01*
X89789000Y-94617646D01*
X89789000Y-98998370D01*
X89077067Y-99710302D01*
X89077066Y-99710303D01*
X88862395Y-99753004D01*
X88854065Y-99758569D01*
X88559216Y-99758313D01*
X88162311Y-99922311D01*
X88008353Y-100076000D01*
X87757000Y-100076000D01*
X87465395Y-100134004D01*
X87218185Y-100299185D01*
X84266370Y-103251000D01*
X71054630Y-103251000D01*
X67119499Y-99315869D01*
X67119687Y-99100216D01*
X66955689Y-98703311D01*
X66652286Y-98399378D01*
X66255668Y-98234687D01*
X65826216Y-98234313D01*
X65429311Y-98398311D01*
X65125378Y-98701714D01*
X65120380Y-98713750D01*
X64546815Y-98140185D01*
X64299605Y-97975004D01*
X64008000Y-97917000D01*
X59651747Y-97917000D01*
X59651747Y-91183528D01*
X59633174Y-90394060D01*
X59366790Y-89750952D01*
X59063601Y-89609484D01*
X58883996Y-89789089D01*
X58883996Y-89429879D01*
X58742528Y-89126690D01*
X58006048Y-88841733D01*
X57216580Y-88860306D01*
X56573472Y-89126690D01*
X56432004Y-89429879D01*
X57658000Y-90655875D01*
X58883996Y-89429879D01*
X58883996Y-89789089D01*
X57837605Y-90835480D01*
X59063601Y-92061476D01*
X59366790Y-91920008D01*
X59651747Y-91183528D01*
X59651747Y-97917000D01*
X58883996Y-97917000D01*
X58883996Y-92241081D01*
X57658000Y-91015085D01*
X57478395Y-91194690D01*
X57478395Y-90835480D01*
X56252399Y-89609484D01*
X55949210Y-89750952D01*
X55664253Y-90487432D01*
X55682826Y-91276900D01*
X55949210Y-91920008D01*
X56252399Y-92061476D01*
X57478395Y-90835480D01*
X57478395Y-91194690D01*
X56432004Y-92241081D01*
X56573472Y-92544270D01*
X57309952Y-92829227D01*
X58099420Y-92810654D01*
X58742528Y-92544270D01*
X58883996Y-92241081D01*
X58883996Y-97917000D01*
X52451000Y-97917000D01*
X52159395Y-97975004D01*
X51912185Y-98140185D01*
X50769185Y-99283185D01*
X50710000Y-99371761D01*
X50710000Y-80997630D01*
X59278185Y-89565816D01*
X59525395Y-89730996D01*
X59525396Y-89730997D01*
X59817000Y-89789000D01*
X64976603Y-89789000D01*
X64960687Y-89827332D01*
X64960649Y-89870771D01*
X61096210Y-93735210D01*
X60904367Y-94022325D01*
X60893189Y-94078515D01*
X60836999Y-94361000D01*
X60837000Y-94361005D01*
X60837000Y-95116143D01*
X60807378Y-95145714D01*
X60642687Y-95542332D01*
X60642313Y-95971784D01*
X60806311Y-96368689D01*
X61109714Y-96672622D01*
X61506332Y-96837313D01*
X61935784Y-96837687D01*
X62332689Y-96673689D01*
X62636622Y-96370286D01*
X62801313Y-95973668D01*
X62801687Y-95544216D01*
X62637689Y-95147311D01*
X62607000Y-95116568D01*
X62607000Y-94727579D01*
X66211928Y-91122650D01*
X66253784Y-91122687D01*
X66650689Y-90958689D01*
X66954622Y-90655286D01*
X67071407Y-90374037D01*
X69278500Y-92581131D01*
X69278313Y-92796784D01*
X69442311Y-93193689D01*
X69745714Y-93497622D01*
X70142332Y-93662313D01*
X70571784Y-93662687D01*
X70968689Y-93498689D01*
X71272622Y-93195286D01*
X71437313Y-92798668D01*
X71437687Y-92369216D01*
X71273689Y-91972311D01*
X70970286Y-91668378D01*
X70573668Y-91503687D01*
X70356128Y-91503497D01*
X67340815Y-88488185D01*
X67093605Y-88323004D01*
X66802000Y-88265000D01*
X63754242Y-88265000D01*
X63754242Y-85829339D01*
X63542010Y-85315697D01*
X63149370Y-84922371D01*
X62941487Y-84836050D01*
X63147303Y-84751010D01*
X63540629Y-84358370D01*
X63753757Y-83845100D01*
X63754242Y-83289339D01*
X63542010Y-82775697D01*
X63149370Y-82382371D01*
X62636100Y-82169243D01*
X62080339Y-82168758D01*
X61566697Y-82380990D01*
X61357489Y-82589832D01*
X61150390Y-82382371D01*
X60637120Y-82169243D01*
X60081359Y-82168758D01*
X59651747Y-82346269D01*
X59651747Y-79184568D01*
X59633174Y-78395100D01*
X59366790Y-77751992D01*
X59063601Y-77610524D01*
X58883996Y-77790129D01*
X58883996Y-77430919D01*
X58742528Y-77127730D01*
X58006048Y-76842773D01*
X57216580Y-76861346D01*
X56573472Y-77127730D01*
X56432004Y-77430919D01*
X57658000Y-78656915D01*
X58883996Y-77430919D01*
X58883996Y-77790129D01*
X57837605Y-78836520D01*
X59063601Y-80062516D01*
X59366790Y-79921048D01*
X59651747Y-79184568D01*
X59651747Y-82346269D01*
X59567717Y-82380990D01*
X59174391Y-82773630D01*
X58961263Y-83286900D01*
X58960778Y-83842661D01*
X59173010Y-84356303D01*
X59565650Y-84749629D01*
X59757747Y-84829394D01*
X59626877Y-84883603D01*
X59557412Y-85125787D01*
X60358020Y-85926395D01*
X61158628Y-85125787D01*
X61089163Y-84883603D01*
X60948702Y-84833491D01*
X61148323Y-84751010D01*
X61357530Y-84542167D01*
X61564630Y-84749629D01*
X61772512Y-84835949D01*
X61566697Y-84920990D01*
X61173371Y-85313630D01*
X61062153Y-85581471D01*
X60537625Y-86106000D01*
X61062189Y-86630564D01*
X61171990Y-86896303D01*
X61564630Y-87289629D01*
X62077900Y-87502757D01*
X62633661Y-87503242D01*
X63147303Y-87291010D01*
X63540629Y-86898370D01*
X63753757Y-86385100D01*
X63754242Y-85829339D01*
X63754242Y-88265000D01*
X61158628Y-88265000D01*
X61158628Y-87086213D01*
X60358020Y-86285605D01*
X60178415Y-86465210D01*
X60178415Y-86106000D01*
X59377807Y-85305392D01*
X59135623Y-85374857D01*
X58948876Y-85898302D01*
X58976658Y-86453368D01*
X59135623Y-86837143D01*
X59377807Y-86906608D01*
X60178415Y-86106000D01*
X60178415Y-86465210D01*
X59557412Y-87086213D01*
X59626877Y-87328397D01*
X60150322Y-87515144D01*
X60705388Y-87487362D01*
X61089163Y-87328397D01*
X61158628Y-87086213D01*
X61158628Y-88265000D01*
X60132630Y-88265000D01*
X58883996Y-87016365D01*
X58883996Y-80242121D01*
X57658000Y-79016125D01*
X57478395Y-79195730D01*
X57478395Y-78836520D01*
X56252399Y-77610524D01*
X55949210Y-77751992D01*
X55664253Y-78488472D01*
X55682826Y-79277940D01*
X55949210Y-79921048D01*
X56252399Y-80062516D01*
X57478395Y-78836520D01*
X57478395Y-79195730D01*
X56432004Y-80242121D01*
X56573472Y-80545310D01*
X57309952Y-80830267D01*
X58099420Y-80811694D01*
X58742528Y-80545310D01*
X58883996Y-80242121D01*
X58883996Y-87016365D01*
X51689000Y-79821369D01*
X51689000Y-63180630D01*
X53421253Y-61448376D01*
X53725405Y-61574672D01*
X54475305Y-61575326D01*
X55168372Y-61288957D01*
X55699093Y-60759161D01*
X55986672Y-60066595D01*
X55987326Y-59316695D01*
X55700957Y-58623628D01*
X55171161Y-58092907D01*
X54478595Y-57805328D01*
X53728695Y-57804674D01*
X53035628Y-58091043D01*
X52504907Y-58620839D01*
X52217328Y-59313405D01*
X52216674Y-60063305D01*
X52343681Y-60370688D01*
X50710000Y-62004370D01*
X50710000Y-55143432D01*
X51221847Y-55656174D01*
X52373674Y-56134454D01*
X53620854Y-56135543D01*
X54773515Y-55659273D01*
X55656174Y-54778153D01*
X56134454Y-53626326D01*
X56135543Y-52379146D01*
X55659273Y-51226485D01*
X55143688Y-50710000D01*
X83955868Y-50710000D01*
X82255434Y-52410434D01*
X82255335Y-52410581D01*
X82133057Y-52461106D01*
X81672722Y-52920637D01*
X81423284Y-53521352D01*
X81422716Y-54171795D01*
X81671106Y-54772943D01*
X82130637Y-55233278D01*
X82731352Y-55482716D01*
X83381795Y-55483284D01*
X83982943Y-55234894D01*
X84443278Y-54775363D01*
X84692716Y-54174648D01*
X84693284Y-53524205D01*
X84593477Y-53282654D01*
X85560132Y-52316000D01*
X87194239Y-52316000D01*
X86843057Y-52461106D01*
X86382722Y-52920637D01*
X86133284Y-53521352D01*
X86132716Y-54171795D01*
X86381106Y-54772943D01*
X86840637Y-55233278D01*
X87441352Y-55482716D01*
X88091795Y-55483284D01*
X88692943Y-55234894D01*
X89153278Y-54775363D01*
X89402716Y-54174648D01*
X89403284Y-53524205D01*
X89154894Y-52923057D01*
X88695363Y-52462722D01*
X88342016Y-52316000D01*
X90694239Y-52316000D01*
X90343057Y-52461106D01*
X89882722Y-52920637D01*
X89633284Y-53521352D01*
X89632716Y-54171795D01*
X89881106Y-54772943D01*
X90340637Y-55233278D01*
X90941352Y-55482716D01*
X91591795Y-55483284D01*
X92192943Y-55234894D01*
X92653278Y-54775363D01*
X92902716Y-54174648D01*
X92903284Y-53524205D01*
X92654894Y-52923057D01*
X92195363Y-52462722D01*
X91842016Y-52316000D01*
X94194239Y-52316000D01*
X93843057Y-52461106D01*
X93382722Y-52920637D01*
X93133284Y-53521352D01*
X93132716Y-54171795D01*
X93381106Y-54772943D01*
X93840637Y-55233278D01*
X94441352Y-55482716D01*
X95091795Y-55483284D01*
X95692943Y-55234894D01*
X96153278Y-54775363D01*
X96402716Y-54174648D01*
X96403284Y-53524205D01*
X96154894Y-52923057D01*
X95695363Y-52462722D01*
X95342016Y-52316000D01*
X97694239Y-52316000D01*
X97343057Y-52461106D01*
X96882722Y-52920637D01*
X96633284Y-53521352D01*
X96632716Y-54171795D01*
X96881106Y-54772943D01*
X97340637Y-55233278D01*
X97941352Y-55482716D01*
X98591795Y-55483284D01*
X99192943Y-55234894D01*
X99653278Y-54775363D01*
X99902716Y-54174648D01*
X99903284Y-53524205D01*
X99654894Y-52923057D01*
X99195363Y-52462722D01*
X98842016Y-52316000D01*
X101194239Y-52316000D01*
X100843057Y-52461106D01*
X100382722Y-52920637D01*
X100133284Y-53521352D01*
X100132716Y-54171795D01*
X100381106Y-54772943D01*
X100840637Y-55233278D01*
X101441352Y-55482716D01*
X102091795Y-55483284D01*
X102692943Y-55234894D01*
X103153278Y-54775363D01*
X103402716Y-54174648D01*
X103403284Y-53524205D01*
X103154894Y-52923057D01*
X102695363Y-52462722D01*
X102342016Y-52316000D01*
X104694239Y-52316000D01*
X104343057Y-52461106D01*
X103882722Y-52920637D01*
X103633284Y-53521352D01*
X103632716Y-54171795D01*
X103881106Y-54772943D01*
X104340637Y-55233278D01*
X104941352Y-55482716D01*
X105591795Y-55483284D01*
X106192943Y-55234894D01*
X106653278Y-54775363D01*
X106902716Y-54174648D01*
X106903284Y-53524205D01*
X106654894Y-52923057D01*
X106195363Y-52462722D01*
X105842016Y-52316000D01*
X108194239Y-52316000D01*
X107843057Y-52461106D01*
X107382722Y-52920637D01*
X107133284Y-53521352D01*
X107132716Y-54171795D01*
X107381106Y-54772943D01*
X107840637Y-55233278D01*
X108441352Y-55482716D01*
X109091795Y-55483284D01*
X109692943Y-55234894D01*
X110153278Y-54775363D01*
X110402716Y-54174648D01*
X110403227Y-53588360D01*
X110633024Y-53818157D01*
X110632716Y-54171795D01*
X110881106Y-54772943D01*
X111340637Y-55233278D01*
X111941352Y-55482716D01*
X112591795Y-55483284D01*
X113192943Y-55234894D01*
X113653278Y-54775363D01*
X113902716Y-54174648D01*
X113903027Y-53818104D01*
X115278132Y-52443000D01*
X116096876Y-52443000D01*
X116053057Y-52461106D01*
X115592722Y-52920637D01*
X115343284Y-53521352D01*
X115342716Y-54171795D01*
X115591106Y-54772943D01*
X116050637Y-55233278D01*
X116651352Y-55482716D01*
X117301795Y-55483284D01*
X117902943Y-55234894D01*
X118363278Y-54775363D01*
X118612716Y-54174648D01*
X118613284Y-53524205D01*
X118364894Y-52923057D01*
X117905363Y-52462722D01*
X117857867Y-52443000D01*
X119596876Y-52443000D01*
X119553057Y-52461106D01*
X119092722Y-52920637D01*
X118843284Y-53521352D01*
X118842716Y-54171795D01*
X119091106Y-54772943D01*
X119550637Y-55233278D01*
X119716000Y-55301942D01*
X119716000Y-62693000D01*
X119774004Y-62984605D01*
X119824550Y-63060252D01*
X119824313Y-63332784D01*
X119988311Y-63729689D01*
X120291714Y-64033622D01*
X120688332Y-64198313D01*
X121117784Y-64198687D01*
X121158000Y-64182070D01*
X121158000Y-64259358D01*
X121005378Y-64411714D01*
X120840687Y-64808332D01*
X120840313Y-65237784D01*
X121004311Y-65634689D01*
X121307714Y-65938622D01*
X121704332Y-66103313D01*
X122133784Y-66103687D01*
X122530689Y-65939689D01*
X122834622Y-65636286D01*
X122999313Y-65239668D01*
X122999687Y-64810216D01*
X122835689Y-64413311D01*
X122682000Y-64259353D01*
X122682000Y-57084630D01*
X124283362Y-55483267D01*
X124301795Y-55483284D01*
X124902943Y-55234894D01*
X125363278Y-54775363D01*
X125612716Y-54174648D01*
X125613284Y-53524205D01*
X125364894Y-52923057D01*
X124905363Y-52462722D01*
X124857867Y-52443000D01*
X126596876Y-52443000D01*
X126553057Y-52461106D01*
X126092722Y-52920637D01*
X125843284Y-53521352D01*
X125842716Y-54171795D01*
X126091106Y-54772943D01*
X126550637Y-55233278D01*
X127151352Y-55482716D01*
X127801795Y-55483284D01*
X128402943Y-55234894D01*
X128863278Y-54775363D01*
X129112716Y-54174648D01*
X129113284Y-53524205D01*
X128864894Y-52923057D01*
X128405363Y-52462722D01*
X128357867Y-52443000D01*
X130096876Y-52443000D01*
X130053057Y-52461106D01*
X129592722Y-52920637D01*
X129343284Y-53521352D01*
X129342716Y-54171795D01*
X129591106Y-54772943D01*
X130050637Y-55233278D01*
X130651352Y-55482716D01*
X131301795Y-55483284D01*
X131902943Y-55234894D01*
X132363278Y-54775363D01*
X132612716Y-54174648D01*
X132613284Y-53524205D01*
X132364894Y-52923057D01*
X131905363Y-52462722D01*
X131857867Y-52443000D01*
X133596876Y-52443000D01*
X133553057Y-52461106D01*
X133092722Y-52920637D01*
X132843284Y-53521352D01*
X132842716Y-54171795D01*
X133091106Y-54772943D01*
X133550637Y-55233278D01*
X134151352Y-55482716D01*
X134801795Y-55483284D01*
X135402943Y-55234894D01*
X135863278Y-54775363D01*
X136112716Y-54174648D01*
X136113284Y-53524205D01*
X135864894Y-52923057D01*
X135405363Y-52462722D01*
X135357867Y-52443000D01*
X137096876Y-52443000D01*
X137053057Y-52461106D01*
X136592722Y-52920637D01*
X136343284Y-53521352D01*
X136342716Y-54171795D01*
X136591106Y-54772943D01*
X137050637Y-55233278D01*
X137651352Y-55482716D01*
X138301795Y-55483284D01*
X138902943Y-55234894D01*
X139363278Y-54775363D01*
X139612716Y-54174648D01*
X139613227Y-53588360D01*
X139843024Y-53818157D01*
X139842716Y-54171795D01*
X140091106Y-54772943D01*
X140550637Y-55233278D01*
X141151352Y-55482716D01*
X141801795Y-55483284D01*
X142402943Y-55234894D01*
X142863278Y-54775363D01*
X143112716Y-54174648D01*
X143113284Y-53524205D01*
X142864894Y-52923057D01*
X142405363Y-52462722D01*
X141804648Y-52213284D01*
X141448105Y-52212972D01*
X139945132Y-50710000D01*
X144856567Y-50710000D01*
X144343826Y-51221847D01*
X143865546Y-52373674D01*
X143864457Y-53620854D01*
X144340727Y-54773515D01*
X145221847Y-55656174D01*
X146373674Y-56134454D01*
X147620854Y-56135543D01*
X148773515Y-55659273D01*
X149290000Y-55143688D01*
X149290000Y-104856567D01*
M02*
