G04 #@! TF.FileFunction,Legend,Top*
%FSLAX46Y46*%
G04 Gerber Fmt 4.6, Leading zero omitted, Abs format (unit mm)*
G04 Created by KiCad (PCBNEW 0.201412131231+5320~19~ubuntu14.04.1-product) date 2014-12-14T15:34:26 CET*
%MOMM*%
G01*
G04 APERTURE LIST*
%ADD10C,0.100000*%
%ADD11C,0.127000*%
%ADD12C,0.099060*%
%ADD13C,0.066040*%
%ADD14C,0.101600*%
%ADD15C,0.050800*%
%ADD16C,0.150000*%
%ADD17C,0.129540*%
%ADD18C,0.203200*%
%ADD19C,0.304800*%
%ADD20C,0.381000*%
%ADD21C,0.160000*%
G04 APERTURE END LIST*
D10*
D11*
X65330605Y-64770000D02*
G75*
G03X65330605Y-64770000I-179605J0D01*
G01*
X63500000Y-67691000D02*
X65024000Y-67691000D01*
X65024000Y-67691000D02*
X65024000Y-64897000D01*
X65024000Y-64897000D02*
X63500000Y-64897000D01*
X61976000Y-64897000D02*
X60452000Y-64897000D01*
X60452000Y-64897000D02*
X60452000Y-67691000D01*
X60452000Y-67691000D02*
X61976000Y-67691000D01*
X64441605Y-67818000D02*
G75*
G03X64441605Y-67818000I-179605J0D01*
G01*
X62611000Y-70739000D02*
X64135000Y-70739000D01*
X64135000Y-70739000D02*
X64135000Y-67945000D01*
X64135000Y-67945000D02*
X62611000Y-67945000D01*
X61087000Y-67945000D02*
X59563000Y-67945000D01*
X59563000Y-67945000D02*
X59563000Y-70739000D01*
X59563000Y-70739000D02*
X61087000Y-70739000D01*
D12*
X56134000Y-73914000D02*
G75*
G03X56134000Y-73914000I-127000J0D01*
G01*
X56007000Y-72771000D02*
X56007000Y-73787000D01*
X56007000Y-73787000D02*
X54483000Y-73787000D01*
X54483000Y-73787000D02*
X54483000Y-72771000D01*
X54483000Y-71755000D02*
X54483000Y-70739000D01*
X54483000Y-70739000D02*
X56007000Y-70739000D01*
X56007000Y-70739000D02*
X56007000Y-71755000D01*
X56769000Y-74549000D02*
G75*
G03X56769000Y-74549000I-127000J0D01*
G01*
X55499000Y-74549000D02*
X56515000Y-74549000D01*
X56515000Y-74549000D02*
X56515000Y-76073000D01*
X56515000Y-76073000D02*
X55499000Y-76073000D01*
X54483000Y-76073000D02*
X53467000Y-76073000D01*
X53467000Y-76073000D02*
X53467000Y-74549000D01*
X53467000Y-74549000D02*
X54483000Y-74549000D01*
X134493000Y-95123000D02*
G75*
G03X134493000Y-95123000I-127000J0D01*
G01*
X134366000Y-96266000D02*
X134366000Y-95250000D01*
X134366000Y-95250000D02*
X135890000Y-95250000D01*
X135890000Y-95250000D02*
X135890000Y-96266000D01*
X135890000Y-97282000D02*
X135890000Y-98298000D01*
X135890000Y-98298000D02*
X134366000Y-98298000D01*
X134366000Y-98298000D02*
X134366000Y-97282000D01*
X64516000Y-70485000D02*
G75*
G03X64516000Y-70485000I-127000J0D01*
G01*
X64389000Y-71628000D02*
X64389000Y-70612000D01*
X64389000Y-70612000D02*
X65913000Y-70612000D01*
X65913000Y-70612000D02*
X65913000Y-71628000D01*
X65913000Y-72644000D02*
X65913000Y-73660000D01*
X65913000Y-73660000D02*
X64389000Y-73660000D01*
X64389000Y-73660000D02*
X64389000Y-72644000D01*
X92329000Y-76581000D02*
G75*
G03X92329000Y-76581000I-127000J0D01*
G01*
X92202000Y-77724000D02*
X92202000Y-76708000D01*
X92202000Y-76708000D02*
X93726000Y-76708000D01*
X93726000Y-76708000D02*
X93726000Y-77724000D01*
X93726000Y-78740000D02*
X93726000Y-79756000D01*
X93726000Y-79756000D02*
X92202000Y-79756000D01*
X92202000Y-79756000D02*
X92202000Y-78740000D01*
X104902000Y-67818000D02*
G75*
G03X104902000Y-67818000I-127000J0D01*
G01*
X104775000Y-68961000D02*
X104775000Y-67945000D01*
X104775000Y-67945000D02*
X106299000Y-67945000D01*
X106299000Y-67945000D02*
X106299000Y-68961000D01*
X106299000Y-69977000D02*
X106299000Y-70993000D01*
X106299000Y-70993000D02*
X104775000Y-70993000D01*
X104775000Y-70993000D02*
X104775000Y-69977000D01*
X86868000Y-60452000D02*
G75*
G03X86868000Y-60452000I-127000J0D01*
G01*
X87884000Y-60452000D02*
X86868000Y-60452000D01*
X86868000Y-60452000D02*
X86868000Y-58928000D01*
X86868000Y-58928000D02*
X87884000Y-58928000D01*
X88900000Y-58928000D02*
X89916000Y-58928000D01*
X89916000Y-58928000D02*
X89916000Y-60452000D01*
X89916000Y-60452000D02*
X88900000Y-60452000D01*
X50546000Y-69596000D02*
G75*
G03X50546000Y-69596000I-127000J0D01*
G01*
X50419000Y-70739000D02*
X50419000Y-69723000D01*
X50419000Y-69723000D02*
X51943000Y-69723000D01*
X51943000Y-69723000D02*
X51943000Y-70739000D01*
X51943000Y-71755000D02*
X51943000Y-72771000D01*
X51943000Y-72771000D02*
X50419000Y-72771000D01*
X50419000Y-72771000D02*
X50419000Y-71755000D01*
X110236000Y-57150000D02*
G75*
G03X110236000Y-57150000I-127000J0D01*
G01*
X108966000Y-57150000D02*
X109982000Y-57150000D01*
X109982000Y-57150000D02*
X109982000Y-58674000D01*
X109982000Y-58674000D02*
X108966000Y-58674000D01*
X107950000Y-58674000D02*
X106934000Y-58674000D01*
X106934000Y-58674000D02*
X106934000Y-57150000D01*
X106934000Y-57150000D02*
X107950000Y-57150000D01*
X82042000Y-56896000D02*
G75*
G03X82042000Y-56896000I-127000J0D01*
G01*
X80772000Y-56896000D02*
X81788000Y-56896000D01*
X81788000Y-56896000D02*
X81788000Y-58420000D01*
X81788000Y-58420000D02*
X80772000Y-58420000D01*
X79756000Y-58420000D02*
X78740000Y-58420000D01*
X78740000Y-58420000D02*
X78740000Y-56896000D01*
X78740000Y-56896000D02*
X79756000Y-56896000D01*
D11*
X70537605Y-73914000D02*
G75*
G03X70537605Y-73914000I-179605J0D01*
G01*
X68707000Y-76835000D02*
X70231000Y-76835000D01*
X70231000Y-76835000D02*
X70231000Y-74041000D01*
X70231000Y-74041000D02*
X68707000Y-74041000D01*
X67183000Y-74041000D02*
X65659000Y-74041000D01*
X65659000Y-74041000D02*
X65659000Y-76835000D01*
X65659000Y-76835000D02*
X67183000Y-76835000D01*
X70537605Y-77089000D02*
G75*
G03X70537605Y-77089000I-179605J0D01*
G01*
X68707000Y-80010000D02*
X70231000Y-80010000D01*
X70231000Y-80010000D02*
X70231000Y-77216000D01*
X70231000Y-77216000D02*
X68707000Y-77216000D01*
X67183000Y-77216000D02*
X65659000Y-77216000D01*
X65659000Y-77216000D02*
X65659000Y-80010000D01*
X65659000Y-80010000D02*
X67183000Y-80010000D01*
D12*
X64897000Y-85471000D02*
G75*
G03X64897000Y-85471000I-127000J0D01*
G01*
X64770000Y-86614000D02*
X64770000Y-85598000D01*
X64770000Y-85598000D02*
X66294000Y-85598000D01*
X66294000Y-85598000D02*
X66294000Y-86614000D01*
X66294000Y-87630000D02*
X66294000Y-88646000D01*
X66294000Y-88646000D02*
X64770000Y-88646000D01*
X64770000Y-88646000D02*
X64770000Y-87630000D01*
X82677000Y-90297000D02*
G75*
G03X82677000Y-90297000I-127000J0D01*
G01*
X82550000Y-89154000D02*
X82550000Y-90170000D01*
X82550000Y-90170000D02*
X81026000Y-90170000D01*
X81026000Y-90170000D02*
X81026000Y-89154000D01*
X81026000Y-88138000D02*
X81026000Y-87122000D01*
X81026000Y-87122000D02*
X82550000Y-87122000D01*
X82550000Y-87122000D02*
X82550000Y-88138000D01*
X84709000Y-81153000D02*
G75*
G03X84709000Y-81153000I-127000J0D01*
G01*
X84582000Y-80010000D02*
X84582000Y-81026000D01*
X84582000Y-81026000D02*
X83058000Y-81026000D01*
X83058000Y-81026000D02*
X83058000Y-80010000D01*
X83058000Y-78994000D02*
X83058000Y-77978000D01*
X83058000Y-77978000D02*
X84582000Y-77978000D01*
X84582000Y-77978000D02*
X84582000Y-78994000D01*
X92456000Y-98298000D02*
G75*
G03X92456000Y-98298000I-127000J0D01*
G01*
X91186000Y-98298000D02*
X92202000Y-98298000D01*
X92202000Y-98298000D02*
X92202000Y-99822000D01*
X92202000Y-99822000D02*
X91186000Y-99822000D01*
X90170000Y-99822000D02*
X89154000Y-99822000D01*
X89154000Y-99822000D02*
X89154000Y-98298000D01*
X89154000Y-98298000D02*
X90170000Y-98298000D01*
X85852000Y-99822000D02*
G75*
G03X85852000Y-99822000I-127000J0D01*
G01*
X86868000Y-99822000D02*
X85852000Y-99822000D01*
X85852000Y-99822000D02*
X85852000Y-98298000D01*
X85852000Y-98298000D02*
X86868000Y-98298000D01*
X87884000Y-98298000D02*
X88900000Y-98298000D01*
X88900000Y-98298000D02*
X88900000Y-99822000D01*
X88900000Y-99822000D02*
X87884000Y-99822000D01*
X88392000Y-77851000D02*
G75*
G03X88392000Y-77851000I-127000J0D01*
G01*
X87122000Y-77851000D02*
X88138000Y-77851000D01*
X88138000Y-77851000D02*
X88138000Y-79375000D01*
X88138000Y-79375000D02*
X87122000Y-79375000D01*
X86106000Y-79375000D02*
X85090000Y-79375000D01*
X85090000Y-79375000D02*
X85090000Y-77851000D01*
X85090000Y-77851000D02*
X86106000Y-77851000D01*
X82423000Y-86995000D02*
G75*
G03X82423000Y-86995000I-127000J0D01*
G01*
X82296000Y-85852000D02*
X82296000Y-86868000D01*
X82296000Y-86868000D02*
X80772000Y-86868000D01*
X80772000Y-86868000D02*
X80772000Y-85852000D01*
X80772000Y-84836000D02*
X80772000Y-83820000D01*
X80772000Y-83820000D02*
X82296000Y-83820000D01*
X82296000Y-83820000D02*
X82296000Y-84836000D01*
X132461000Y-75438000D02*
G75*
G03X132461000Y-75438000I-127000J0D01*
G01*
X131191000Y-75438000D02*
X132207000Y-75438000D01*
X132207000Y-75438000D02*
X132207000Y-76962000D01*
X132207000Y-76962000D02*
X131191000Y-76962000D01*
X130175000Y-76962000D02*
X129159000Y-76962000D01*
X129159000Y-76962000D02*
X129159000Y-75438000D01*
X129159000Y-75438000D02*
X130175000Y-75438000D01*
X114046000Y-70612000D02*
G75*
G03X114046000Y-70612000I-127000J0D01*
G01*
X112776000Y-70612000D02*
X113792000Y-70612000D01*
X113792000Y-70612000D02*
X113792000Y-72136000D01*
X113792000Y-72136000D02*
X112776000Y-72136000D01*
X111760000Y-72136000D02*
X110744000Y-72136000D01*
X110744000Y-72136000D02*
X110744000Y-70612000D01*
X110744000Y-70612000D02*
X111760000Y-70612000D01*
X97917000Y-92837000D02*
G75*
G03X97917000Y-92837000I-127000J0D01*
G01*
X97790000Y-91694000D02*
X97790000Y-92710000D01*
X97790000Y-92710000D02*
X96266000Y-92710000D01*
X96266000Y-92710000D02*
X96266000Y-91694000D01*
X96266000Y-90678000D02*
X96266000Y-89662000D01*
X96266000Y-89662000D02*
X97790000Y-89662000D01*
X97790000Y-89662000D02*
X97790000Y-90678000D01*
X137414000Y-79502000D02*
G75*
G03X137414000Y-79502000I-127000J0D01*
G01*
X138430000Y-79502000D02*
X137414000Y-79502000D01*
X137414000Y-79502000D02*
X137414000Y-77978000D01*
X137414000Y-77978000D02*
X138430000Y-77978000D01*
X139446000Y-77978000D02*
X140462000Y-77978000D01*
X140462000Y-77978000D02*
X140462000Y-79502000D01*
X140462000Y-79502000D02*
X139446000Y-79502000D01*
X118872000Y-74676000D02*
G75*
G03X118872000Y-74676000I-127000J0D01*
G01*
X119888000Y-74676000D02*
X118872000Y-74676000D01*
X118872000Y-74676000D02*
X118872000Y-73152000D01*
X118872000Y-73152000D02*
X119888000Y-73152000D01*
X120904000Y-73152000D02*
X121920000Y-73152000D01*
X121920000Y-73152000D02*
X121920000Y-74676000D01*
X121920000Y-74676000D02*
X120904000Y-74676000D01*
X95631000Y-79883000D02*
G75*
G03X95631000Y-79883000I-127000J0D01*
G01*
X95504000Y-78740000D02*
X95504000Y-79756000D01*
X95504000Y-79756000D02*
X93980000Y-79756000D01*
X93980000Y-79756000D02*
X93980000Y-78740000D01*
X93980000Y-77724000D02*
X93980000Y-76708000D01*
X93980000Y-76708000D02*
X95504000Y-76708000D01*
X95504000Y-76708000D02*
X95504000Y-77724000D01*
X84455000Y-95377000D02*
G75*
G03X84455000Y-95377000I-127000J0D01*
G01*
X84328000Y-94234000D02*
X84328000Y-95250000D01*
X84328000Y-95250000D02*
X82804000Y-95250000D01*
X82804000Y-95250000D02*
X82804000Y-94234000D01*
X82804000Y-93218000D02*
X82804000Y-92202000D01*
X82804000Y-92202000D02*
X84328000Y-92202000D01*
X84328000Y-92202000D02*
X84328000Y-93218000D01*
X60325000Y-103632000D02*
G75*
G03X60325000Y-103632000I-127000J0D01*
G01*
X59055000Y-103632000D02*
X60071000Y-103632000D01*
X60071000Y-103632000D02*
X60071000Y-105156000D01*
X60071000Y-105156000D02*
X59055000Y-105156000D01*
X58039000Y-105156000D02*
X57023000Y-105156000D01*
X57023000Y-105156000D02*
X57023000Y-103632000D01*
X57023000Y-103632000D02*
X58039000Y-103632000D01*
X138684000Y-82550000D02*
G75*
G03X138684000Y-82550000I-127000J0D01*
G01*
X137414000Y-82550000D02*
X138430000Y-82550000D01*
X138430000Y-82550000D02*
X138430000Y-84074000D01*
X138430000Y-84074000D02*
X137414000Y-84074000D01*
X136398000Y-84074000D02*
X135382000Y-84074000D01*
X135382000Y-84074000D02*
X135382000Y-82550000D01*
X135382000Y-82550000D02*
X136398000Y-82550000D01*
X138684000Y-80772000D02*
G75*
G03X138684000Y-80772000I-127000J0D01*
G01*
X137414000Y-80772000D02*
X138430000Y-80772000D01*
X138430000Y-80772000D02*
X138430000Y-82296000D01*
X138430000Y-82296000D02*
X137414000Y-82296000D01*
X136398000Y-82296000D02*
X135382000Y-82296000D01*
X135382000Y-82296000D02*
X135382000Y-80772000D01*
X135382000Y-80772000D02*
X136398000Y-80772000D01*
X63373000Y-92837000D02*
G75*
G03X63373000Y-92837000I-127000J0D01*
G01*
X64389000Y-92837000D02*
X63373000Y-92837000D01*
X63373000Y-92837000D02*
X63373000Y-91313000D01*
X63373000Y-91313000D02*
X64389000Y-91313000D01*
X65405000Y-91313000D02*
X66421000Y-91313000D01*
X66421000Y-91313000D02*
X66421000Y-92837000D01*
X66421000Y-92837000D02*
X65405000Y-92837000D01*
D13*
X82412840Y-72181720D02*
X82412840Y-72506840D01*
X82412840Y-72506840D02*
X82913220Y-72506840D01*
X82913220Y-72181720D02*
X82913220Y-72506840D01*
X82412840Y-72181720D02*
X82913220Y-72181720D01*
X82412840Y-71559420D02*
X82412840Y-71709280D01*
X82412840Y-71709280D02*
X82664300Y-71709280D01*
X82664300Y-71559420D02*
X82664300Y-71709280D01*
X82412840Y-71559420D02*
X82664300Y-71559420D01*
X82412840Y-72054720D02*
X82412840Y-72204580D01*
X82412840Y-72204580D02*
X82664300Y-72204580D01*
X82664300Y-72054720D02*
X82664300Y-72204580D01*
X82412840Y-72054720D02*
X82664300Y-72054720D01*
X82412840Y-71683880D02*
X82412840Y-72080120D01*
X82412840Y-72080120D02*
X82588100Y-72080120D01*
X82588100Y-71683880D02*
X82588100Y-72080120D01*
X82412840Y-71683880D02*
X82588100Y-71683880D01*
X80916780Y-72181720D02*
X80916780Y-72506840D01*
X80916780Y-72506840D02*
X81417160Y-72506840D01*
X81417160Y-72181720D02*
X81417160Y-72506840D01*
X80916780Y-72181720D02*
X81417160Y-72181720D01*
X80916780Y-71257160D02*
X80916780Y-71582280D01*
X80916780Y-71582280D02*
X81417160Y-71582280D01*
X81417160Y-71257160D02*
X81417160Y-71582280D01*
X80916780Y-71257160D02*
X81417160Y-71257160D01*
X81165700Y-72054720D02*
X81165700Y-72204580D01*
X81165700Y-72204580D02*
X81417160Y-72204580D01*
X81417160Y-72054720D02*
X81417160Y-72204580D01*
X81165700Y-72054720D02*
X81417160Y-72054720D01*
X81165700Y-71559420D02*
X81165700Y-71709280D01*
X81165700Y-71709280D02*
X81417160Y-71709280D01*
X81417160Y-71559420D02*
X81417160Y-71709280D01*
X81165700Y-71559420D02*
X81417160Y-71559420D01*
X81241900Y-71683880D02*
X81241900Y-72080120D01*
X81241900Y-72080120D02*
X81417160Y-72080120D01*
X81417160Y-71683880D02*
X81417160Y-72080120D01*
X81241900Y-71683880D02*
X81417160Y-71683880D01*
X81915000Y-71782940D02*
X81915000Y-71981060D01*
X81915000Y-71981060D02*
X82113120Y-71981060D01*
X82113120Y-71782940D02*
X82113120Y-71981060D01*
X81915000Y-71782940D02*
X82113120Y-71782940D01*
X82412840Y-71282560D02*
X82412840Y-71582280D01*
X82412840Y-71582280D02*
X82712560Y-71582280D01*
X82712560Y-71282560D02*
X82712560Y-71582280D01*
X82412840Y-71282560D02*
X82712560Y-71282560D01*
X82839560Y-71257160D02*
X82839560Y-71483220D01*
X82839560Y-71483220D02*
X82913220Y-71483220D01*
X82913220Y-71257160D02*
X82913220Y-71483220D01*
X82839560Y-71257160D02*
X82913220Y-71257160D01*
D14*
X82438240Y-72456040D02*
X81391760Y-72456040D01*
X81417160Y-71307960D02*
X82839560Y-71307960D01*
D15*
X82835202Y-71432420D02*
G75*
G03X82835202Y-71432420I-71842J0D01*
G01*
D14*
X82913220Y-71534020D02*
G75*
G03X82913220Y-72229980I0J-347980D01*
G01*
X80916780Y-72229980D02*
G75*
G03X80916780Y-71534020I0J347980D01*
G01*
D13*
X80055720Y-84592160D02*
X80380840Y-84592160D01*
X80380840Y-84592160D02*
X80380840Y-84091780D01*
X80055720Y-84091780D02*
X80380840Y-84091780D01*
X80055720Y-84592160D02*
X80055720Y-84091780D01*
X79433420Y-84592160D02*
X79583280Y-84592160D01*
X79583280Y-84592160D02*
X79583280Y-84340700D01*
X79433420Y-84340700D02*
X79583280Y-84340700D01*
X79433420Y-84592160D02*
X79433420Y-84340700D01*
X79928720Y-84592160D02*
X80078580Y-84592160D01*
X80078580Y-84592160D02*
X80078580Y-84340700D01*
X79928720Y-84340700D02*
X80078580Y-84340700D01*
X79928720Y-84592160D02*
X79928720Y-84340700D01*
X79557880Y-84592160D02*
X79954120Y-84592160D01*
X79954120Y-84592160D02*
X79954120Y-84416900D01*
X79557880Y-84416900D02*
X79954120Y-84416900D01*
X79557880Y-84592160D02*
X79557880Y-84416900D01*
X80055720Y-86088220D02*
X80380840Y-86088220D01*
X80380840Y-86088220D02*
X80380840Y-85587840D01*
X80055720Y-85587840D02*
X80380840Y-85587840D01*
X80055720Y-86088220D02*
X80055720Y-85587840D01*
X79131160Y-86088220D02*
X79456280Y-86088220D01*
X79456280Y-86088220D02*
X79456280Y-85587840D01*
X79131160Y-85587840D02*
X79456280Y-85587840D01*
X79131160Y-86088220D02*
X79131160Y-85587840D01*
X79928720Y-85839300D02*
X80078580Y-85839300D01*
X80078580Y-85839300D02*
X80078580Y-85587840D01*
X79928720Y-85587840D02*
X80078580Y-85587840D01*
X79928720Y-85839300D02*
X79928720Y-85587840D01*
X79433420Y-85839300D02*
X79583280Y-85839300D01*
X79583280Y-85839300D02*
X79583280Y-85587840D01*
X79433420Y-85587840D02*
X79583280Y-85587840D01*
X79433420Y-85839300D02*
X79433420Y-85587840D01*
X79557880Y-85763100D02*
X79954120Y-85763100D01*
X79954120Y-85763100D02*
X79954120Y-85587840D01*
X79557880Y-85587840D02*
X79954120Y-85587840D01*
X79557880Y-85763100D02*
X79557880Y-85587840D01*
X79656940Y-85090000D02*
X79855060Y-85090000D01*
X79855060Y-85090000D02*
X79855060Y-84891880D01*
X79656940Y-84891880D02*
X79855060Y-84891880D01*
X79656940Y-85090000D02*
X79656940Y-84891880D01*
X79156560Y-84592160D02*
X79456280Y-84592160D01*
X79456280Y-84592160D02*
X79456280Y-84292440D01*
X79156560Y-84292440D02*
X79456280Y-84292440D01*
X79156560Y-84592160D02*
X79156560Y-84292440D01*
X79131160Y-84165440D02*
X79357220Y-84165440D01*
X79357220Y-84165440D02*
X79357220Y-84091780D01*
X79131160Y-84091780D02*
X79357220Y-84091780D01*
X79131160Y-84165440D02*
X79131160Y-84091780D01*
D14*
X80330040Y-84566760D02*
X80330040Y-85613240D01*
X79181960Y-85587840D02*
X79181960Y-84165440D01*
D15*
X79378262Y-84241640D02*
G75*
G03X79378262Y-84241640I-71842J0D01*
G01*
D14*
X79408020Y-84091780D02*
G75*
G03X80103980Y-84091780I347980J0D01*
G01*
X80103980Y-86088220D02*
G75*
G03X79408020Y-86088220I-347980J0D01*
G01*
D13*
X95239840Y-98343720D02*
X95239840Y-98668840D01*
X95239840Y-98668840D02*
X95740220Y-98668840D01*
X95740220Y-98343720D02*
X95740220Y-98668840D01*
X95239840Y-98343720D02*
X95740220Y-98343720D01*
X95239840Y-97721420D02*
X95239840Y-97871280D01*
X95239840Y-97871280D02*
X95491300Y-97871280D01*
X95491300Y-97721420D02*
X95491300Y-97871280D01*
X95239840Y-97721420D02*
X95491300Y-97721420D01*
X95239840Y-98216720D02*
X95239840Y-98366580D01*
X95239840Y-98366580D02*
X95491300Y-98366580D01*
X95491300Y-98216720D02*
X95491300Y-98366580D01*
X95239840Y-98216720D02*
X95491300Y-98216720D01*
X95239840Y-97845880D02*
X95239840Y-98242120D01*
X95239840Y-98242120D02*
X95415100Y-98242120D01*
X95415100Y-97845880D02*
X95415100Y-98242120D01*
X95239840Y-97845880D02*
X95415100Y-97845880D01*
X93743780Y-98343720D02*
X93743780Y-98668840D01*
X93743780Y-98668840D02*
X94244160Y-98668840D01*
X94244160Y-98343720D02*
X94244160Y-98668840D01*
X93743780Y-98343720D02*
X94244160Y-98343720D01*
X93743780Y-97419160D02*
X93743780Y-97744280D01*
X93743780Y-97744280D02*
X94244160Y-97744280D01*
X94244160Y-97419160D02*
X94244160Y-97744280D01*
X93743780Y-97419160D02*
X94244160Y-97419160D01*
X93992700Y-98216720D02*
X93992700Y-98366580D01*
X93992700Y-98366580D02*
X94244160Y-98366580D01*
X94244160Y-98216720D02*
X94244160Y-98366580D01*
X93992700Y-98216720D02*
X94244160Y-98216720D01*
X93992700Y-97721420D02*
X93992700Y-97871280D01*
X93992700Y-97871280D02*
X94244160Y-97871280D01*
X94244160Y-97721420D02*
X94244160Y-97871280D01*
X93992700Y-97721420D02*
X94244160Y-97721420D01*
X94068900Y-97845880D02*
X94068900Y-98242120D01*
X94068900Y-98242120D02*
X94244160Y-98242120D01*
X94244160Y-97845880D02*
X94244160Y-98242120D01*
X94068900Y-97845880D02*
X94244160Y-97845880D01*
X94742000Y-97944940D02*
X94742000Y-98143060D01*
X94742000Y-98143060D02*
X94940120Y-98143060D01*
X94940120Y-97944940D02*
X94940120Y-98143060D01*
X94742000Y-97944940D02*
X94940120Y-97944940D01*
X95239840Y-97444560D02*
X95239840Y-97744280D01*
X95239840Y-97744280D02*
X95539560Y-97744280D01*
X95539560Y-97444560D02*
X95539560Y-97744280D01*
X95239840Y-97444560D02*
X95539560Y-97444560D01*
X95666560Y-97419160D02*
X95666560Y-97645220D01*
X95666560Y-97645220D02*
X95740220Y-97645220D01*
X95740220Y-97419160D02*
X95740220Y-97645220D01*
X95666560Y-97419160D02*
X95740220Y-97419160D01*
D14*
X95265240Y-98618040D02*
X94218760Y-98618040D01*
X94244160Y-97469960D02*
X95666560Y-97469960D01*
D15*
X95662202Y-97594420D02*
G75*
G03X95662202Y-97594420I-71842J0D01*
G01*
D14*
X95740220Y-97696020D02*
G75*
G03X95740220Y-98391980I0J-347980D01*
G01*
X93743780Y-98391980D02*
G75*
G03X93743780Y-97696020I0J347980D01*
G01*
D13*
X100629720Y-82052160D02*
X100954840Y-82052160D01*
X100954840Y-82052160D02*
X100954840Y-81551780D01*
X100629720Y-81551780D02*
X100954840Y-81551780D01*
X100629720Y-82052160D02*
X100629720Y-81551780D01*
X100007420Y-82052160D02*
X100157280Y-82052160D01*
X100157280Y-82052160D02*
X100157280Y-81800700D01*
X100007420Y-81800700D02*
X100157280Y-81800700D01*
X100007420Y-82052160D02*
X100007420Y-81800700D01*
X100502720Y-82052160D02*
X100652580Y-82052160D01*
X100652580Y-82052160D02*
X100652580Y-81800700D01*
X100502720Y-81800700D02*
X100652580Y-81800700D01*
X100502720Y-82052160D02*
X100502720Y-81800700D01*
X100131880Y-82052160D02*
X100528120Y-82052160D01*
X100528120Y-82052160D02*
X100528120Y-81876900D01*
X100131880Y-81876900D02*
X100528120Y-81876900D01*
X100131880Y-82052160D02*
X100131880Y-81876900D01*
X100629720Y-83548220D02*
X100954840Y-83548220D01*
X100954840Y-83548220D02*
X100954840Y-83047840D01*
X100629720Y-83047840D02*
X100954840Y-83047840D01*
X100629720Y-83548220D02*
X100629720Y-83047840D01*
X99705160Y-83548220D02*
X100030280Y-83548220D01*
X100030280Y-83548220D02*
X100030280Y-83047840D01*
X99705160Y-83047840D02*
X100030280Y-83047840D01*
X99705160Y-83548220D02*
X99705160Y-83047840D01*
X100502720Y-83299300D02*
X100652580Y-83299300D01*
X100652580Y-83299300D02*
X100652580Y-83047840D01*
X100502720Y-83047840D02*
X100652580Y-83047840D01*
X100502720Y-83299300D02*
X100502720Y-83047840D01*
X100007420Y-83299300D02*
X100157280Y-83299300D01*
X100157280Y-83299300D02*
X100157280Y-83047840D01*
X100007420Y-83047840D02*
X100157280Y-83047840D01*
X100007420Y-83299300D02*
X100007420Y-83047840D01*
X100131880Y-83223100D02*
X100528120Y-83223100D01*
X100528120Y-83223100D02*
X100528120Y-83047840D01*
X100131880Y-83047840D02*
X100528120Y-83047840D01*
X100131880Y-83223100D02*
X100131880Y-83047840D01*
X100230940Y-82550000D02*
X100429060Y-82550000D01*
X100429060Y-82550000D02*
X100429060Y-82351880D01*
X100230940Y-82351880D02*
X100429060Y-82351880D01*
X100230940Y-82550000D02*
X100230940Y-82351880D01*
X99730560Y-82052160D02*
X100030280Y-82052160D01*
X100030280Y-82052160D02*
X100030280Y-81752440D01*
X99730560Y-81752440D02*
X100030280Y-81752440D01*
X99730560Y-82052160D02*
X99730560Y-81752440D01*
X99705160Y-81625440D02*
X99931220Y-81625440D01*
X99931220Y-81625440D02*
X99931220Y-81551780D01*
X99705160Y-81551780D02*
X99931220Y-81551780D01*
X99705160Y-81625440D02*
X99705160Y-81551780D01*
D14*
X100904040Y-82026760D02*
X100904040Y-83073240D01*
X99755960Y-83047840D02*
X99755960Y-81625440D01*
D15*
X99952262Y-81701640D02*
G75*
G03X99952262Y-81701640I-71842J0D01*
G01*
D14*
X99982020Y-81551780D02*
G75*
G03X100677980Y-81551780I347980J0D01*
G01*
X100677980Y-83548220D02*
G75*
G03X99982020Y-83548220I-347980J0D01*
G01*
D13*
X142737840Y-108503720D02*
X142737840Y-108828840D01*
X142737840Y-108828840D02*
X143238220Y-108828840D01*
X143238220Y-108503720D02*
X143238220Y-108828840D01*
X142737840Y-108503720D02*
X143238220Y-108503720D01*
X142737840Y-107881420D02*
X142737840Y-108031280D01*
X142737840Y-108031280D02*
X142989300Y-108031280D01*
X142989300Y-107881420D02*
X142989300Y-108031280D01*
X142737840Y-107881420D02*
X142989300Y-107881420D01*
X142737840Y-108376720D02*
X142737840Y-108526580D01*
X142737840Y-108526580D02*
X142989300Y-108526580D01*
X142989300Y-108376720D02*
X142989300Y-108526580D01*
X142737840Y-108376720D02*
X142989300Y-108376720D01*
X142737840Y-108005880D02*
X142737840Y-108402120D01*
X142737840Y-108402120D02*
X142913100Y-108402120D01*
X142913100Y-108005880D02*
X142913100Y-108402120D01*
X142737840Y-108005880D02*
X142913100Y-108005880D01*
X141241780Y-108503720D02*
X141241780Y-108828840D01*
X141241780Y-108828840D02*
X141742160Y-108828840D01*
X141742160Y-108503720D02*
X141742160Y-108828840D01*
X141241780Y-108503720D02*
X141742160Y-108503720D01*
X141241780Y-107579160D02*
X141241780Y-107904280D01*
X141241780Y-107904280D02*
X141742160Y-107904280D01*
X141742160Y-107579160D02*
X141742160Y-107904280D01*
X141241780Y-107579160D02*
X141742160Y-107579160D01*
X141490700Y-108376720D02*
X141490700Y-108526580D01*
X141490700Y-108526580D02*
X141742160Y-108526580D01*
X141742160Y-108376720D02*
X141742160Y-108526580D01*
X141490700Y-108376720D02*
X141742160Y-108376720D01*
X141490700Y-107881420D02*
X141490700Y-108031280D01*
X141490700Y-108031280D02*
X141742160Y-108031280D01*
X141742160Y-107881420D02*
X141742160Y-108031280D01*
X141490700Y-107881420D02*
X141742160Y-107881420D01*
X141566900Y-108005880D02*
X141566900Y-108402120D01*
X141566900Y-108402120D02*
X141742160Y-108402120D01*
X141742160Y-108005880D02*
X141742160Y-108402120D01*
X141566900Y-108005880D02*
X141742160Y-108005880D01*
X142240000Y-108104940D02*
X142240000Y-108303060D01*
X142240000Y-108303060D02*
X142438120Y-108303060D01*
X142438120Y-108104940D02*
X142438120Y-108303060D01*
X142240000Y-108104940D02*
X142438120Y-108104940D01*
X142737840Y-107604560D02*
X142737840Y-107904280D01*
X142737840Y-107904280D02*
X143037560Y-107904280D01*
X143037560Y-107604560D02*
X143037560Y-107904280D01*
X142737840Y-107604560D02*
X143037560Y-107604560D01*
X143164560Y-107579160D02*
X143164560Y-107805220D01*
X143164560Y-107805220D02*
X143238220Y-107805220D01*
X143238220Y-107579160D02*
X143238220Y-107805220D01*
X143164560Y-107579160D02*
X143238220Y-107579160D01*
D14*
X142763240Y-108778040D02*
X141716760Y-108778040D01*
X141742160Y-107629960D02*
X143164560Y-107629960D01*
D15*
X143160202Y-107754420D02*
G75*
G03X143160202Y-107754420I-71842J0D01*
G01*
D14*
X143238220Y-107856020D02*
G75*
G03X143238220Y-108551980I0J-347980D01*
G01*
X141241780Y-108551980D02*
G75*
G03X141241780Y-107856020I0J347980D01*
G01*
D11*
X47371000Y-78740000D02*
X47371000Y-90932000D01*
X47371000Y-90932000D02*
X64389000Y-90932000D01*
X64389000Y-90932000D02*
X64389000Y-78740000D01*
X64389000Y-78740000D02*
X47371000Y-78740000D01*
D16*
X66326000Y-69755000D02*
X66326000Y-73755000D01*
X66326000Y-73755000D02*
X70326000Y-73755000D01*
X70326000Y-73755000D02*
X70326000Y-69755000D01*
X70326000Y-69755000D02*
X66326000Y-69755000D01*
X68439000Y-86522000D02*
X68439000Y-87722000D01*
X66689000Y-87722000D02*
X66689000Y-86522000D01*
X82409000Y-79918000D02*
X82409000Y-81118000D01*
X80659000Y-81118000D02*
X80659000Y-79918000D01*
X50102000Y-67230000D02*
X50102000Y-57230000D01*
X50102000Y-57230000D02*
X58102000Y-57230000D01*
X58102000Y-57230000D02*
X58102000Y-67230000D01*
X58102000Y-67230000D02*
X50102000Y-67230000D01*
X72898000Y-94488000D02*
X75438000Y-94488000D01*
X75438000Y-94488000D02*
X75438000Y-97028000D01*
X72898000Y-97028000D02*
X80518000Y-97028000D01*
X80518000Y-97028000D02*
X80518000Y-91948000D01*
X80518000Y-91948000D02*
X75438000Y-91948000D01*
X72898000Y-97028000D02*
X72898000Y-94488000D01*
X72898000Y-91948000D02*
X72898000Y-94488000D01*
X75438000Y-91948000D02*
X72898000Y-91948000D01*
X101600000Y-90170000D02*
X101600000Y-92710000D01*
X101600000Y-92710000D02*
X104140000Y-92710000D01*
X104140000Y-92710000D02*
X104140000Y-90170000D01*
X104140000Y-90170000D02*
X101600000Y-90170000D01*
X101600000Y-85090000D02*
X101600000Y-87630000D01*
X101600000Y-87630000D02*
X104140000Y-87630000D01*
X104140000Y-87630000D02*
X104140000Y-85090000D01*
X104140000Y-85090000D02*
X101600000Y-85090000D01*
X101600000Y-82550000D02*
X101600000Y-85090000D01*
X101600000Y-85090000D02*
X104140000Y-85090000D01*
X104140000Y-85090000D02*
X104140000Y-82550000D01*
X104140000Y-82550000D02*
X101600000Y-82550000D01*
X101600000Y-100330000D02*
X101600000Y-102870000D01*
X101600000Y-102870000D02*
X104140000Y-102870000D01*
X104140000Y-102870000D02*
X104140000Y-100330000D01*
X104140000Y-100330000D02*
X101600000Y-100330000D01*
X101600000Y-97790000D02*
X101600000Y-100330000D01*
X101600000Y-100330000D02*
X104140000Y-100330000D01*
X104140000Y-100330000D02*
X104140000Y-97790000D01*
X104140000Y-97790000D02*
X101600000Y-97790000D01*
X101600000Y-95250000D02*
X101600000Y-97790000D01*
X101600000Y-97790000D02*
X104140000Y-97790000D01*
X104140000Y-97790000D02*
X104140000Y-95250000D01*
X104140000Y-95250000D02*
X101600000Y-95250000D01*
X101600000Y-92710000D02*
X101600000Y-95250000D01*
X101600000Y-95250000D02*
X104140000Y-95250000D01*
X104140000Y-95250000D02*
X104140000Y-92710000D01*
X104140000Y-92710000D02*
X101600000Y-92710000D01*
X86360000Y-73660000D02*
X86360000Y-76200000D01*
X86360000Y-76200000D02*
X88900000Y-76200000D01*
X88900000Y-76200000D02*
X88900000Y-73660000D01*
X88900000Y-73660000D02*
X86360000Y-73660000D01*
X88900000Y-73660000D02*
X88900000Y-76200000D01*
X88900000Y-76200000D02*
X91440000Y-76200000D01*
X91440000Y-76200000D02*
X91440000Y-73660000D01*
X91440000Y-73660000D02*
X88900000Y-73660000D01*
X91440000Y-73660000D02*
X91440000Y-76200000D01*
X91440000Y-76200000D02*
X93980000Y-76200000D01*
X93980000Y-76200000D02*
X93980000Y-73660000D01*
X93980000Y-73660000D02*
X91440000Y-73660000D01*
X93980000Y-73660000D02*
X93980000Y-76200000D01*
X93980000Y-76200000D02*
X96520000Y-76200000D01*
X96520000Y-76200000D02*
X96520000Y-73660000D01*
X96520000Y-73660000D02*
X93980000Y-73660000D01*
X96520000Y-73660000D02*
X96520000Y-76200000D01*
X96520000Y-76200000D02*
X99060000Y-76200000D01*
X99060000Y-76200000D02*
X99060000Y-73660000D01*
X99060000Y-73660000D02*
X96520000Y-73660000D01*
X99060000Y-73660000D02*
X99060000Y-76200000D01*
X99060000Y-76200000D02*
X101600000Y-76200000D01*
X101600000Y-76200000D02*
X101600000Y-73660000D01*
X101600000Y-73660000D02*
X99060000Y-73660000D01*
X78832000Y-107301000D02*
X77632000Y-107301000D01*
X77632000Y-105551000D02*
X78832000Y-105551000D01*
X58258000Y-69455000D02*
X57058000Y-69455000D01*
X57058000Y-67705000D02*
X58258000Y-67705000D01*
X67726000Y-65673000D02*
X68926000Y-65673000D01*
X68926000Y-67423000D02*
X67726000Y-67423000D01*
X90057000Y-78832000D02*
X90057000Y-77632000D01*
X91807000Y-77632000D02*
X91807000Y-78832000D01*
X54088000Y-70774000D02*
X54088000Y-71974000D01*
X52338000Y-71974000D02*
X52338000Y-70774000D01*
X52818000Y-74203000D02*
X52818000Y-75403000D01*
X51068000Y-75403000D02*
X51068000Y-74203000D01*
X80631000Y-88046000D02*
X80631000Y-89246000D01*
X78881000Y-89246000D02*
X78881000Y-88046000D01*
X78832000Y-72757000D02*
X77632000Y-72757000D01*
X77632000Y-71007000D02*
X78832000Y-71007000D01*
X69250000Y-80913000D02*
X70450000Y-80913000D01*
X70450000Y-82663000D02*
X69250000Y-82663000D01*
X69250000Y-83199000D02*
X70450000Y-83199000D01*
X70450000Y-84949000D02*
X69250000Y-84949000D01*
X83453000Y-104486000D02*
X83453000Y-103286000D01*
X85203000Y-103286000D02*
X85203000Y-104486000D01*
X78345000Y-87030000D02*
X78345000Y-88230000D01*
X76595000Y-88230000D02*
X76595000Y-87030000D01*
X93105000Y-96104000D02*
X93105000Y-94904000D01*
X94855000Y-94904000D02*
X94855000Y-96104000D01*
X98390000Y-82155000D02*
X97190000Y-82155000D01*
X97190000Y-80405000D02*
X98390000Y-80405000D01*
X98390000Y-84187000D02*
X97190000Y-84187000D01*
X97190000Y-82437000D02*
X98390000Y-82437000D01*
X129759000Y-102856000D02*
X128559000Y-102856000D01*
X128559000Y-101106000D02*
X129759000Y-101106000D01*
D17*
X66675000Y-57404000D02*
X66675000Y-57404000D01*
X66675000Y-57277000D02*
X66675000Y-57404000D01*
X66675000Y-57404000D02*
X66675000Y-57277000D01*
X60452000Y-64262000D02*
X66675000Y-64262000D01*
X66675000Y-64262000D02*
X66675000Y-60706000D01*
X60452000Y-64262000D02*
X58928000Y-64262000D01*
X58928000Y-64262000D02*
X58928000Y-64262000D01*
X58928000Y-64262000D02*
X58928000Y-64262000D01*
X58928000Y-64262000D02*
X58674000Y-64262000D01*
X58674000Y-64262000D02*
X58674000Y-64262000D01*
X58674000Y-64262000D02*
X58674000Y-64262000D01*
X66675000Y-60706000D02*
X66675000Y-57277000D01*
X66675000Y-57277000D02*
X58674000Y-57277000D01*
X58674000Y-57277000D02*
X58674000Y-64262000D01*
X77597000Y-98044000D02*
X77597000Y-98044000D01*
X77597000Y-97917000D02*
X77597000Y-98044000D01*
X77597000Y-98044000D02*
X77597000Y-97917000D01*
X71374000Y-104902000D02*
X77597000Y-104902000D01*
X77597000Y-104902000D02*
X77597000Y-101346000D01*
X71374000Y-104902000D02*
X69850000Y-104902000D01*
X69850000Y-104902000D02*
X69850000Y-104902000D01*
X69850000Y-104902000D02*
X69850000Y-104902000D01*
X69850000Y-104902000D02*
X69596000Y-104902000D01*
X69596000Y-104902000D02*
X69596000Y-104902000D01*
X69596000Y-104902000D02*
X69596000Y-104902000D01*
X77597000Y-101346000D02*
X77597000Y-97917000D01*
X77597000Y-97917000D02*
X69596000Y-97917000D01*
X69596000Y-97917000D02*
X69596000Y-104902000D01*
D11*
X129921000Y-93472000D02*
X133604000Y-93472000D01*
X133604000Y-93472000D02*
X133604000Y-91440000D01*
X133604000Y-91440000D02*
X129921000Y-91440000D01*
X129921000Y-96012000D02*
X133604000Y-96012000D01*
X133604000Y-96012000D02*
X133604000Y-93980000D01*
X133604000Y-93980000D02*
X129921000Y-93980000D01*
X129921000Y-98552000D02*
X133604000Y-98552000D01*
X133604000Y-98552000D02*
X133604000Y-96520000D01*
X133604000Y-96520000D02*
X129921000Y-96520000D01*
X129921000Y-100330000D02*
X129921000Y-89662000D01*
X129921000Y-89662000D02*
X119761000Y-89662000D01*
X119761000Y-89662000D02*
X119761000Y-100330000D01*
X119761000Y-100330000D02*
X129921000Y-100330000D01*
D18*
X129794000Y-75184000D02*
X129794000Y-74422000D01*
X129794000Y-74422000D02*
X131318000Y-74422000D01*
X131318000Y-74422000D02*
X131318000Y-75184000D01*
X128270000Y-64008000D02*
X132842000Y-64008000D01*
X132842000Y-64008000D02*
X132842000Y-75184000D01*
X132842000Y-75184000D02*
X128270000Y-75184000D01*
X128270000Y-75184000D02*
X128270000Y-64008000D01*
X104140000Y-70104000D02*
X103378000Y-70104000D01*
X103378000Y-70104000D02*
X103378000Y-68580000D01*
X103378000Y-68580000D02*
X104140000Y-68580000D01*
X92964000Y-71628000D02*
X92964000Y-67056000D01*
X92964000Y-67056000D02*
X104140000Y-67056000D01*
X104140000Y-67056000D02*
X104140000Y-71628000D01*
X104140000Y-71628000D02*
X92964000Y-71628000D01*
X139446000Y-66548000D02*
X139446000Y-67310000D01*
X139446000Y-67310000D02*
X137922000Y-67310000D01*
X137922000Y-67310000D02*
X137922000Y-66548000D01*
X140970000Y-77724000D02*
X136398000Y-77724000D01*
X136398000Y-77724000D02*
X136398000Y-66548000D01*
X136398000Y-66548000D02*
X140970000Y-66548000D01*
X140970000Y-66548000D02*
X140970000Y-77724000D01*
X95504000Y-60452000D02*
X96266000Y-60452000D01*
X96266000Y-60452000D02*
X96266000Y-61976000D01*
X96266000Y-61976000D02*
X95504000Y-61976000D01*
X106680000Y-58928000D02*
X106680000Y-63500000D01*
X106680000Y-63500000D02*
X95504000Y-63500000D01*
X95504000Y-63500000D02*
X95504000Y-58928000D01*
X95504000Y-58928000D02*
X106680000Y-58928000D01*
X89154000Y-61214000D02*
X89154000Y-61976000D01*
X89154000Y-61976000D02*
X87630000Y-61976000D01*
X87630000Y-61976000D02*
X87630000Y-61214000D01*
X90678000Y-72390000D02*
X86106000Y-72390000D01*
X86106000Y-72390000D02*
X86106000Y-61214000D01*
X86106000Y-61214000D02*
X90678000Y-61214000D01*
X90678000Y-61214000D02*
X90678000Y-72390000D01*
X111506000Y-70358000D02*
X111506000Y-69596000D01*
X111506000Y-69596000D02*
X113030000Y-69596000D01*
X113030000Y-69596000D02*
X113030000Y-70358000D01*
X109982000Y-59182000D02*
X114554000Y-59182000D01*
X114554000Y-59182000D02*
X114554000Y-70358000D01*
X114554000Y-70358000D02*
X109982000Y-70358000D01*
X109982000Y-70358000D02*
X109982000Y-59182000D01*
X79502000Y-69850000D02*
X79502000Y-69088000D01*
X79502000Y-69088000D02*
X81026000Y-69088000D01*
X81026000Y-69088000D02*
X81026000Y-69850000D01*
X77978000Y-58674000D02*
X82550000Y-58674000D01*
X82550000Y-58674000D02*
X82550000Y-69850000D01*
X82550000Y-69850000D02*
X77978000Y-69850000D01*
X77978000Y-69850000D02*
X77978000Y-58674000D01*
X121158000Y-61722000D02*
X121158000Y-62484000D01*
X121158000Y-62484000D02*
X119634000Y-62484000D01*
X119634000Y-62484000D02*
X119634000Y-61722000D01*
X122682000Y-72898000D02*
X118110000Y-72898000D01*
X118110000Y-72898000D02*
X118110000Y-61722000D01*
X118110000Y-61722000D02*
X122682000Y-61722000D01*
X122682000Y-61722000D02*
X122682000Y-72898000D01*
D19*
X94411800Y-81610200D02*
X94411800Y-91617800D01*
X94411800Y-91617800D02*
X84404200Y-91617800D01*
X84404200Y-82092800D02*
X84404200Y-91617800D01*
X84886800Y-81610200D02*
X94411800Y-81610200D01*
X84404200Y-82092800D02*
X84886800Y-81610200D01*
D18*
X86233000Y-82804000D02*
G75*
G03X86233000Y-82804000I-635000J0D01*
G01*
D16*
X147322000Y-92798000D02*
X160122000Y-92798000D01*
X160122000Y-92798000D02*
X160122000Y-100398000D01*
X160122000Y-100398000D02*
X147322000Y-100398000D01*
X145722000Y-90998000D02*
X147322000Y-90998000D01*
X147322000Y-90998000D02*
X147322000Y-102198000D01*
X147322000Y-102198000D02*
X145722000Y-102198000D01*
X139122000Y-84398000D02*
X145722000Y-90998000D01*
X145722000Y-90998000D02*
X145722000Y-93598000D01*
X112722000Y-84398000D02*
X112722000Y-108798000D01*
X112722000Y-108798000D02*
X139122000Y-108798000D01*
X139122000Y-108798000D02*
X145722000Y-102198000D01*
X145722000Y-102198000D02*
X145722000Y-93598000D01*
X139122000Y-84398000D02*
X112722000Y-84398000D01*
D20*
X86055200Y-94162880D02*
X92252800Y-94162880D01*
X92252800Y-97861120D02*
X86055200Y-97861120D01*
D16*
X87414000Y-104840000D02*
X85814000Y-104840000D01*
X87414000Y-103040000D02*
X85814000Y-103040000D01*
X85814000Y-103040000D02*
X85814000Y-105240000D01*
X85814000Y-105240000D02*
X87414000Y-105240000D01*
X87414000Y-105240000D02*
X87414000Y-103040000D01*
X147650000Y-58812000D02*
G75*
G03X147650000Y-58812000I-1600000J0D01*
G01*
X147650000Y-62312000D02*
G75*
G03X147650000Y-62312000I-1600000J0D01*
G01*
X147650000Y-65812000D02*
G75*
G03X147650000Y-65812000I-1600000J0D01*
G01*
X147650000Y-69312000D02*
G75*
G03X147650000Y-69312000I-1600000J0D01*
G01*
X147650000Y-72812000D02*
G75*
G03X147650000Y-72812000I-1600000J0D01*
G01*
X147650000Y-76312000D02*
G75*
G03X147650000Y-76312000I-1600000J0D01*
G01*
X147650000Y-79812000D02*
G75*
G03X147650000Y-79812000I-1600000J0D01*
G01*
X147650000Y-83312000D02*
G75*
G03X147650000Y-83312000I-1600000J0D01*
G01*
X149750000Y-60562000D02*
X143250000Y-60562000D01*
X149750000Y-64062000D02*
X143250000Y-64062000D01*
X149750000Y-67562000D02*
X143250000Y-67562000D01*
X149750000Y-71062000D02*
X143250000Y-71062000D01*
X149750000Y-74562000D02*
X143250000Y-74562000D01*
X149750000Y-78062000D02*
X143250000Y-78062000D01*
X143250000Y-81562000D02*
X149750000Y-81562000D01*
X149750000Y-57062000D02*
X149750000Y-85062000D01*
X143250000Y-57062000D02*
X149750000Y-57062000D01*
X143250000Y-85062000D02*
X143250000Y-57062000D01*
X149750000Y-85062000D02*
X143250000Y-85062000D01*
X89368000Y-53848000D02*
G75*
G03X89368000Y-53848000I-1600000J0D01*
G01*
X92868000Y-53848000D02*
G75*
G03X92868000Y-53848000I-1600000J0D01*
G01*
X96368000Y-53848000D02*
G75*
G03X96368000Y-53848000I-1600000J0D01*
G01*
X99868000Y-53848000D02*
G75*
G03X99868000Y-53848000I-1600000J0D01*
G01*
X103368000Y-53848000D02*
G75*
G03X103368000Y-53848000I-1600000J0D01*
G01*
X106868000Y-53848000D02*
G75*
G03X106868000Y-53848000I-1600000J0D01*
G01*
X110368000Y-53848000D02*
G75*
G03X110368000Y-53848000I-1600000J0D01*
G01*
X113868000Y-53848000D02*
G75*
G03X113868000Y-53848000I-1600000J0D01*
G01*
X89518000Y-50148000D02*
X89518000Y-56648000D01*
X93018000Y-50148000D02*
X93018000Y-56648000D01*
X96518000Y-50148000D02*
X96518000Y-56648000D01*
X100018000Y-50148000D02*
X100018000Y-56648000D01*
X103518000Y-50148000D02*
X103518000Y-56648000D01*
X107018000Y-50148000D02*
X107018000Y-56648000D01*
X110518000Y-56648000D02*
X110518000Y-50148000D01*
X86018000Y-50148000D02*
X114018000Y-50148000D01*
X86018000Y-56648000D02*
X86018000Y-50148000D01*
X114018000Y-56648000D02*
X86018000Y-56648000D01*
X114018000Y-50148000D02*
X114018000Y-56648000D01*
X60158000Y-53848000D02*
G75*
G03X60158000Y-53848000I-1600000J0D01*
G01*
X63658000Y-53848000D02*
G75*
G03X63658000Y-53848000I-1600000J0D01*
G01*
X67158000Y-53848000D02*
G75*
G03X67158000Y-53848000I-1600000J0D01*
G01*
X70658000Y-53848000D02*
G75*
G03X70658000Y-53848000I-1600000J0D01*
G01*
X74158000Y-53848000D02*
G75*
G03X74158000Y-53848000I-1600000J0D01*
G01*
X77658000Y-53848000D02*
G75*
G03X77658000Y-53848000I-1600000J0D01*
G01*
X81158000Y-53848000D02*
G75*
G03X81158000Y-53848000I-1600000J0D01*
G01*
X84658000Y-53848000D02*
G75*
G03X84658000Y-53848000I-1600000J0D01*
G01*
X60308000Y-50148000D02*
X60308000Y-56648000D01*
X63808000Y-50148000D02*
X63808000Y-56648000D01*
X67308000Y-50148000D02*
X67308000Y-56648000D01*
X70808000Y-50148000D02*
X70808000Y-56648000D01*
X74308000Y-50148000D02*
X74308000Y-56648000D01*
X77808000Y-50148000D02*
X77808000Y-56648000D01*
X81308000Y-56648000D02*
X81308000Y-50148000D01*
X56808000Y-50148000D02*
X84808000Y-50148000D01*
X56808000Y-56648000D02*
X56808000Y-50148000D01*
X84808000Y-56648000D02*
X56808000Y-56648000D01*
X84808000Y-50148000D02*
X84808000Y-56648000D01*
X118578000Y-53848000D02*
G75*
G03X118578000Y-53848000I-1600000J0D01*
G01*
X122078000Y-53848000D02*
G75*
G03X122078000Y-53848000I-1600000J0D01*
G01*
X125578000Y-53848000D02*
G75*
G03X125578000Y-53848000I-1600000J0D01*
G01*
X129078000Y-53848000D02*
G75*
G03X129078000Y-53848000I-1600000J0D01*
G01*
X132578000Y-53848000D02*
G75*
G03X132578000Y-53848000I-1600000J0D01*
G01*
X136078000Y-53848000D02*
G75*
G03X136078000Y-53848000I-1600000J0D01*
G01*
X139578000Y-53848000D02*
G75*
G03X139578000Y-53848000I-1600000J0D01*
G01*
X143078000Y-53848000D02*
G75*
G03X143078000Y-53848000I-1600000J0D01*
G01*
X118728000Y-50148000D02*
X118728000Y-56648000D01*
X122228000Y-50148000D02*
X122228000Y-56648000D01*
X125728000Y-50148000D02*
X125728000Y-56648000D01*
X129228000Y-50148000D02*
X129228000Y-56648000D01*
X132728000Y-50148000D02*
X132728000Y-56648000D01*
X136228000Y-50148000D02*
X136228000Y-56648000D01*
X139728000Y-56648000D02*
X139728000Y-50148000D01*
X115228000Y-50148000D02*
X143228000Y-50148000D01*
X115228000Y-56648000D02*
X115228000Y-50148000D01*
X143228000Y-56648000D02*
X115228000Y-56648000D01*
X143228000Y-50148000D02*
X143228000Y-56648000D01*
X81163000Y-100846000D02*
X82413000Y-100846000D01*
X81164000Y-102196000D02*
X82413000Y-102196000D01*
X82413000Y-102196000D02*
X82413000Y-100496000D01*
X82413000Y-100496000D02*
X81163000Y-100496000D01*
X81163000Y-100496000D02*
X81163000Y-102196000D01*
X133569000Y-88886000D02*
X132369000Y-88886000D01*
X132369000Y-87136000D02*
X133569000Y-87136000D01*
X136998000Y-88886000D02*
X135798000Y-88886000D01*
X135798000Y-87136000D02*
X136998000Y-87136000D01*
X127981000Y-105523000D02*
X126781000Y-105523000D01*
X126781000Y-103773000D02*
X127981000Y-103773000D01*
X131410000Y-105523000D02*
X130210000Y-105523000D01*
X130210000Y-103773000D02*
X131410000Y-103773000D01*
D11*
X134164605Y-89916000D02*
G75*
G03X134164605Y-89916000I-179605J0D01*
G01*
X136906000Y-91567000D02*
X136906000Y-90043000D01*
X136906000Y-90043000D02*
X134112000Y-90043000D01*
X134112000Y-90043000D02*
X134112000Y-91567000D01*
X134112000Y-93091000D02*
X134112000Y-94615000D01*
X134112000Y-94615000D02*
X136906000Y-94615000D01*
X136906000Y-94615000D02*
X136906000Y-93091000D01*
D12*
X59817000Y-92837000D02*
G75*
G03X59817000Y-92837000I-127000J0D01*
G01*
X60833000Y-92837000D02*
X59817000Y-92837000D01*
X59817000Y-92837000D02*
X59817000Y-91313000D01*
X59817000Y-91313000D02*
X60833000Y-91313000D01*
X61849000Y-91313000D02*
X62865000Y-91313000D01*
X62865000Y-91313000D02*
X62865000Y-92837000D01*
X62865000Y-92837000D02*
X61849000Y-92837000D01*
D16*
X71120000Y-68580000D02*
X71120000Y-71120000D01*
X71120000Y-71120000D02*
X73660000Y-71120000D01*
X73660000Y-71120000D02*
X73660000Y-68580000D01*
X73660000Y-68580000D02*
X71120000Y-68580000D01*
X81280000Y-73660000D02*
X81280000Y-76200000D01*
X81280000Y-76200000D02*
X83820000Y-76200000D01*
X83820000Y-76200000D02*
X83820000Y-73660000D01*
X83820000Y-73660000D02*
X81280000Y-73660000D01*
X78740000Y-73660000D02*
X78740000Y-76200000D01*
X78740000Y-76200000D02*
X81280000Y-76200000D01*
X81280000Y-76200000D02*
X81280000Y-73660000D01*
X81280000Y-73660000D02*
X78740000Y-73660000D01*
X109220000Y-92710000D02*
X109220000Y-95250000D01*
X109220000Y-95250000D02*
X111760000Y-95250000D01*
X111760000Y-95250000D02*
X111760000Y-92710000D01*
X111760000Y-92710000D02*
X109220000Y-92710000D01*
X83820000Y-73660000D02*
X83820000Y-76200000D01*
X83820000Y-76200000D02*
X86360000Y-76200000D01*
X86360000Y-76200000D02*
X86360000Y-73660000D01*
X86360000Y-73660000D02*
X83820000Y-73660000D01*
X112457000Y-82461000D02*
X112457000Y-80861000D01*
X114257000Y-82461000D02*
X114257000Y-80861000D01*
X114257000Y-80861000D02*
X112057000Y-80861000D01*
X112057000Y-80861000D02*
X112057000Y-82461000D01*
X112057000Y-82461000D02*
X114257000Y-82461000D01*
X58674000Y-76360020D02*
X58674000Y-71010780D01*
X61976000Y-71010780D02*
X61976000Y-76360020D01*
X61976000Y-76360020D02*
X58674000Y-76360020D01*
X61976000Y-71010780D02*
X58674000Y-71010780D01*
X60833000Y-70993000D02*
X60833000Y-71501000D01*
X60833000Y-71501000D02*
X59817000Y-71501000D01*
X59817000Y-71501000D02*
X59817000Y-70993000D01*
X65151000Y-81153000D02*
X67437000Y-81153000D01*
X67437000Y-81153000D02*
X67437000Y-82423000D01*
X67437000Y-82423000D02*
X65151000Y-82423000D01*
X65151000Y-82423000D02*
X65151000Y-81153000D01*
X65151000Y-83439000D02*
X67437000Y-83439000D01*
X67437000Y-83439000D02*
X67437000Y-84709000D01*
X67437000Y-84709000D02*
X65151000Y-84709000D01*
X65151000Y-84709000D02*
X65151000Y-83439000D01*
X55604210Y-100711000D02*
G75*
G03X55604210Y-100711000I-359210J0D01*
G01*
X54737000Y-97917000D02*
X55499000Y-97917000D01*
X55499000Y-97917000D02*
X55499000Y-99187000D01*
X55499000Y-99187000D02*
X54737000Y-99187000D01*
X65024000Y-101219000D02*
X54737000Y-101219000D01*
X54737000Y-95885000D02*
X65024000Y-95885000D01*
X54737000Y-95885000D02*
X54737000Y-101219000D01*
X65024000Y-95885000D02*
X65024000Y-101219000D01*
X144460000Y-50460000D02*
X149540000Y-50460000D01*
X149540000Y-50460000D02*
X149540000Y-55540000D01*
X149540000Y-55540000D02*
X144460000Y-55540000D01*
X144460000Y-55540000D02*
X144460000Y-50460000D01*
X50460000Y-50460000D02*
X55540000Y-50460000D01*
X55540000Y-50460000D02*
X55540000Y-55540000D01*
X55540000Y-55540000D02*
X50460000Y-55540000D01*
X50460000Y-55540000D02*
X50460000Y-50460000D01*
X144460000Y-104460000D02*
X149540000Y-104460000D01*
X149540000Y-104460000D02*
X149540000Y-109540000D01*
X149540000Y-109540000D02*
X144460000Y-109540000D01*
X144460000Y-109540000D02*
X144460000Y-104460000D01*
X50460000Y-104460000D02*
X55540000Y-104460000D01*
X55540000Y-104460000D02*
X55540000Y-109540000D01*
X55540000Y-109540000D02*
X50460000Y-109540000D01*
X50460000Y-109540000D02*
X50460000Y-104460000D01*
X93902000Y-105156000D02*
G75*
G03X93902000Y-105156000I-1700000J0D01*
G01*
X95202000Y-108156000D02*
X89202000Y-108156000D01*
X89202000Y-108156000D02*
X89202000Y-102156000D01*
X89202000Y-102156000D02*
X95202000Y-102156000D01*
X95202000Y-108156000D02*
X95202000Y-102156000D01*
D21*
X65776334Y-65824857D02*
X65737286Y-65863905D01*
X65620143Y-65902952D01*
X65542048Y-65902952D01*
X65424905Y-65863905D01*
X65346810Y-65785810D01*
X65307762Y-65707714D01*
X65268714Y-65551524D01*
X65268714Y-65434381D01*
X65307762Y-65278190D01*
X65346810Y-65200095D01*
X65424905Y-65122000D01*
X65542048Y-65082952D01*
X65620143Y-65082952D01*
X65737286Y-65122000D01*
X65776334Y-65161048D01*
X66557286Y-65902952D02*
X66088714Y-65902952D01*
X66323000Y-65902952D02*
X66323000Y-65082952D01*
X66244905Y-65200095D01*
X66166810Y-65278190D01*
X66088714Y-65317238D01*
X64887334Y-68872857D02*
X64848286Y-68911905D01*
X64731143Y-68950952D01*
X64653048Y-68950952D01*
X64535905Y-68911905D01*
X64457810Y-68833810D01*
X64418762Y-68755714D01*
X64379714Y-68599524D01*
X64379714Y-68482381D01*
X64418762Y-68326190D01*
X64457810Y-68248095D01*
X64535905Y-68170000D01*
X64653048Y-68130952D01*
X64731143Y-68130952D01*
X64848286Y-68170000D01*
X64887334Y-68209048D01*
X65199714Y-68209048D02*
X65238762Y-68170000D01*
X65316857Y-68130952D01*
X65512095Y-68130952D01*
X65590191Y-68170000D01*
X65629238Y-68209048D01*
X65668286Y-68287143D01*
X65668286Y-68365238D01*
X65629238Y-68482381D01*
X65160667Y-68950952D01*
X65668286Y-68950952D01*
X55108334Y-70523857D02*
X55069286Y-70562905D01*
X54952143Y-70601952D01*
X54874048Y-70601952D01*
X54756905Y-70562905D01*
X54678810Y-70484810D01*
X54639762Y-70406714D01*
X54600714Y-70250524D01*
X54600714Y-70133381D01*
X54639762Y-69977190D01*
X54678810Y-69899095D01*
X54756905Y-69821000D01*
X54874048Y-69781952D01*
X54952143Y-69781952D01*
X55069286Y-69821000D01*
X55108334Y-69860048D01*
X55381667Y-69781952D02*
X55889286Y-69781952D01*
X55615953Y-70094333D01*
X55733095Y-70094333D01*
X55811191Y-70133381D01*
X55850238Y-70172429D01*
X55889286Y-70250524D01*
X55889286Y-70445762D01*
X55850238Y-70523857D01*
X55811191Y-70562905D01*
X55733095Y-70601952D01*
X55498810Y-70601952D01*
X55420714Y-70562905D01*
X55381667Y-70523857D01*
X55870334Y-77127857D02*
X55831286Y-77166905D01*
X55714143Y-77205952D01*
X55636048Y-77205952D01*
X55518905Y-77166905D01*
X55440810Y-77088810D01*
X55401762Y-77010714D01*
X55362714Y-76854524D01*
X55362714Y-76737381D01*
X55401762Y-76581190D01*
X55440810Y-76503095D01*
X55518905Y-76425000D01*
X55636048Y-76385952D01*
X55714143Y-76385952D01*
X55831286Y-76425000D01*
X55870334Y-76464048D01*
X56612238Y-76385952D02*
X56221762Y-76385952D01*
X56182714Y-76776429D01*
X56221762Y-76737381D01*
X56299857Y-76698333D01*
X56495095Y-76698333D01*
X56573191Y-76737381D01*
X56612238Y-76776429D01*
X56651286Y-76854524D01*
X56651286Y-77049762D01*
X56612238Y-77127857D01*
X56573191Y-77166905D01*
X56495095Y-77205952D01*
X56299857Y-77205952D01*
X56221762Y-77166905D01*
X56182714Y-77127857D01*
X136896334Y-96939857D02*
X136857286Y-96978905D01*
X136740143Y-97017952D01*
X136662048Y-97017952D01*
X136544905Y-96978905D01*
X136466810Y-96900810D01*
X136427762Y-96822714D01*
X136388714Y-96666524D01*
X136388714Y-96549381D01*
X136427762Y-96393190D01*
X136466810Y-96315095D01*
X136544905Y-96237000D01*
X136662048Y-96197952D01*
X136740143Y-96197952D01*
X136857286Y-96237000D01*
X136896334Y-96276048D01*
X137599191Y-96197952D02*
X137443000Y-96197952D01*
X137364905Y-96237000D01*
X137325857Y-96276048D01*
X137247762Y-96393190D01*
X137208714Y-96549381D01*
X137208714Y-96861762D01*
X137247762Y-96939857D01*
X137286810Y-96978905D01*
X137364905Y-97017952D01*
X137521095Y-97017952D01*
X137599191Y-96978905D01*
X137638238Y-96939857D01*
X137677286Y-96861762D01*
X137677286Y-96666524D01*
X137638238Y-96588429D01*
X137599191Y-96549381D01*
X137521095Y-96510333D01*
X137364905Y-96510333D01*
X137286810Y-96549381D01*
X137247762Y-96588429D01*
X137208714Y-96666524D01*
X65062857Y-74812666D02*
X65101905Y-74851714D01*
X65140952Y-74968857D01*
X65140952Y-75046952D01*
X65101905Y-75164095D01*
X65023810Y-75242190D01*
X64945714Y-75281238D01*
X64789524Y-75320286D01*
X64672381Y-75320286D01*
X64516190Y-75281238D01*
X64438095Y-75242190D01*
X64360000Y-75164095D01*
X64320952Y-75046952D01*
X64320952Y-74968857D01*
X64360000Y-74851714D01*
X64399048Y-74812666D01*
X64320952Y-74539333D02*
X64320952Y-73992666D01*
X65140952Y-74344095D01*
X94605334Y-80810857D02*
X94566286Y-80849905D01*
X94449143Y-80888952D01*
X94371048Y-80888952D01*
X94253905Y-80849905D01*
X94175810Y-80771810D01*
X94136762Y-80693714D01*
X94097714Y-80537524D01*
X94097714Y-80420381D01*
X94136762Y-80264190D01*
X94175810Y-80186095D01*
X94253905Y-80108000D01*
X94371048Y-80068952D01*
X94449143Y-80068952D01*
X94566286Y-80108000D01*
X94605334Y-80147048D01*
X95073905Y-80420381D02*
X94995810Y-80381333D01*
X94956762Y-80342286D01*
X94917714Y-80264190D01*
X94917714Y-80225143D01*
X94956762Y-80147048D01*
X94995810Y-80108000D01*
X95073905Y-80068952D01*
X95230095Y-80068952D01*
X95308191Y-80108000D01*
X95347238Y-80147048D01*
X95386286Y-80225143D01*
X95386286Y-80264190D01*
X95347238Y-80342286D01*
X95308191Y-80381333D01*
X95230095Y-80420381D01*
X95073905Y-80420381D01*
X94995810Y-80459429D01*
X94956762Y-80498476D01*
X94917714Y-80576571D01*
X94917714Y-80732762D01*
X94956762Y-80810857D01*
X94995810Y-80849905D01*
X95073905Y-80888952D01*
X95230095Y-80888952D01*
X95308191Y-80849905D01*
X95347238Y-80810857D01*
X95386286Y-80732762D01*
X95386286Y-80576571D01*
X95347238Y-80498476D01*
X95308191Y-80459429D01*
X95230095Y-80420381D01*
X107480857Y-69478666D02*
X107519905Y-69517714D01*
X107558952Y-69634857D01*
X107558952Y-69712952D01*
X107519905Y-69830095D01*
X107441810Y-69908190D01*
X107363714Y-69947238D01*
X107207524Y-69986286D01*
X107090381Y-69986286D01*
X106934190Y-69947238D01*
X106856095Y-69908190D01*
X106778000Y-69830095D01*
X106738952Y-69712952D01*
X106738952Y-69634857D01*
X106778000Y-69517714D01*
X106817048Y-69478666D01*
X107558952Y-69088190D02*
X107558952Y-68932000D01*
X107519905Y-68853905D01*
X107480857Y-68814857D01*
X107363714Y-68736762D01*
X107207524Y-68697714D01*
X106895143Y-68697714D01*
X106817048Y-68736762D01*
X106778000Y-68775809D01*
X106738952Y-68853905D01*
X106738952Y-69010095D01*
X106778000Y-69088190D01*
X106817048Y-69127238D01*
X106895143Y-69166286D01*
X107090381Y-69166286D01*
X107168476Y-69127238D01*
X107207524Y-69088190D01*
X107246571Y-69010095D01*
X107246571Y-68853905D01*
X107207524Y-68775809D01*
X107168476Y-68736762D01*
X107090381Y-68697714D01*
X87864858Y-58458857D02*
X87825810Y-58497905D01*
X87708667Y-58536952D01*
X87630572Y-58536952D01*
X87513429Y-58497905D01*
X87435334Y-58419810D01*
X87396286Y-58341714D01*
X87357238Y-58185524D01*
X87357238Y-58068381D01*
X87396286Y-57912190D01*
X87435334Y-57834095D01*
X87513429Y-57756000D01*
X87630572Y-57716952D01*
X87708667Y-57716952D01*
X87825810Y-57756000D01*
X87864858Y-57795048D01*
X88645810Y-58536952D02*
X88177238Y-58536952D01*
X88411524Y-58536952D02*
X88411524Y-57716952D01*
X88333429Y-57834095D01*
X88255334Y-57912190D01*
X88177238Y-57951238D01*
X89153429Y-57716952D02*
X89231524Y-57716952D01*
X89309619Y-57756000D01*
X89348667Y-57795048D01*
X89387714Y-57873143D01*
X89426762Y-58029333D01*
X89426762Y-58224571D01*
X89387714Y-58380762D01*
X89348667Y-58458857D01*
X89309619Y-58497905D01*
X89231524Y-58536952D01*
X89153429Y-58536952D01*
X89075333Y-58497905D01*
X89036286Y-58458857D01*
X88997238Y-58380762D01*
X88958190Y-58224571D01*
X88958190Y-58029333D01*
X88997238Y-57873143D01*
X89036286Y-57795048D01*
X89075333Y-57756000D01*
X89153429Y-57716952D01*
X51473857Y-68980142D02*
X51512905Y-69019190D01*
X51551952Y-69136333D01*
X51551952Y-69214428D01*
X51512905Y-69331571D01*
X51434810Y-69409666D01*
X51356714Y-69448714D01*
X51200524Y-69487762D01*
X51083381Y-69487762D01*
X50927190Y-69448714D01*
X50849095Y-69409666D01*
X50771000Y-69331571D01*
X50731952Y-69214428D01*
X50731952Y-69136333D01*
X50771000Y-69019190D01*
X50810048Y-68980142D01*
X51551952Y-68199190D02*
X51551952Y-68667762D01*
X51551952Y-68433476D02*
X50731952Y-68433476D01*
X50849095Y-68511571D01*
X50927190Y-68589666D01*
X50966238Y-68667762D01*
X51551952Y-67418238D02*
X51551952Y-67886810D01*
X51551952Y-67652524D02*
X50731952Y-67652524D01*
X50849095Y-67730619D01*
X50927190Y-67808714D01*
X50966238Y-67886810D01*
X110851858Y-58204857D02*
X110812810Y-58243905D01*
X110695667Y-58282952D01*
X110617572Y-58282952D01*
X110500429Y-58243905D01*
X110422334Y-58165810D01*
X110383286Y-58087714D01*
X110344238Y-57931524D01*
X110344238Y-57814381D01*
X110383286Y-57658190D01*
X110422334Y-57580095D01*
X110500429Y-57502000D01*
X110617572Y-57462952D01*
X110695667Y-57462952D01*
X110812810Y-57502000D01*
X110851858Y-57541048D01*
X111632810Y-58282952D02*
X111164238Y-58282952D01*
X111398524Y-58282952D02*
X111398524Y-57462952D01*
X111320429Y-57580095D01*
X111242334Y-57658190D01*
X111164238Y-57697238D01*
X111945190Y-57541048D02*
X111984238Y-57502000D01*
X112062333Y-57462952D01*
X112257571Y-57462952D01*
X112335667Y-57502000D01*
X112374714Y-57541048D01*
X112413762Y-57619143D01*
X112413762Y-57697238D01*
X112374714Y-57814381D01*
X111906143Y-58282952D01*
X112413762Y-58282952D01*
X76815858Y-58077857D02*
X76776810Y-58116905D01*
X76659667Y-58155952D01*
X76581572Y-58155952D01*
X76464429Y-58116905D01*
X76386334Y-58038810D01*
X76347286Y-57960714D01*
X76308238Y-57804524D01*
X76308238Y-57687381D01*
X76347286Y-57531190D01*
X76386334Y-57453095D01*
X76464429Y-57375000D01*
X76581572Y-57335952D01*
X76659667Y-57335952D01*
X76776810Y-57375000D01*
X76815858Y-57414048D01*
X77596810Y-58155952D02*
X77128238Y-58155952D01*
X77362524Y-58155952D02*
X77362524Y-57335952D01*
X77284429Y-57453095D01*
X77206334Y-57531190D01*
X77128238Y-57570238D01*
X77870143Y-57335952D02*
X78377762Y-57335952D01*
X78104429Y-57648333D01*
X78221571Y-57648333D01*
X78299667Y-57687381D01*
X78338714Y-57726429D01*
X78377762Y-57804524D01*
X78377762Y-57999762D01*
X78338714Y-58077857D01*
X78299667Y-58116905D01*
X78221571Y-58155952D01*
X77987286Y-58155952D01*
X77909190Y-58116905D01*
X77870143Y-58077857D01*
X63861858Y-76492857D02*
X63822810Y-76531905D01*
X63705667Y-76570952D01*
X63627572Y-76570952D01*
X63510429Y-76531905D01*
X63432334Y-76453810D01*
X63393286Y-76375714D01*
X63354238Y-76219524D01*
X63354238Y-76102381D01*
X63393286Y-75946190D01*
X63432334Y-75868095D01*
X63510429Y-75790000D01*
X63627572Y-75750952D01*
X63705667Y-75750952D01*
X63822810Y-75790000D01*
X63861858Y-75829048D01*
X64642810Y-76570952D02*
X64174238Y-76570952D01*
X64408524Y-76570952D02*
X64408524Y-75750952D01*
X64330429Y-75868095D01*
X64252334Y-75946190D01*
X64174238Y-75985238D01*
X65345667Y-76024286D02*
X65345667Y-76570952D01*
X65150429Y-75711905D02*
X64955190Y-76297619D01*
X65462810Y-76297619D01*
X63861858Y-78016857D02*
X63822810Y-78055905D01*
X63705667Y-78094952D01*
X63627572Y-78094952D01*
X63510429Y-78055905D01*
X63432334Y-77977810D01*
X63393286Y-77899714D01*
X63354238Y-77743524D01*
X63354238Y-77626381D01*
X63393286Y-77470190D01*
X63432334Y-77392095D01*
X63510429Y-77314000D01*
X63627572Y-77274952D01*
X63705667Y-77274952D01*
X63822810Y-77314000D01*
X63861858Y-77353048D01*
X64642810Y-78094952D02*
X64174238Y-78094952D01*
X64408524Y-78094952D02*
X64408524Y-77274952D01*
X64330429Y-77392095D01*
X64252334Y-77470190D01*
X64174238Y-77509238D01*
X65384714Y-77274952D02*
X64994238Y-77274952D01*
X64955190Y-77665429D01*
X64994238Y-77626381D01*
X65072333Y-77587333D01*
X65267571Y-77587333D01*
X65345667Y-77626381D01*
X65384714Y-77665429D01*
X65423762Y-77743524D01*
X65423762Y-77938762D01*
X65384714Y-78016857D01*
X65345667Y-78055905D01*
X65267571Y-78094952D01*
X65072333Y-78094952D01*
X64994238Y-78055905D01*
X64955190Y-78016857D01*
X65258858Y-89700857D02*
X65219810Y-89739905D01*
X65102667Y-89778952D01*
X65024572Y-89778952D01*
X64907429Y-89739905D01*
X64829334Y-89661810D01*
X64790286Y-89583714D01*
X64751238Y-89427524D01*
X64751238Y-89310381D01*
X64790286Y-89154190D01*
X64829334Y-89076095D01*
X64907429Y-88998000D01*
X65024572Y-88958952D01*
X65102667Y-88958952D01*
X65219810Y-88998000D01*
X65258858Y-89037048D01*
X66039810Y-89778952D02*
X65571238Y-89778952D01*
X65805524Y-89778952D02*
X65805524Y-88958952D01*
X65727429Y-89076095D01*
X65649334Y-89154190D01*
X65571238Y-89193238D01*
X66742667Y-88958952D02*
X66586476Y-88958952D01*
X66508381Y-88998000D01*
X66469333Y-89037048D01*
X66391238Y-89154190D01*
X66352190Y-89310381D01*
X66352190Y-89622762D01*
X66391238Y-89700857D01*
X66430286Y-89739905D01*
X66508381Y-89778952D01*
X66664571Y-89778952D01*
X66742667Y-89739905D01*
X66781714Y-89700857D01*
X66820762Y-89622762D01*
X66820762Y-89427524D01*
X66781714Y-89349429D01*
X66742667Y-89310381D01*
X66664571Y-89271333D01*
X66508381Y-89271333D01*
X66430286Y-89310381D01*
X66391238Y-89349429D01*
X66352190Y-89427524D01*
X80879858Y-91351857D02*
X80840810Y-91390905D01*
X80723667Y-91429952D01*
X80645572Y-91429952D01*
X80528429Y-91390905D01*
X80450334Y-91312810D01*
X80411286Y-91234714D01*
X80372238Y-91078524D01*
X80372238Y-90961381D01*
X80411286Y-90805190D01*
X80450334Y-90727095D01*
X80528429Y-90649000D01*
X80645572Y-90609952D01*
X80723667Y-90609952D01*
X80840810Y-90649000D01*
X80879858Y-90688048D01*
X81660810Y-91429952D02*
X81192238Y-91429952D01*
X81426524Y-91429952D02*
X81426524Y-90609952D01*
X81348429Y-90727095D01*
X81270334Y-90805190D01*
X81192238Y-90844238D01*
X81934143Y-90609952D02*
X82480810Y-90609952D01*
X82129381Y-91429952D01*
X83038858Y-77508857D02*
X82999810Y-77547905D01*
X82882667Y-77586952D01*
X82804572Y-77586952D01*
X82687429Y-77547905D01*
X82609334Y-77469810D01*
X82570286Y-77391714D01*
X82531238Y-77235524D01*
X82531238Y-77118381D01*
X82570286Y-76962190D01*
X82609334Y-76884095D01*
X82687429Y-76806000D01*
X82804572Y-76766952D01*
X82882667Y-76766952D01*
X82999810Y-76806000D01*
X83038858Y-76845048D01*
X83819810Y-77586952D02*
X83351238Y-77586952D01*
X83585524Y-77586952D02*
X83585524Y-76766952D01*
X83507429Y-76884095D01*
X83429334Y-76962190D01*
X83351238Y-77001238D01*
X84288381Y-77118381D02*
X84210286Y-77079333D01*
X84171238Y-77040286D01*
X84132190Y-76962190D01*
X84132190Y-76923143D01*
X84171238Y-76845048D01*
X84210286Y-76806000D01*
X84288381Y-76766952D01*
X84444571Y-76766952D01*
X84522667Y-76806000D01*
X84561714Y-76845048D01*
X84600762Y-76923143D01*
X84600762Y-76962190D01*
X84561714Y-77040286D01*
X84522667Y-77079333D01*
X84444571Y-77118381D01*
X84288381Y-77118381D01*
X84210286Y-77157429D01*
X84171238Y-77196476D01*
X84132190Y-77274571D01*
X84132190Y-77430762D01*
X84171238Y-77508857D01*
X84210286Y-77547905D01*
X84288381Y-77586952D01*
X84444571Y-77586952D01*
X84522667Y-77547905D01*
X84561714Y-77508857D01*
X84600762Y-77430762D01*
X84600762Y-77274571D01*
X84561714Y-77196476D01*
X84522667Y-77157429D01*
X84444571Y-77118381D01*
X90277858Y-100876857D02*
X90238810Y-100915905D01*
X90121667Y-100954952D01*
X90043572Y-100954952D01*
X89926429Y-100915905D01*
X89848334Y-100837810D01*
X89809286Y-100759714D01*
X89770238Y-100603524D01*
X89770238Y-100486381D01*
X89809286Y-100330190D01*
X89848334Y-100252095D01*
X89926429Y-100174000D01*
X90043572Y-100134952D01*
X90121667Y-100134952D01*
X90238810Y-100174000D01*
X90277858Y-100213048D01*
X91058810Y-100954952D02*
X90590238Y-100954952D01*
X90824524Y-100954952D02*
X90824524Y-100134952D01*
X90746429Y-100252095D01*
X90668334Y-100330190D01*
X90590238Y-100369238D01*
X91449286Y-100954952D02*
X91605476Y-100954952D01*
X91683571Y-100915905D01*
X91722619Y-100876857D01*
X91800714Y-100759714D01*
X91839762Y-100603524D01*
X91839762Y-100291143D01*
X91800714Y-100213048D01*
X91761667Y-100174000D01*
X91683571Y-100134952D01*
X91527381Y-100134952D01*
X91449286Y-100174000D01*
X91410238Y-100213048D01*
X91371190Y-100291143D01*
X91371190Y-100486381D01*
X91410238Y-100564476D01*
X91449286Y-100603524D01*
X91527381Y-100642571D01*
X91683571Y-100642571D01*
X91761667Y-100603524D01*
X91800714Y-100564476D01*
X91839762Y-100486381D01*
X86721858Y-100876857D02*
X86682810Y-100915905D01*
X86565667Y-100954952D01*
X86487572Y-100954952D01*
X86370429Y-100915905D01*
X86292334Y-100837810D01*
X86253286Y-100759714D01*
X86214238Y-100603524D01*
X86214238Y-100486381D01*
X86253286Y-100330190D01*
X86292334Y-100252095D01*
X86370429Y-100174000D01*
X86487572Y-100134952D01*
X86565667Y-100134952D01*
X86682810Y-100174000D01*
X86721858Y-100213048D01*
X87034238Y-100213048D02*
X87073286Y-100174000D01*
X87151381Y-100134952D01*
X87346619Y-100134952D01*
X87424715Y-100174000D01*
X87463762Y-100213048D01*
X87502810Y-100291143D01*
X87502810Y-100369238D01*
X87463762Y-100486381D01*
X86995191Y-100954952D01*
X87502810Y-100954952D01*
X88010429Y-100134952D02*
X88088524Y-100134952D01*
X88166619Y-100174000D01*
X88205667Y-100213048D01*
X88244714Y-100291143D01*
X88283762Y-100447333D01*
X88283762Y-100642571D01*
X88244714Y-100798762D01*
X88205667Y-100876857D01*
X88166619Y-100915905D01*
X88088524Y-100954952D01*
X88010429Y-100954952D01*
X87932333Y-100915905D01*
X87893286Y-100876857D01*
X87854238Y-100798762D01*
X87815190Y-100642571D01*
X87815190Y-100447333D01*
X87854238Y-100291143D01*
X87893286Y-100213048D01*
X87932333Y-100174000D01*
X88010429Y-100134952D01*
X86086858Y-77508857D02*
X86047810Y-77547905D01*
X85930667Y-77586952D01*
X85852572Y-77586952D01*
X85735429Y-77547905D01*
X85657334Y-77469810D01*
X85618286Y-77391714D01*
X85579238Y-77235524D01*
X85579238Y-77118381D01*
X85618286Y-76962190D01*
X85657334Y-76884095D01*
X85735429Y-76806000D01*
X85852572Y-76766952D01*
X85930667Y-76766952D01*
X86047810Y-76806000D01*
X86086858Y-76845048D01*
X86399238Y-76845048D02*
X86438286Y-76806000D01*
X86516381Y-76766952D01*
X86711619Y-76766952D01*
X86789715Y-76806000D01*
X86828762Y-76845048D01*
X86867810Y-76923143D01*
X86867810Y-77001238D01*
X86828762Y-77118381D01*
X86360191Y-77586952D01*
X86867810Y-77586952D01*
X87648762Y-77586952D02*
X87180190Y-77586952D01*
X87414476Y-77586952D02*
X87414476Y-76766952D01*
X87336381Y-76884095D01*
X87258286Y-76962190D01*
X87180190Y-77001238D01*
X81006858Y-83350857D02*
X80967810Y-83389905D01*
X80850667Y-83428952D01*
X80772572Y-83428952D01*
X80655429Y-83389905D01*
X80577334Y-83311810D01*
X80538286Y-83233714D01*
X80499238Y-83077524D01*
X80499238Y-82960381D01*
X80538286Y-82804190D01*
X80577334Y-82726095D01*
X80655429Y-82648000D01*
X80772572Y-82608952D01*
X80850667Y-82608952D01*
X80967810Y-82648000D01*
X81006858Y-82687048D01*
X81319238Y-82687048D02*
X81358286Y-82648000D01*
X81436381Y-82608952D01*
X81631619Y-82608952D01*
X81709715Y-82648000D01*
X81748762Y-82687048D01*
X81787810Y-82765143D01*
X81787810Y-82843238D01*
X81748762Y-82960381D01*
X81280191Y-83428952D01*
X81787810Y-83428952D01*
X82100190Y-82687048D02*
X82139238Y-82648000D01*
X82217333Y-82608952D01*
X82412571Y-82608952D01*
X82490667Y-82648000D01*
X82529714Y-82687048D01*
X82568762Y-82765143D01*
X82568762Y-82843238D01*
X82529714Y-82960381D01*
X82061143Y-83428952D01*
X82568762Y-83428952D01*
X130155858Y-78270857D02*
X130116810Y-78309905D01*
X129999667Y-78348952D01*
X129921572Y-78348952D01*
X129804429Y-78309905D01*
X129726334Y-78231810D01*
X129687286Y-78153714D01*
X129648238Y-77997524D01*
X129648238Y-77880381D01*
X129687286Y-77724190D01*
X129726334Y-77646095D01*
X129804429Y-77568000D01*
X129921572Y-77528952D01*
X129999667Y-77528952D01*
X130116810Y-77568000D01*
X130155858Y-77607048D01*
X130468238Y-77607048D02*
X130507286Y-77568000D01*
X130585381Y-77528952D01*
X130780619Y-77528952D01*
X130858715Y-77568000D01*
X130897762Y-77607048D01*
X130936810Y-77685143D01*
X130936810Y-77763238D01*
X130897762Y-77880381D01*
X130429191Y-78348952D01*
X130936810Y-78348952D01*
X131210143Y-77528952D02*
X131717762Y-77528952D01*
X131444429Y-77841333D01*
X131561571Y-77841333D01*
X131639667Y-77880381D01*
X131678714Y-77919429D01*
X131717762Y-77997524D01*
X131717762Y-78192762D01*
X131678714Y-78270857D01*
X131639667Y-78309905D01*
X131561571Y-78348952D01*
X131327286Y-78348952D01*
X131249190Y-78309905D01*
X131210143Y-78270857D01*
X111867858Y-73317857D02*
X111828810Y-73356905D01*
X111711667Y-73395952D01*
X111633572Y-73395952D01*
X111516429Y-73356905D01*
X111438334Y-73278810D01*
X111399286Y-73200714D01*
X111360238Y-73044524D01*
X111360238Y-72927381D01*
X111399286Y-72771190D01*
X111438334Y-72693095D01*
X111516429Y-72615000D01*
X111633572Y-72575952D01*
X111711667Y-72575952D01*
X111828810Y-72615000D01*
X111867858Y-72654048D01*
X112180238Y-72654048D02*
X112219286Y-72615000D01*
X112297381Y-72575952D01*
X112492619Y-72575952D01*
X112570715Y-72615000D01*
X112609762Y-72654048D01*
X112648810Y-72732143D01*
X112648810Y-72810238D01*
X112609762Y-72927381D01*
X112141191Y-73395952D01*
X112648810Y-73395952D01*
X113351667Y-72849286D02*
X113351667Y-73395952D01*
X113156429Y-72536905D02*
X112961190Y-73122619D01*
X113468810Y-73122619D01*
X98971857Y-91713142D02*
X99010905Y-91752190D01*
X99049952Y-91869333D01*
X99049952Y-91947428D01*
X99010905Y-92064571D01*
X98932810Y-92142666D01*
X98854714Y-92181714D01*
X98698524Y-92220762D01*
X98581381Y-92220762D01*
X98425190Y-92181714D01*
X98347095Y-92142666D01*
X98269000Y-92064571D01*
X98229952Y-91947428D01*
X98229952Y-91869333D01*
X98269000Y-91752190D01*
X98308048Y-91713142D01*
X98308048Y-91400762D02*
X98269000Y-91361714D01*
X98229952Y-91283619D01*
X98229952Y-91088381D01*
X98269000Y-91010285D01*
X98308048Y-90971238D01*
X98386143Y-90932190D01*
X98464238Y-90932190D01*
X98581381Y-90971238D01*
X99049952Y-91439809D01*
X99049952Y-90932190D01*
X98229952Y-90190286D02*
X98229952Y-90580762D01*
X98620429Y-90619810D01*
X98581381Y-90580762D01*
X98542333Y-90502667D01*
X98542333Y-90307429D01*
X98581381Y-90229333D01*
X98620429Y-90190286D01*
X98698524Y-90151238D01*
X98893762Y-90151238D01*
X98971857Y-90190286D01*
X99010905Y-90229333D01*
X99049952Y-90307429D01*
X99049952Y-90502667D01*
X99010905Y-90580762D01*
X98971857Y-90619810D01*
X135362858Y-78905857D02*
X135323810Y-78944905D01*
X135206667Y-78983952D01*
X135128572Y-78983952D01*
X135011429Y-78944905D01*
X134933334Y-78866810D01*
X134894286Y-78788714D01*
X134855238Y-78632524D01*
X134855238Y-78515381D01*
X134894286Y-78359190D01*
X134933334Y-78281095D01*
X135011429Y-78203000D01*
X135128572Y-78163952D01*
X135206667Y-78163952D01*
X135323810Y-78203000D01*
X135362858Y-78242048D01*
X135675238Y-78242048D02*
X135714286Y-78203000D01*
X135792381Y-78163952D01*
X135987619Y-78163952D01*
X136065715Y-78203000D01*
X136104762Y-78242048D01*
X136143810Y-78320143D01*
X136143810Y-78398238D01*
X136104762Y-78515381D01*
X135636191Y-78983952D01*
X136143810Y-78983952D01*
X136846667Y-78163952D02*
X136690476Y-78163952D01*
X136612381Y-78203000D01*
X136573333Y-78242048D01*
X136495238Y-78359190D01*
X136456190Y-78515381D01*
X136456190Y-78827762D01*
X136495238Y-78905857D01*
X136534286Y-78944905D01*
X136612381Y-78983952D01*
X136768571Y-78983952D01*
X136846667Y-78944905D01*
X136885714Y-78905857D01*
X136924762Y-78827762D01*
X136924762Y-78632524D01*
X136885714Y-78554429D01*
X136846667Y-78515381D01*
X136768571Y-78476333D01*
X136612381Y-78476333D01*
X136534286Y-78515381D01*
X136495238Y-78554429D01*
X136456190Y-78632524D01*
X122916858Y-74206857D02*
X122877810Y-74245905D01*
X122760667Y-74284952D01*
X122682572Y-74284952D01*
X122565429Y-74245905D01*
X122487334Y-74167810D01*
X122448286Y-74089714D01*
X122409238Y-73933524D01*
X122409238Y-73816381D01*
X122448286Y-73660190D01*
X122487334Y-73582095D01*
X122565429Y-73504000D01*
X122682572Y-73464952D01*
X122760667Y-73464952D01*
X122877810Y-73504000D01*
X122916858Y-73543048D01*
X123229238Y-73543048D02*
X123268286Y-73504000D01*
X123346381Y-73464952D01*
X123541619Y-73464952D01*
X123619715Y-73504000D01*
X123658762Y-73543048D01*
X123697810Y-73621143D01*
X123697810Y-73699238D01*
X123658762Y-73816381D01*
X123190191Y-74284952D01*
X123697810Y-74284952D01*
X123971143Y-73464952D02*
X124517810Y-73464952D01*
X124166381Y-74284952D01*
X96558857Y-78632142D02*
X96597905Y-78671190D01*
X96636952Y-78788333D01*
X96636952Y-78866428D01*
X96597905Y-78983571D01*
X96519810Y-79061666D01*
X96441714Y-79100714D01*
X96285524Y-79139762D01*
X96168381Y-79139762D01*
X96012190Y-79100714D01*
X95934095Y-79061666D01*
X95856000Y-78983571D01*
X95816952Y-78866428D01*
X95816952Y-78788333D01*
X95856000Y-78671190D01*
X95895048Y-78632142D01*
X95895048Y-78319762D02*
X95856000Y-78280714D01*
X95816952Y-78202619D01*
X95816952Y-78007381D01*
X95856000Y-77929285D01*
X95895048Y-77890238D01*
X95973143Y-77851190D01*
X96051238Y-77851190D01*
X96168381Y-77890238D01*
X96636952Y-78358809D01*
X96636952Y-77851190D01*
X96168381Y-77382619D02*
X96129333Y-77460714D01*
X96090286Y-77499762D01*
X96012190Y-77538810D01*
X95973143Y-77538810D01*
X95895048Y-77499762D01*
X95856000Y-77460714D01*
X95816952Y-77382619D01*
X95816952Y-77226429D01*
X95856000Y-77148333D01*
X95895048Y-77109286D01*
X95973143Y-77070238D01*
X96012190Y-77070238D01*
X96090286Y-77109286D01*
X96129333Y-77148333D01*
X96168381Y-77226429D01*
X96168381Y-77382619D01*
X96207429Y-77460714D01*
X96246476Y-77499762D01*
X96324571Y-77538810D01*
X96480762Y-77538810D01*
X96558857Y-77499762D01*
X96597905Y-77460714D01*
X96636952Y-77382619D01*
X96636952Y-77226429D01*
X96597905Y-77148333D01*
X96558857Y-77109286D01*
X96480762Y-77070238D01*
X96324571Y-77070238D01*
X96246476Y-77109286D01*
X96207429Y-77148333D01*
X96168381Y-77226429D01*
X82334857Y-94253142D02*
X82373905Y-94292190D01*
X82412952Y-94409333D01*
X82412952Y-94487428D01*
X82373905Y-94604571D01*
X82295810Y-94682666D01*
X82217714Y-94721714D01*
X82061524Y-94760762D01*
X81944381Y-94760762D01*
X81788190Y-94721714D01*
X81710095Y-94682666D01*
X81632000Y-94604571D01*
X81592952Y-94487428D01*
X81592952Y-94409333D01*
X81632000Y-94292190D01*
X81671048Y-94253142D01*
X81671048Y-93940762D02*
X81632000Y-93901714D01*
X81592952Y-93823619D01*
X81592952Y-93628381D01*
X81632000Y-93550285D01*
X81671048Y-93511238D01*
X81749143Y-93472190D01*
X81827238Y-93472190D01*
X81944381Y-93511238D01*
X82412952Y-93979809D01*
X82412952Y-93472190D01*
X82412952Y-93081714D02*
X82412952Y-92925524D01*
X82373905Y-92847429D01*
X82334857Y-92808381D01*
X82217714Y-92730286D01*
X82061524Y-92691238D01*
X81749143Y-92691238D01*
X81671048Y-92730286D01*
X81632000Y-92769333D01*
X81592952Y-92847429D01*
X81592952Y-93003619D01*
X81632000Y-93081714D01*
X81671048Y-93120762D01*
X81749143Y-93159810D01*
X81944381Y-93159810D01*
X82022476Y-93120762D01*
X82061524Y-93081714D01*
X82100571Y-93003619D01*
X82100571Y-92847429D01*
X82061524Y-92769333D01*
X82022476Y-92730286D01*
X81944381Y-92691238D01*
X58019858Y-106464857D02*
X57980810Y-106503905D01*
X57863667Y-106542952D01*
X57785572Y-106542952D01*
X57668429Y-106503905D01*
X57590334Y-106425810D01*
X57551286Y-106347714D01*
X57512238Y-106191524D01*
X57512238Y-106074381D01*
X57551286Y-105918190D01*
X57590334Y-105840095D01*
X57668429Y-105762000D01*
X57785572Y-105722952D01*
X57863667Y-105722952D01*
X57980810Y-105762000D01*
X58019858Y-105801048D01*
X58293191Y-105722952D02*
X58800810Y-105722952D01*
X58527477Y-106035333D01*
X58644619Y-106035333D01*
X58722715Y-106074381D01*
X58761762Y-106113429D01*
X58800810Y-106191524D01*
X58800810Y-106386762D01*
X58761762Y-106464857D01*
X58722715Y-106503905D01*
X58644619Y-106542952D01*
X58410334Y-106542952D01*
X58332238Y-106503905D01*
X58293191Y-106464857D01*
X59308429Y-105722952D02*
X59386524Y-105722952D01*
X59464619Y-105762000D01*
X59503667Y-105801048D01*
X59542714Y-105879143D01*
X59581762Y-106035333D01*
X59581762Y-106230571D01*
X59542714Y-106386762D01*
X59503667Y-106464857D01*
X59464619Y-106503905D01*
X59386524Y-106542952D01*
X59308429Y-106542952D01*
X59230333Y-106503905D01*
X59191286Y-106464857D01*
X59152238Y-106386762D01*
X59113190Y-106230571D01*
X59113190Y-106035333D01*
X59152238Y-105879143D01*
X59191286Y-105801048D01*
X59230333Y-105762000D01*
X59308429Y-105722952D01*
X139299858Y-83731857D02*
X139260810Y-83770905D01*
X139143667Y-83809952D01*
X139065572Y-83809952D01*
X138948429Y-83770905D01*
X138870334Y-83692810D01*
X138831286Y-83614714D01*
X138792238Y-83458524D01*
X138792238Y-83341381D01*
X138831286Y-83185190D01*
X138870334Y-83107095D01*
X138948429Y-83029000D01*
X139065572Y-82989952D01*
X139143667Y-82989952D01*
X139260810Y-83029000D01*
X139299858Y-83068048D01*
X139573191Y-82989952D02*
X140080810Y-82989952D01*
X139807477Y-83302333D01*
X139924619Y-83302333D01*
X140002715Y-83341381D01*
X140041762Y-83380429D01*
X140080810Y-83458524D01*
X140080810Y-83653762D01*
X140041762Y-83731857D01*
X140002715Y-83770905D01*
X139924619Y-83809952D01*
X139690334Y-83809952D01*
X139612238Y-83770905D01*
X139573191Y-83731857D01*
X140861762Y-83809952D02*
X140393190Y-83809952D01*
X140627476Y-83809952D02*
X140627476Y-82989952D01*
X140549381Y-83107095D01*
X140471286Y-83185190D01*
X140393190Y-83224238D01*
X139299858Y-81953857D02*
X139260810Y-81992905D01*
X139143667Y-82031952D01*
X139065572Y-82031952D01*
X138948429Y-81992905D01*
X138870334Y-81914810D01*
X138831286Y-81836714D01*
X138792238Y-81680524D01*
X138792238Y-81563381D01*
X138831286Y-81407190D01*
X138870334Y-81329095D01*
X138948429Y-81251000D01*
X139065572Y-81211952D01*
X139143667Y-81211952D01*
X139260810Y-81251000D01*
X139299858Y-81290048D01*
X139573191Y-81211952D02*
X140080810Y-81211952D01*
X139807477Y-81524333D01*
X139924619Y-81524333D01*
X140002715Y-81563381D01*
X140041762Y-81602429D01*
X140080810Y-81680524D01*
X140080810Y-81875762D01*
X140041762Y-81953857D01*
X140002715Y-81992905D01*
X139924619Y-82031952D01*
X139690334Y-82031952D01*
X139612238Y-81992905D01*
X139573191Y-81953857D01*
X140393190Y-81290048D02*
X140432238Y-81251000D01*
X140510333Y-81211952D01*
X140705571Y-81211952D01*
X140783667Y-81251000D01*
X140822714Y-81290048D01*
X140861762Y-81368143D01*
X140861762Y-81446238D01*
X140822714Y-81563381D01*
X140354143Y-82031952D01*
X140861762Y-82031952D01*
X67163858Y-92367857D02*
X67124810Y-92406905D01*
X67007667Y-92445952D01*
X66929572Y-92445952D01*
X66812429Y-92406905D01*
X66734334Y-92328810D01*
X66695286Y-92250714D01*
X66656238Y-92094524D01*
X66656238Y-91977381D01*
X66695286Y-91821190D01*
X66734334Y-91743095D01*
X66812429Y-91665000D01*
X66929572Y-91625952D01*
X67007667Y-91625952D01*
X67124810Y-91665000D01*
X67163858Y-91704048D01*
X67437191Y-91625952D02*
X67944810Y-91625952D01*
X67671477Y-91938333D01*
X67788619Y-91938333D01*
X67866715Y-91977381D01*
X67905762Y-92016429D01*
X67944810Y-92094524D01*
X67944810Y-92289762D01*
X67905762Y-92367857D01*
X67866715Y-92406905D01*
X67788619Y-92445952D01*
X67554334Y-92445952D01*
X67476238Y-92406905D01*
X67437191Y-92367857D01*
X68218143Y-91625952D02*
X68725762Y-91625952D01*
X68452429Y-91938333D01*
X68569571Y-91938333D01*
X68647667Y-91977381D01*
X68686714Y-92016429D01*
X68725762Y-92094524D01*
X68725762Y-92289762D01*
X68686714Y-92367857D01*
X68647667Y-92406905D01*
X68569571Y-92445952D01*
X68335286Y-92445952D01*
X68257190Y-92406905D01*
X68218143Y-92367857D01*
X81309762Y-70982952D02*
X81309762Y-70162952D01*
X81505000Y-70162952D01*
X81622143Y-70202000D01*
X81700238Y-70280095D01*
X81739286Y-70358190D01*
X81778334Y-70514381D01*
X81778334Y-70631524D01*
X81739286Y-70787714D01*
X81700238Y-70865810D01*
X81622143Y-70943905D01*
X81505000Y-70982952D01*
X81309762Y-70982952D01*
X82090714Y-70241048D02*
X82129762Y-70202000D01*
X82207857Y-70162952D01*
X82403095Y-70162952D01*
X82481191Y-70202000D01*
X82520238Y-70241048D01*
X82559286Y-70319143D01*
X82559286Y-70397238D01*
X82520238Y-70514381D01*
X82051667Y-70982952D01*
X82559286Y-70982952D01*
X77499762Y-85333952D02*
X77499762Y-84513952D01*
X77695000Y-84513952D01*
X77812143Y-84553000D01*
X77890238Y-84631095D01*
X77929286Y-84709190D01*
X77968334Y-84865381D01*
X77968334Y-84982524D01*
X77929286Y-85138714D01*
X77890238Y-85216810D01*
X77812143Y-85294905D01*
X77695000Y-85333952D01*
X77499762Y-85333952D01*
X78671191Y-84787286D02*
X78671191Y-85333952D01*
X78475953Y-84474905D02*
X78280714Y-85060619D01*
X78788334Y-85060619D01*
X94263762Y-99938952D02*
X94263762Y-99118952D01*
X94459000Y-99118952D01*
X94576143Y-99158000D01*
X94654238Y-99236095D01*
X94693286Y-99314190D01*
X94732334Y-99470381D01*
X94732334Y-99587524D01*
X94693286Y-99743714D01*
X94654238Y-99821810D01*
X94576143Y-99899905D01*
X94459000Y-99938952D01*
X94263762Y-99938952D01*
X95474238Y-99118952D02*
X95083762Y-99118952D01*
X95044714Y-99509429D01*
X95083762Y-99470381D01*
X95161857Y-99431333D01*
X95357095Y-99431333D01*
X95435191Y-99470381D01*
X95474238Y-99509429D01*
X95513286Y-99587524D01*
X95513286Y-99782762D01*
X95474238Y-99860857D01*
X95435191Y-99899905D01*
X95357095Y-99938952D01*
X95161857Y-99938952D01*
X95083762Y-99899905D01*
X95044714Y-99860857D01*
X99724762Y-85587952D02*
X99724762Y-84767952D01*
X99920000Y-84767952D01*
X100037143Y-84807000D01*
X100115238Y-84885095D01*
X100154286Y-84963190D01*
X100193334Y-85119381D01*
X100193334Y-85236524D01*
X100154286Y-85392714D01*
X100115238Y-85470810D01*
X100037143Y-85548905D01*
X99920000Y-85587952D01*
X99724762Y-85587952D01*
X100896191Y-84767952D02*
X100740000Y-84767952D01*
X100661905Y-84807000D01*
X100622857Y-84846048D01*
X100544762Y-84963190D01*
X100505714Y-85119381D01*
X100505714Y-85431762D01*
X100544762Y-85509857D01*
X100583810Y-85548905D01*
X100661905Y-85587952D01*
X100818095Y-85587952D01*
X100896191Y-85548905D01*
X100935238Y-85509857D01*
X100974286Y-85431762D01*
X100974286Y-85236524D01*
X100935238Y-85158429D01*
X100896191Y-85119381D01*
X100818095Y-85080333D01*
X100661905Y-85080333D01*
X100583810Y-85119381D01*
X100544762Y-85158429D01*
X100505714Y-85236524D01*
X142269762Y-107050952D02*
X142269762Y-106230952D01*
X142465000Y-106230952D01*
X142582143Y-106270000D01*
X142660238Y-106348095D01*
X142699286Y-106426190D01*
X142738334Y-106582381D01*
X142738334Y-106699524D01*
X142699286Y-106855714D01*
X142660238Y-106933810D01*
X142582143Y-107011905D01*
X142465000Y-107050952D01*
X142269762Y-107050952D01*
X143011667Y-106230952D02*
X143558334Y-106230952D01*
X143206905Y-107050952D01*
X50907667Y-79306952D02*
X50907667Y-79892667D01*
X50868619Y-80009810D01*
X50790524Y-80087905D01*
X50673381Y-80126952D01*
X50595286Y-80126952D01*
X51727667Y-80126952D02*
X51259095Y-80126952D01*
X51493381Y-80126952D02*
X51493381Y-79306952D01*
X51415286Y-79424095D01*
X51337191Y-79502190D01*
X51259095Y-79541238D01*
X69586333Y-69458952D02*
X69195857Y-69458952D01*
X69195857Y-68638952D01*
X70289191Y-69458952D02*
X69820619Y-69458952D01*
X70054905Y-69458952D02*
X70054905Y-68638952D01*
X69976810Y-68756095D01*
X69898715Y-68834190D01*
X69820619Y-68873238D01*
X69205333Y-87492952D02*
X68814857Y-87492952D01*
X68814857Y-86672952D01*
X69439619Y-86751048D02*
X69478667Y-86712000D01*
X69556762Y-86672952D01*
X69752000Y-86672952D01*
X69830096Y-86712000D01*
X69869143Y-86751048D01*
X69908191Y-86829143D01*
X69908191Y-86907238D01*
X69869143Y-87024381D01*
X69400572Y-87492952D01*
X69908191Y-87492952D01*
X80380952Y-80654667D02*
X80380952Y-81045143D01*
X79560952Y-81045143D01*
X79560952Y-80459428D02*
X79560952Y-79951809D01*
X79873333Y-80225142D01*
X79873333Y-80108000D01*
X79912381Y-80029904D01*
X79951429Y-79990857D01*
X80029524Y-79951809D01*
X80224762Y-79951809D01*
X80302857Y-79990857D01*
X80341905Y-80029904D01*
X80380952Y-80108000D01*
X80380952Y-80342285D01*
X80341905Y-80420381D01*
X80302857Y-80459428D01*
X50575762Y-58536952D02*
X50575762Y-57716952D01*
X50888143Y-57716952D01*
X50966238Y-57756000D01*
X51005286Y-57795048D01*
X51044334Y-57873143D01*
X51044334Y-57990286D01*
X51005286Y-58068381D01*
X50966238Y-58107429D01*
X50888143Y-58146476D01*
X50575762Y-58146476D01*
X51825286Y-58536952D02*
X51356714Y-58536952D01*
X51591000Y-58536952D02*
X51591000Y-57716952D01*
X51512905Y-57834095D01*
X51434810Y-57912190D01*
X51356714Y-57951238D01*
X73054762Y-91683952D02*
X73054762Y-90863952D01*
X73367143Y-90863952D01*
X73445238Y-90903000D01*
X73484286Y-90942048D01*
X73523334Y-91020143D01*
X73523334Y-91137286D01*
X73484286Y-91215381D01*
X73445238Y-91254429D01*
X73367143Y-91293476D01*
X73054762Y-91293476D01*
X74226191Y-91137286D02*
X74226191Y-91683952D01*
X74030953Y-90824905D02*
X73835714Y-91410619D01*
X74343334Y-91410619D01*
X104550762Y-91810952D02*
X104550762Y-90990952D01*
X104863143Y-90990952D01*
X104941238Y-91030000D01*
X104980286Y-91069048D01*
X105019334Y-91147143D01*
X105019334Y-91264286D01*
X104980286Y-91342381D01*
X104941238Y-91381429D01*
X104863143Y-91420476D01*
X104550762Y-91420476D01*
X105292667Y-90990952D02*
X105839334Y-90990952D01*
X105487905Y-91810952D01*
X104550762Y-86730952D02*
X104550762Y-85910952D01*
X104863143Y-85910952D01*
X104941238Y-85950000D01*
X104980286Y-85989048D01*
X105019334Y-86067143D01*
X105019334Y-86184286D01*
X104980286Y-86262381D01*
X104941238Y-86301429D01*
X104863143Y-86340476D01*
X104550762Y-86340476D01*
X105409810Y-86730952D02*
X105566000Y-86730952D01*
X105644095Y-86691905D01*
X105683143Y-86652857D01*
X105761238Y-86535714D01*
X105800286Y-86379524D01*
X105800286Y-86067143D01*
X105761238Y-85989048D01*
X105722191Y-85950000D01*
X105644095Y-85910952D01*
X105487905Y-85910952D01*
X105409810Y-85950000D01*
X105370762Y-85989048D01*
X105331714Y-86067143D01*
X105331714Y-86262381D01*
X105370762Y-86340476D01*
X105409810Y-86379524D01*
X105487905Y-86418571D01*
X105644095Y-86418571D01*
X105722191Y-86379524D01*
X105761238Y-86340476D01*
X105800286Y-86262381D01*
X104541286Y-84190952D02*
X104541286Y-83370952D01*
X104853667Y-83370952D01*
X104931762Y-83410000D01*
X104970810Y-83449048D01*
X105009858Y-83527143D01*
X105009858Y-83644286D01*
X104970810Y-83722381D01*
X104931762Y-83761429D01*
X104853667Y-83800476D01*
X104541286Y-83800476D01*
X105790810Y-84190952D02*
X105322238Y-84190952D01*
X105556524Y-84190952D02*
X105556524Y-83370952D01*
X105478429Y-83488095D01*
X105400334Y-83566190D01*
X105322238Y-83605238D01*
X106298429Y-83370952D02*
X106376524Y-83370952D01*
X106454619Y-83410000D01*
X106493667Y-83449048D01*
X106532714Y-83527143D01*
X106571762Y-83683333D01*
X106571762Y-83878571D01*
X106532714Y-84034762D01*
X106493667Y-84112857D01*
X106454619Y-84151905D01*
X106376524Y-84190952D01*
X106298429Y-84190952D01*
X106220333Y-84151905D01*
X106181286Y-84112857D01*
X106142238Y-84034762D01*
X106103190Y-83878571D01*
X106103190Y-83683333D01*
X106142238Y-83527143D01*
X106181286Y-83449048D01*
X106220333Y-83410000D01*
X106298429Y-83370952D01*
X104541286Y-101970952D02*
X104541286Y-101150952D01*
X104853667Y-101150952D01*
X104931762Y-101190000D01*
X104970810Y-101229048D01*
X105009858Y-101307143D01*
X105009858Y-101424286D01*
X104970810Y-101502381D01*
X104931762Y-101541429D01*
X104853667Y-101580476D01*
X104541286Y-101580476D01*
X105790810Y-101970952D02*
X105322238Y-101970952D01*
X105556524Y-101970952D02*
X105556524Y-101150952D01*
X105478429Y-101268095D01*
X105400334Y-101346190D01*
X105322238Y-101385238D01*
X106571762Y-101970952D02*
X106103190Y-101970952D01*
X106337476Y-101970952D02*
X106337476Y-101150952D01*
X106259381Y-101268095D01*
X106181286Y-101346190D01*
X106103190Y-101385238D01*
X104541286Y-99430952D02*
X104541286Y-98610952D01*
X104853667Y-98610952D01*
X104931762Y-98650000D01*
X104970810Y-98689048D01*
X105009858Y-98767143D01*
X105009858Y-98884286D01*
X104970810Y-98962381D01*
X104931762Y-99001429D01*
X104853667Y-99040476D01*
X104541286Y-99040476D01*
X105790810Y-99430952D02*
X105322238Y-99430952D01*
X105556524Y-99430952D02*
X105556524Y-98610952D01*
X105478429Y-98728095D01*
X105400334Y-98806190D01*
X105322238Y-98845238D01*
X106103190Y-98689048D02*
X106142238Y-98650000D01*
X106220333Y-98610952D01*
X106415571Y-98610952D01*
X106493667Y-98650000D01*
X106532714Y-98689048D01*
X106571762Y-98767143D01*
X106571762Y-98845238D01*
X106532714Y-98962381D01*
X106064143Y-99430952D01*
X106571762Y-99430952D01*
X104541286Y-96890952D02*
X104541286Y-96070952D01*
X104853667Y-96070952D01*
X104931762Y-96110000D01*
X104970810Y-96149048D01*
X105009858Y-96227143D01*
X105009858Y-96344286D01*
X104970810Y-96422381D01*
X104931762Y-96461429D01*
X104853667Y-96500476D01*
X104541286Y-96500476D01*
X105790810Y-96890952D02*
X105322238Y-96890952D01*
X105556524Y-96890952D02*
X105556524Y-96070952D01*
X105478429Y-96188095D01*
X105400334Y-96266190D01*
X105322238Y-96305238D01*
X106064143Y-96070952D02*
X106571762Y-96070952D01*
X106298429Y-96383333D01*
X106415571Y-96383333D01*
X106493667Y-96422381D01*
X106532714Y-96461429D01*
X106571762Y-96539524D01*
X106571762Y-96734762D01*
X106532714Y-96812857D01*
X106493667Y-96851905D01*
X106415571Y-96890952D01*
X106181286Y-96890952D01*
X106103190Y-96851905D01*
X106064143Y-96812857D01*
X104541286Y-94350952D02*
X104541286Y-93530952D01*
X104853667Y-93530952D01*
X104931762Y-93570000D01*
X104970810Y-93609048D01*
X105009858Y-93687143D01*
X105009858Y-93804286D01*
X104970810Y-93882381D01*
X104931762Y-93921429D01*
X104853667Y-93960476D01*
X104541286Y-93960476D01*
X105790810Y-94350952D02*
X105322238Y-94350952D01*
X105556524Y-94350952D02*
X105556524Y-93530952D01*
X105478429Y-93648095D01*
X105400334Y-93726190D01*
X105322238Y-93765238D01*
X106493667Y-93804286D02*
X106493667Y-94350952D01*
X106298429Y-93491905D02*
X106103190Y-94077619D01*
X106610810Y-94077619D01*
X88000952Y-72877714D02*
X87180952Y-72877714D01*
X87180952Y-72565333D01*
X87220000Y-72487238D01*
X87259048Y-72448190D01*
X87337143Y-72409142D01*
X87454286Y-72409142D01*
X87532381Y-72448190D01*
X87571429Y-72487238D01*
X87610476Y-72565333D01*
X87610476Y-72877714D01*
X88000952Y-71628190D02*
X88000952Y-72096762D01*
X88000952Y-71862476D02*
X87180952Y-71862476D01*
X87298095Y-71940571D01*
X87376190Y-72018666D01*
X87415238Y-72096762D01*
X87180952Y-70886286D02*
X87180952Y-71276762D01*
X87571429Y-71315810D01*
X87532381Y-71276762D01*
X87493333Y-71198667D01*
X87493333Y-71003429D01*
X87532381Y-70925333D01*
X87571429Y-70886286D01*
X87649524Y-70847238D01*
X87844762Y-70847238D01*
X87922857Y-70886286D01*
X87961905Y-70925333D01*
X88000952Y-71003429D01*
X88000952Y-71198667D01*
X87961905Y-71276762D01*
X87922857Y-71315810D01*
X90286952Y-72877714D02*
X89466952Y-72877714D01*
X89466952Y-72565333D01*
X89506000Y-72487238D01*
X89545048Y-72448190D01*
X89623143Y-72409142D01*
X89740286Y-72409142D01*
X89818381Y-72448190D01*
X89857429Y-72487238D01*
X89896476Y-72565333D01*
X89896476Y-72877714D01*
X90286952Y-71628190D02*
X90286952Y-72096762D01*
X90286952Y-71862476D02*
X89466952Y-71862476D01*
X89584095Y-71940571D01*
X89662190Y-72018666D01*
X89701238Y-72096762D01*
X89466952Y-70925333D02*
X89466952Y-71081524D01*
X89506000Y-71159619D01*
X89545048Y-71198667D01*
X89662190Y-71276762D01*
X89818381Y-71315810D01*
X90130762Y-71315810D01*
X90208857Y-71276762D01*
X90247905Y-71237714D01*
X90286952Y-71159619D01*
X90286952Y-71003429D01*
X90247905Y-70925333D01*
X90208857Y-70886286D01*
X90130762Y-70847238D01*
X89935524Y-70847238D01*
X89857429Y-70886286D01*
X89818381Y-70925333D01*
X89779333Y-71003429D01*
X89779333Y-71159619D01*
X89818381Y-71237714D01*
X89857429Y-71276762D01*
X89935524Y-71315810D01*
X91333286Y-73268952D02*
X91333286Y-72448952D01*
X91645667Y-72448952D01*
X91723762Y-72488000D01*
X91762810Y-72527048D01*
X91801858Y-72605143D01*
X91801858Y-72722286D01*
X91762810Y-72800381D01*
X91723762Y-72839429D01*
X91645667Y-72878476D01*
X91333286Y-72878476D01*
X92582810Y-73268952D02*
X92114238Y-73268952D01*
X92348524Y-73268952D02*
X92348524Y-72448952D01*
X92270429Y-72566095D01*
X92192334Y-72644190D01*
X92114238Y-72683238D01*
X92856143Y-72448952D02*
X93402810Y-72448952D01*
X93051381Y-73268952D01*
X95620952Y-71226714D02*
X94800952Y-71226714D01*
X94800952Y-70914333D01*
X94840000Y-70836238D01*
X94879048Y-70797190D01*
X94957143Y-70758142D01*
X95074286Y-70758142D01*
X95152381Y-70797190D01*
X95191429Y-70836238D01*
X95230476Y-70914333D01*
X95230476Y-71226714D01*
X95620952Y-69977190D02*
X95620952Y-70445762D01*
X95620952Y-70211476D02*
X94800952Y-70211476D01*
X94918095Y-70289571D01*
X94996190Y-70367666D01*
X95035238Y-70445762D01*
X95152381Y-69508619D02*
X95113333Y-69586714D01*
X95074286Y-69625762D01*
X94996190Y-69664810D01*
X94957143Y-69664810D01*
X94879048Y-69625762D01*
X94840000Y-69586714D01*
X94800952Y-69508619D01*
X94800952Y-69352429D01*
X94840000Y-69274333D01*
X94879048Y-69235286D01*
X94957143Y-69196238D01*
X94996190Y-69196238D01*
X95074286Y-69235286D01*
X95113333Y-69274333D01*
X95152381Y-69352429D01*
X95152381Y-69508619D01*
X95191429Y-69586714D01*
X95230476Y-69625762D01*
X95308571Y-69664810D01*
X95464762Y-69664810D01*
X95542857Y-69625762D01*
X95581905Y-69586714D01*
X95620952Y-69508619D01*
X95620952Y-69352429D01*
X95581905Y-69274333D01*
X95542857Y-69235286D01*
X95464762Y-69196238D01*
X95308571Y-69196238D01*
X95230476Y-69235286D01*
X95191429Y-69274333D01*
X95152381Y-69352429D01*
X98287952Y-71099714D02*
X97467952Y-71099714D01*
X97467952Y-70787333D01*
X97507000Y-70709238D01*
X97546048Y-70670190D01*
X97624143Y-70631142D01*
X97741286Y-70631142D01*
X97819381Y-70670190D01*
X97858429Y-70709238D01*
X97897476Y-70787333D01*
X97897476Y-71099714D01*
X98287952Y-69850190D02*
X98287952Y-70318762D01*
X98287952Y-70084476D02*
X97467952Y-70084476D01*
X97585095Y-70162571D01*
X97663190Y-70240666D01*
X97702238Y-70318762D01*
X98287952Y-69459714D02*
X98287952Y-69303524D01*
X98248905Y-69225429D01*
X98209857Y-69186381D01*
X98092714Y-69108286D01*
X97936524Y-69069238D01*
X97624143Y-69069238D01*
X97546048Y-69108286D01*
X97507000Y-69147333D01*
X97467952Y-69225429D01*
X97467952Y-69381619D01*
X97507000Y-69459714D01*
X97546048Y-69498762D01*
X97624143Y-69537810D01*
X97819381Y-69537810D01*
X97897476Y-69498762D01*
X97936524Y-69459714D01*
X97975571Y-69381619D01*
X97975571Y-69225429D01*
X97936524Y-69147333D01*
X97897476Y-69108286D01*
X97819381Y-69069238D01*
X101874286Y-75300952D02*
X101874286Y-74480952D01*
X102186667Y-74480952D01*
X102264762Y-74520000D01*
X102303810Y-74559048D01*
X102342858Y-74637143D01*
X102342858Y-74754286D01*
X102303810Y-74832381D01*
X102264762Y-74871429D01*
X102186667Y-74910476D01*
X101874286Y-74910476D01*
X102655238Y-74559048D02*
X102694286Y-74520000D01*
X102772381Y-74480952D01*
X102967619Y-74480952D01*
X103045715Y-74520000D01*
X103084762Y-74559048D01*
X103123810Y-74637143D01*
X103123810Y-74715238D01*
X103084762Y-74832381D01*
X102616191Y-75300952D01*
X103123810Y-75300952D01*
X103631429Y-74480952D02*
X103709524Y-74480952D01*
X103787619Y-74520000D01*
X103826667Y-74559048D01*
X103865714Y-74637143D01*
X103904762Y-74793333D01*
X103904762Y-74988571D01*
X103865714Y-75144762D01*
X103826667Y-75222857D01*
X103787619Y-75261905D01*
X103709524Y-75300952D01*
X103631429Y-75300952D01*
X103553333Y-75261905D01*
X103514286Y-75222857D01*
X103475238Y-75144762D01*
X103436190Y-74988571D01*
X103436190Y-74793333D01*
X103475238Y-74637143D01*
X103514286Y-74559048D01*
X103553333Y-74520000D01*
X103631429Y-74480952D01*
X78095334Y-108447952D02*
X77822000Y-108057476D01*
X77626762Y-108447952D02*
X77626762Y-107627952D01*
X77939143Y-107627952D01*
X78017238Y-107667000D01*
X78056286Y-107706048D01*
X78095334Y-107784143D01*
X78095334Y-107901286D01*
X78056286Y-107979381D01*
X78017238Y-108018429D01*
X77939143Y-108057476D01*
X77626762Y-108057476D01*
X78876286Y-108447952D02*
X78407714Y-108447952D01*
X78642000Y-108447952D02*
X78642000Y-107627952D01*
X78563905Y-107745095D01*
X78485810Y-107823190D01*
X78407714Y-107862238D01*
X55235334Y-68442952D02*
X54962000Y-68052476D01*
X54766762Y-68442952D02*
X54766762Y-67622952D01*
X55079143Y-67622952D01*
X55157238Y-67662000D01*
X55196286Y-67701048D01*
X55235334Y-67779143D01*
X55235334Y-67896286D01*
X55196286Y-67974381D01*
X55157238Y-68013429D01*
X55079143Y-68052476D01*
X54766762Y-68052476D01*
X55547714Y-67701048D02*
X55586762Y-67662000D01*
X55664857Y-67622952D01*
X55860095Y-67622952D01*
X55938191Y-67662000D01*
X55977238Y-67701048D01*
X56016286Y-67779143D01*
X56016286Y-67857238D01*
X55977238Y-67974381D01*
X55508667Y-68442952D01*
X56016286Y-68442952D01*
X68316334Y-65394952D02*
X68043000Y-65004476D01*
X67847762Y-65394952D02*
X67847762Y-64574952D01*
X68160143Y-64574952D01*
X68238238Y-64614000D01*
X68277286Y-64653048D01*
X68316334Y-64731143D01*
X68316334Y-64848286D01*
X68277286Y-64926381D01*
X68238238Y-64965429D01*
X68160143Y-65004476D01*
X67847762Y-65004476D01*
X68589667Y-64574952D02*
X69097286Y-64574952D01*
X68823953Y-64887333D01*
X68941095Y-64887333D01*
X69019191Y-64926381D01*
X69058238Y-64965429D01*
X69097286Y-65043524D01*
X69097286Y-65238762D01*
X69058238Y-65316857D01*
X69019191Y-65355905D01*
X68941095Y-65394952D01*
X68706810Y-65394952D01*
X68628714Y-65355905D01*
X68589667Y-65316857D01*
X89778952Y-78368666D02*
X89388476Y-78642000D01*
X89778952Y-78837238D02*
X88958952Y-78837238D01*
X88958952Y-78524857D01*
X88998000Y-78446762D01*
X89037048Y-78407714D01*
X89115143Y-78368666D01*
X89232286Y-78368666D01*
X89310381Y-78407714D01*
X89349429Y-78446762D01*
X89388476Y-78524857D01*
X89388476Y-78837238D01*
X89232286Y-77665809D02*
X89778952Y-77665809D01*
X88919905Y-77861047D02*
X89505619Y-78056286D01*
X89505619Y-77548666D01*
X53076334Y-69585952D02*
X52803000Y-69195476D01*
X52607762Y-69585952D02*
X52607762Y-68765952D01*
X52920143Y-68765952D01*
X52998238Y-68805000D01*
X53037286Y-68844048D01*
X53076334Y-68922143D01*
X53076334Y-69039286D01*
X53037286Y-69117381D01*
X52998238Y-69156429D01*
X52920143Y-69195476D01*
X52607762Y-69195476D01*
X53818238Y-68765952D02*
X53427762Y-68765952D01*
X53388714Y-69156429D01*
X53427762Y-69117381D01*
X53505857Y-69078333D01*
X53701095Y-69078333D01*
X53779191Y-69117381D01*
X53818238Y-69156429D01*
X53857286Y-69234524D01*
X53857286Y-69429762D01*
X53818238Y-69507857D01*
X53779191Y-69546905D01*
X53701095Y-69585952D01*
X53505857Y-69585952D01*
X53427762Y-69546905D01*
X53388714Y-69507857D01*
X51806334Y-77586952D02*
X51533000Y-77196476D01*
X51337762Y-77586952D02*
X51337762Y-76766952D01*
X51650143Y-76766952D01*
X51728238Y-76806000D01*
X51767286Y-76845048D01*
X51806334Y-76923143D01*
X51806334Y-77040286D01*
X51767286Y-77118381D01*
X51728238Y-77157429D01*
X51650143Y-77196476D01*
X51337762Y-77196476D01*
X52509191Y-76766952D02*
X52353000Y-76766952D01*
X52274905Y-76806000D01*
X52235857Y-76845048D01*
X52157762Y-76962190D01*
X52118714Y-77118381D01*
X52118714Y-77430762D01*
X52157762Y-77508857D01*
X52196810Y-77547905D01*
X52274905Y-77586952D01*
X52431095Y-77586952D01*
X52509191Y-77547905D01*
X52548238Y-77508857D01*
X52587286Y-77430762D01*
X52587286Y-77235524D01*
X52548238Y-77157429D01*
X52509191Y-77118381D01*
X52431095Y-77079333D01*
X52274905Y-77079333D01*
X52196810Y-77118381D01*
X52157762Y-77157429D01*
X52118714Y-77235524D01*
X79111334Y-91429952D02*
X78838000Y-91039476D01*
X78642762Y-91429952D02*
X78642762Y-90609952D01*
X78955143Y-90609952D01*
X79033238Y-90649000D01*
X79072286Y-90688048D01*
X79111334Y-90766143D01*
X79111334Y-90883286D01*
X79072286Y-90961381D01*
X79033238Y-91000429D01*
X78955143Y-91039476D01*
X78642762Y-91039476D01*
X79384667Y-90609952D02*
X79931334Y-90609952D01*
X79579905Y-91429952D01*
X75682334Y-72252952D02*
X75409000Y-71862476D01*
X75213762Y-72252952D02*
X75213762Y-71432952D01*
X75526143Y-71432952D01*
X75604238Y-71472000D01*
X75643286Y-71511048D01*
X75682334Y-71589143D01*
X75682334Y-71706286D01*
X75643286Y-71784381D01*
X75604238Y-71823429D01*
X75526143Y-71862476D01*
X75213762Y-71862476D01*
X76072810Y-72252952D02*
X76229000Y-72252952D01*
X76307095Y-72213905D01*
X76346143Y-72174857D01*
X76424238Y-72057714D01*
X76463286Y-71901524D01*
X76463286Y-71589143D01*
X76424238Y-71511048D01*
X76385191Y-71472000D01*
X76307095Y-71432952D01*
X76150905Y-71432952D01*
X76072810Y-71472000D01*
X76033762Y-71511048D01*
X75994714Y-71589143D01*
X75994714Y-71784381D01*
X76033762Y-71862476D01*
X76072810Y-71901524D01*
X76150905Y-71940571D01*
X76307095Y-71940571D01*
X76385191Y-71901524D01*
X76424238Y-71862476D01*
X76463286Y-71784381D01*
X72116858Y-82158952D02*
X71843524Y-81768476D01*
X71648286Y-82158952D02*
X71648286Y-81338952D01*
X71960667Y-81338952D01*
X72038762Y-81378000D01*
X72077810Y-81417048D01*
X72116858Y-81495143D01*
X72116858Y-81612286D01*
X72077810Y-81690381D01*
X72038762Y-81729429D01*
X71960667Y-81768476D01*
X71648286Y-81768476D01*
X72897810Y-82158952D02*
X72429238Y-82158952D01*
X72663524Y-82158952D02*
X72663524Y-81338952D01*
X72585429Y-81456095D01*
X72507334Y-81534190D01*
X72429238Y-81573238D01*
X73678762Y-82158952D02*
X73210190Y-82158952D01*
X73444476Y-82158952D02*
X73444476Y-81338952D01*
X73366381Y-81456095D01*
X73288286Y-81534190D01*
X73210190Y-81573238D01*
X72243858Y-84444952D02*
X71970524Y-84054476D01*
X71775286Y-84444952D02*
X71775286Y-83624952D01*
X72087667Y-83624952D01*
X72165762Y-83664000D01*
X72204810Y-83703048D01*
X72243858Y-83781143D01*
X72243858Y-83898286D01*
X72204810Y-83976381D01*
X72165762Y-84015429D01*
X72087667Y-84054476D01*
X71775286Y-84054476D01*
X73024810Y-84444952D02*
X72556238Y-84444952D01*
X72790524Y-84444952D02*
X72790524Y-83624952D01*
X72712429Y-83742095D01*
X72634334Y-83820190D01*
X72556238Y-83859238D01*
X73337190Y-83703048D02*
X73376238Y-83664000D01*
X73454333Y-83624952D01*
X73649571Y-83624952D01*
X73727667Y-83664000D01*
X73766714Y-83703048D01*
X73805762Y-83781143D01*
X73805762Y-83859238D01*
X73766714Y-83976381D01*
X73298143Y-84444952D01*
X73805762Y-84444952D01*
X83546858Y-106415952D02*
X83273524Y-106025476D01*
X83078286Y-106415952D02*
X83078286Y-105595952D01*
X83390667Y-105595952D01*
X83468762Y-105635000D01*
X83507810Y-105674048D01*
X83546858Y-105752143D01*
X83546858Y-105869286D01*
X83507810Y-105947381D01*
X83468762Y-105986429D01*
X83390667Y-106025476D01*
X83078286Y-106025476D01*
X84327810Y-106415952D02*
X83859238Y-106415952D01*
X84093524Y-106415952D02*
X84093524Y-105595952D01*
X84015429Y-105713095D01*
X83937334Y-105791190D01*
X83859238Y-105830238D01*
X84601143Y-105595952D02*
X85108762Y-105595952D01*
X84835429Y-105908333D01*
X84952571Y-105908333D01*
X85030667Y-105947381D01*
X85069714Y-105986429D01*
X85108762Y-106064524D01*
X85108762Y-106259762D01*
X85069714Y-106337857D01*
X85030667Y-106376905D01*
X84952571Y-106415952D01*
X84718286Y-106415952D01*
X84640190Y-106376905D01*
X84601143Y-106337857D01*
X76316952Y-88157142D02*
X75926476Y-88430476D01*
X76316952Y-88625714D02*
X75496952Y-88625714D01*
X75496952Y-88313333D01*
X75536000Y-88235238D01*
X75575048Y-88196190D01*
X75653143Y-88157142D01*
X75770286Y-88157142D01*
X75848381Y-88196190D01*
X75887429Y-88235238D01*
X75926476Y-88313333D01*
X75926476Y-88625714D01*
X76316952Y-87376190D02*
X76316952Y-87844762D01*
X76316952Y-87610476D02*
X75496952Y-87610476D01*
X75614095Y-87688571D01*
X75692190Y-87766666D01*
X75731238Y-87844762D01*
X75770286Y-86673333D02*
X76316952Y-86673333D01*
X75457905Y-86868571D02*
X76043619Y-87063810D01*
X76043619Y-86556190D01*
X95738858Y-95874952D02*
X95465524Y-95484476D01*
X95270286Y-95874952D02*
X95270286Y-95054952D01*
X95582667Y-95054952D01*
X95660762Y-95094000D01*
X95699810Y-95133048D01*
X95738858Y-95211143D01*
X95738858Y-95328286D01*
X95699810Y-95406381D01*
X95660762Y-95445429D01*
X95582667Y-95484476D01*
X95270286Y-95484476D01*
X96519810Y-95874952D02*
X96051238Y-95874952D01*
X96285524Y-95874952D02*
X96285524Y-95054952D01*
X96207429Y-95172095D01*
X96129334Y-95250190D01*
X96051238Y-95289238D01*
X97261714Y-95054952D02*
X96871238Y-95054952D01*
X96832190Y-95445429D01*
X96871238Y-95406381D01*
X96949333Y-95367333D01*
X97144571Y-95367333D01*
X97222667Y-95406381D01*
X97261714Y-95445429D01*
X97300762Y-95523524D01*
X97300762Y-95718762D01*
X97261714Y-95796857D01*
X97222667Y-95835905D01*
X97144571Y-95874952D01*
X96949333Y-95874952D01*
X96871238Y-95835905D01*
X96832190Y-95796857D01*
X97262858Y-79999952D02*
X96989524Y-79609476D01*
X96794286Y-79999952D02*
X96794286Y-79179952D01*
X97106667Y-79179952D01*
X97184762Y-79219000D01*
X97223810Y-79258048D01*
X97262858Y-79336143D01*
X97262858Y-79453286D01*
X97223810Y-79531381D01*
X97184762Y-79570429D01*
X97106667Y-79609476D01*
X96794286Y-79609476D01*
X98043810Y-79999952D02*
X97575238Y-79999952D01*
X97809524Y-79999952D02*
X97809524Y-79179952D01*
X97731429Y-79297095D01*
X97653334Y-79375190D01*
X97575238Y-79414238D01*
X98746667Y-79179952D02*
X98590476Y-79179952D01*
X98512381Y-79219000D01*
X98473333Y-79258048D01*
X98395238Y-79375190D01*
X98356190Y-79531381D01*
X98356190Y-79843762D01*
X98395238Y-79921857D01*
X98434286Y-79960905D01*
X98512381Y-79999952D01*
X98668571Y-79999952D01*
X98746667Y-79960905D01*
X98785714Y-79921857D01*
X98824762Y-79843762D01*
X98824762Y-79648524D01*
X98785714Y-79570429D01*
X98746667Y-79531381D01*
X98668571Y-79492333D01*
X98512381Y-79492333D01*
X98434286Y-79531381D01*
X98395238Y-79570429D01*
X98356190Y-79648524D01*
X97262858Y-85460952D02*
X96989524Y-85070476D01*
X96794286Y-85460952D02*
X96794286Y-84640952D01*
X97106667Y-84640952D01*
X97184762Y-84680000D01*
X97223810Y-84719048D01*
X97262858Y-84797143D01*
X97262858Y-84914286D01*
X97223810Y-84992381D01*
X97184762Y-85031429D01*
X97106667Y-85070476D01*
X96794286Y-85070476D01*
X98043810Y-85460952D02*
X97575238Y-85460952D01*
X97809524Y-85460952D02*
X97809524Y-84640952D01*
X97731429Y-84758095D01*
X97653334Y-84836190D01*
X97575238Y-84875238D01*
X98317143Y-84640952D02*
X98863810Y-84640952D01*
X98512381Y-85460952D01*
X131425858Y-102351952D02*
X131152524Y-101961476D01*
X130957286Y-102351952D02*
X130957286Y-101531952D01*
X131269667Y-101531952D01*
X131347762Y-101571000D01*
X131386810Y-101610048D01*
X131425858Y-101688143D01*
X131425858Y-101805286D01*
X131386810Y-101883381D01*
X131347762Y-101922429D01*
X131269667Y-101961476D01*
X130957286Y-101961476D01*
X132206810Y-102351952D02*
X131738238Y-102351952D01*
X131972524Y-102351952D02*
X131972524Y-101531952D01*
X131894429Y-101649095D01*
X131816334Y-101727190D01*
X131738238Y-101766238D01*
X132675381Y-101883381D02*
X132597286Y-101844333D01*
X132558238Y-101805286D01*
X132519190Y-101727190D01*
X132519190Y-101688143D01*
X132558238Y-101610048D01*
X132597286Y-101571000D01*
X132675381Y-101531952D01*
X132831571Y-101531952D01*
X132909667Y-101571000D01*
X132948714Y-101610048D01*
X132987762Y-101688143D01*
X132987762Y-101727190D01*
X132948714Y-101805286D01*
X132909667Y-101844333D01*
X132831571Y-101883381D01*
X132675381Y-101883381D01*
X132597286Y-101922429D01*
X132558238Y-101961476D01*
X132519190Y-102039571D01*
X132519190Y-102195762D01*
X132558238Y-102273857D01*
X132597286Y-102312905D01*
X132675381Y-102351952D01*
X132831571Y-102351952D01*
X132909667Y-102312905D01*
X132948714Y-102273857D01*
X132987762Y-102195762D01*
X132987762Y-102039571D01*
X132948714Y-101961476D01*
X132909667Y-101922429D01*
X132831571Y-101883381D01*
X67574238Y-60129952D02*
X68042810Y-60129952D01*
X67808524Y-60949952D02*
X67808524Y-60129952D01*
X68745667Y-60949952D02*
X68277095Y-60949952D01*
X68511381Y-60949952D02*
X68511381Y-60129952D01*
X68433286Y-60247095D01*
X68355191Y-60325190D01*
X68277095Y-60364238D01*
X69733238Y-96705952D02*
X70201810Y-96705952D01*
X69967524Y-97525952D02*
X69967524Y-96705952D01*
X70436095Y-96784048D02*
X70475143Y-96745000D01*
X70553238Y-96705952D01*
X70748476Y-96705952D01*
X70826572Y-96745000D01*
X70865619Y-96784048D01*
X70904667Y-96862143D01*
X70904667Y-96940238D01*
X70865619Y-97057381D01*
X70397048Y-97525952D01*
X70904667Y-97525952D01*
X119517238Y-88323952D02*
X119517238Y-88987762D01*
X119556286Y-89065857D01*
X119595333Y-89104905D01*
X119673429Y-89143952D01*
X119829619Y-89143952D01*
X119907714Y-89104905D01*
X119946762Y-89065857D01*
X119985810Y-88987762D01*
X119985810Y-88323952D01*
X120805810Y-89143952D02*
X120337238Y-89143952D01*
X120571524Y-89143952D02*
X120571524Y-88323952D01*
X120493429Y-88441095D01*
X120415334Y-88519190D01*
X120337238Y-88558238D01*
X128661238Y-64447952D02*
X128661238Y-65111762D01*
X128700286Y-65189857D01*
X128739333Y-65228905D01*
X128817429Y-65267952D01*
X128973619Y-65267952D01*
X129051714Y-65228905D01*
X129090762Y-65189857D01*
X129129810Y-65111762D01*
X129129810Y-64447952D01*
X129481238Y-64526048D02*
X129520286Y-64487000D01*
X129598381Y-64447952D01*
X129793619Y-64447952D01*
X129871715Y-64487000D01*
X129910762Y-64526048D01*
X129949810Y-64604143D01*
X129949810Y-64682238D01*
X129910762Y-64799381D01*
X129442191Y-65267952D01*
X129949810Y-65267952D01*
X93355238Y-67368952D02*
X93355238Y-68032762D01*
X93394286Y-68110857D01*
X93433333Y-68149905D01*
X93511429Y-68188952D01*
X93667619Y-68188952D01*
X93745714Y-68149905D01*
X93784762Y-68110857D01*
X93823810Y-68032762D01*
X93823810Y-67368952D01*
X94136191Y-67368952D02*
X94643810Y-67368952D01*
X94370477Y-67681333D01*
X94487619Y-67681333D01*
X94565715Y-67720381D01*
X94604762Y-67759429D01*
X94643810Y-67837524D01*
X94643810Y-68032762D01*
X94604762Y-68110857D01*
X94565715Y-68149905D01*
X94487619Y-68188952D01*
X94253334Y-68188952D01*
X94175238Y-68149905D01*
X94136191Y-68110857D01*
X136916238Y-67749952D02*
X136916238Y-68413762D01*
X136955286Y-68491857D01*
X136994333Y-68530905D01*
X137072429Y-68569952D01*
X137228619Y-68569952D01*
X137306714Y-68530905D01*
X137345762Y-68491857D01*
X137384810Y-68413762D01*
X137384810Y-67749952D01*
X138126715Y-68023286D02*
X138126715Y-68569952D01*
X137931477Y-67710905D02*
X137736238Y-68296619D01*
X138243858Y-68296619D01*
X95895238Y-59240952D02*
X95895238Y-59904762D01*
X95934286Y-59982857D01*
X95973333Y-60021905D01*
X96051429Y-60060952D01*
X96207619Y-60060952D01*
X96285714Y-60021905D01*
X96324762Y-59982857D01*
X96363810Y-59904762D01*
X96363810Y-59240952D01*
X97144762Y-59240952D02*
X96754286Y-59240952D01*
X96715238Y-59631429D01*
X96754286Y-59592381D01*
X96832381Y-59553333D01*
X97027619Y-59553333D01*
X97105715Y-59592381D01*
X97144762Y-59631429D01*
X97183810Y-59709524D01*
X97183810Y-59904762D01*
X97144762Y-59982857D01*
X97105715Y-60021905D01*
X97027619Y-60060952D01*
X96832381Y-60060952D01*
X96754286Y-60021905D01*
X96715238Y-59982857D01*
X86624238Y-62288952D02*
X86624238Y-62952762D01*
X86663286Y-63030857D01*
X86702333Y-63069905D01*
X86780429Y-63108952D01*
X86936619Y-63108952D01*
X87014714Y-63069905D01*
X87053762Y-63030857D01*
X87092810Y-62952762D01*
X87092810Y-62288952D01*
X87834715Y-62288952D02*
X87678524Y-62288952D01*
X87600429Y-62328000D01*
X87561381Y-62367048D01*
X87483286Y-62484190D01*
X87444238Y-62640381D01*
X87444238Y-62952762D01*
X87483286Y-63030857D01*
X87522334Y-63069905D01*
X87600429Y-63108952D01*
X87756619Y-63108952D01*
X87834715Y-63069905D01*
X87873762Y-63030857D01*
X87912810Y-62952762D01*
X87912810Y-62757524D01*
X87873762Y-62679429D01*
X87834715Y-62640381D01*
X87756619Y-62601333D01*
X87600429Y-62601333D01*
X87522334Y-62640381D01*
X87483286Y-62679429D01*
X87444238Y-62757524D01*
X110373238Y-59494952D02*
X110373238Y-60158762D01*
X110412286Y-60236857D01*
X110451333Y-60275905D01*
X110529429Y-60314952D01*
X110685619Y-60314952D01*
X110763714Y-60275905D01*
X110802762Y-60236857D01*
X110841810Y-60158762D01*
X110841810Y-59494952D01*
X111154191Y-59494952D02*
X111700858Y-59494952D01*
X111349429Y-60314952D01*
X78496238Y-59240952D02*
X78496238Y-59904762D01*
X78535286Y-59982857D01*
X78574333Y-60021905D01*
X78652429Y-60060952D01*
X78808619Y-60060952D01*
X78886714Y-60021905D01*
X78925762Y-59982857D01*
X78964810Y-59904762D01*
X78964810Y-59240952D01*
X79472429Y-59592381D02*
X79394334Y-59553333D01*
X79355286Y-59514286D01*
X79316238Y-59436190D01*
X79316238Y-59397143D01*
X79355286Y-59319048D01*
X79394334Y-59280000D01*
X79472429Y-59240952D01*
X79628619Y-59240952D01*
X79706715Y-59280000D01*
X79745762Y-59319048D01*
X79784810Y-59397143D01*
X79784810Y-59436190D01*
X79745762Y-59514286D01*
X79706715Y-59553333D01*
X79628619Y-59592381D01*
X79472429Y-59592381D01*
X79394334Y-59631429D01*
X79355286Y-59670476D01*
X79316238Y-59748571D01*
X79316238Y-59904762D01*
X79355286Y-59982857D01*
X79394334Y-60021905D01*
X79472429Y-60060952D01*
X79628619Y-60060952D01*
X79706715Y-60021905D01*
X79745762Y-59982857D01*
X79784810Y-59904762D01*
X79784810Y-59748571D01*
X79745762Y-59670476D01*
X79706715Y-59631429D01*
X79628619Y-59592381D01*
X118628238Y-62796952D02*
X118628238Y-63460762D01*
X118667286Y-63538857D01*
X118706333Y-63577905D01*
X118784429Y-63616952D01*
X118940619Y-63616952D01*
X119018714Y-63577905D01*
X119057762Y-63538857D01*
X119096810Y-63460762D01*
X119096810Y-62796952D01*
X119526334Y-63616952D02*
X119682524Y-63616952D01*
X119760619Y-63577905D01*
X119799667Y-63538857D01*
X119877762Y-63421714D01*
X119916810Y-63265524D01*
X119916810Y-62953143D01*
X119877762Y-62875048D01*
X119838715Y-62836000D01*
X119760619Y-62796952D01*
X119604429Y-62796952D01*
X119526334Y-62836000D01*
X119487286Y-62875048D01*
X119448238Y-62953143D01*
X119448238Y-63148381D01*
X119487286Y-63226476D01*
X119526334Y-63265524D01*
X119604429Y-63304571D01*
X119760619Y-63304571D01*
X119838715Y-63265524D01*
X119877762Y-63226476D01*
X119916810Y-63148381D01*
X88392762Y-84259952D02*
X88392762Y-84923762D01*
X88431810Y-85001857D01*
X88470857Y-85040905D01*
X88548953Y-85079952D01*
X88705143Y-85079952D01*
X88783238Y-85040905D01*
X88822286Y-85001857D01*
X88861334Y-84923762D01*
X88861334Y-84259952D01*
X89681334Y-85079952D02*
X89212762Y-85079952D01*
X89447048Y-85079952D02*
X89447048Y-84259952D01*
X89368953Y-84377095D01*
X89290858Y-84455190D01*
X89212762Y-84494238D01*
X90188953Y-84259952D02*
X90267048Y-84259952D01*
X90345143Y-84299000D01*
X90384191Y-84338048D01*
X90423238Y-84416143D01*
X90462286Y-84572333D01*
X90462286Y-84767571D01*
X90423238Y-84923762D01*
X90384191Y-85001857D01*
X90345143Y-85040905D01*
X90267048Y-85079952D01*
X90188953Y-85079952D01*
X90110857Y-85040905D01*
X90071810Y-85001857D01*
X90032762Y-84923762D01*
X89993714Y-84767571D01*
X89993714Y-84572333D01*
X90032762Y-84416143D01*
X90071810Y-84338048D01*
X90110857Y-84299000D01*
X90188953Y-84259952D01*
X113284762Y-91752952D02*
X113284762Y-92416762D01*
X113323810Y-92494857D01*
X113362857Y-92533905D01*
X113440953Y-92572952D01*
X113597143Y-92572952D01*
X113675238Y-92533905D01*
X113714286Y-92494857D01*
X113753334Y-92416762D01*
X113753334Y-91752952D01*
X114573334Y-92572952D02*
X114104762Y-92572952D01*
X114339048Y-92572952D02*
X114339048Y-91752952D01*
X114260953Y-91870095D01*
X114182858Y-91948190D01*
X114104762Y-91987238D01*
X115354286Y-92572952D02*
X114885714Y-92572952D01*
X115120000Y-92572952D02*
X115120000Y-91752952D01*
X115041905Y-91870095D01*
X114963810Y-91948190D01*
X114885714Y-91987238D01*
X88617191Y-95689952D02*
X89163858Y-96509952D01*
X89163858Y-95689952D02*
X88617191Y-96509952D01*
X89905762Y-96509952D02*
X89437190Y-96509952D01*
X89671476Y-96509952D02*
X89671476Y-95689952D01*
X89593381Y-95807095D01*
X89515286Y-95885190D01*
X89437190Y-95924238D01*
X85881762Y-107558952D02*
X85881762Y-106738952D01*
X86077000Y-106738952D01*
X86194143Y-106778000D01*
X86272238Y-106856095D01*
X86311286Y-106934190D01*
X86350334Y-107090381D01*
X86350334Y-107207524D01*
X86311286Y-107363714D01*
X86272238Y-107441810D01*
X86194143Y-107519905D01*
X86077000Y-107558952D01*
X85881762Y-107558952D01*
X86623667Y-106738952D02*
X87131286Y-106738952D01*
X86857953Y-107051333D01*
X86975095Y-107051333D01*
X87053191Y-107090381D01*
X87092238Y-107129429D01*
X87131286Y-107207524D01*
X87131286Y-107402762D01*
X87092238Y-107480857D01*
X87053191Y-107519905D01*
X86975095Y-107558952D01*
X86740810Y-107558952D01*
X86662714Y-107519905D01*
X86623667Y-107480857D01*
X148111762Y-83809952D02*
X148111762Y-82989952D01*
X148424143Y-82989952D01*
X148502238Y-83029000D01*
X148541286Y-83068048D01*
X148580334Y-83146143D01*
X148580334Y-83263286D01*
X148541286Y-83341381D01*
X148502238Y-83380429D01*
X148424143Y-83419476D01*
X148111762Y-83419476D01*
X148892714Y-83068048D02*
X148931762Y-83029000D01*
X149009857Y-82989952D01*
X149205095Y-82989952D01*
X149283191Y-83029000D01*
X149322238Y-83068048D01*
X149361286Y-83146143D01*
X149361286Y-83224238D01*
X149322238Y-83341381D01*
X148853667Y-83809952D01*
X149361286Y-83809952D01*
X111662762Y-51424952D02*
X111662762Y-50604952D01*
X111975143Y-50604952D01*
X112053238Y-50644000D01*
X112092286Y-50683048D01*
X112131334Y-50761143D01*
X112131334Y-50878286D01*
X112092286Y-50956381D01*
X112053238Y-50995429D01*
X111975143Y-51034476D01*
X111662762Y-51034476D01*
X112404667Y-50604952D02*
X112912286Y-50604952D01*
X112638953Y-50917333D01*
X112756095Y-50917333D01*
X112834191Y-50956381D01*
X112873238Y-50995429D01*
X112912286Y-51073524D01*
X112912286Y-51268762D01*
X112873238Y-51346857D01*
X112834191Y-51385905D01*
X112756095Y-51424952D01*
X112521810Y-51424952D01*
X112443714Y-51385905D01*
X112404667Y-51346857D01*
X82452762Y-51297952D02*
X82452762Y-50477952D01*
X82765143Y-50477952D01*
X82843238Y-50517000D01*
X82882286Y-50556048D01*
X82921334Y-50634143D01*
X82921334Y-50751286D01*
X82882286Y-50829381D01*
X82843238Y-50868429D01*
X82765143Y-50907476D01*
X82452762Y-50907476D01*
X83663238Y-50477952D02*
X83272762Y-50477952D01*
X83233714Y-50868429D01*
X83272762Y-50829381D01*
X83350857Y-50790333D01*
X83546095Y-50790333D01*
X83624191Y-50829381D01*
X83663238Y-50868429D01*
X83702286Y-50946524D01*
X83702286Y-51141762D01*
X83663238Y-51219857D01*
X83624191Y-51258905D01*
X83546095Y-51297952D01*
X83350857Y-51297952D01*
X83272762Y-51258905D01*
X83233714Y-51219857D01*
X140745762Y-51424952D02*
X140745762Y-50604952D01*
X141058143Y-50604952D01*
X141136238Y-50644000D01*
X141175286Y-50683048D01*
X141214334Y-50761143D01*
X141214334Y-50878286D01*
X141175286Y-50956381D01*
X141136238Y-50995429D01*
X141058143Y-51034476D01*
X140745762Y-51034476D01*
X141917191Y-50604952D02*
X141761000Y-50604952D01*
X141682905Y-50644000D01*
X141643857Y-50683048D01*
X141565762Y-50800190D01*
X141526714Y-50956381D01*
X141526714Y-51268762D01*
X141565762Y-51346857D01*
X141604810Y-51385905D01*
X141682905Y-51424952D01*
X141839095Y-51424952D01*
X141917191Y-51385905D01*
X141956238Y-51346857D01*
X141995286Y-51268762D01*
X141995286Y-51073524D01*
X141956238Y-50995429D01*
X141917191Y-50956381D01*
X141839095Y-50917333D01*
X141682905Y-50917333D01*
X141604810Y-50956381D01*
X141565762Y-50995429D01*
X141526714Y-51073524D01*
X82706762Y-101716952D02*
X82706762Y-100896952D01*
X82902000Y-100896952D01*
X83019143Y-100936000D01*
X83097238Y-101014095D01*
X83136286Y-101092190D01*
X83175334Y-101248381D01*
X83175334Y-101365524D01*
X83136286Y-101521714D01*
X83097238Y-101599810D01*
X83019143Y-101677905D01*
X82902000Y-101716952D01*
X82706762Y-101716952D01*
X83956286Y-101716952D02*
X83487714Y-101716952D01*
X83722000Y-101716952D02*
X83722000Y-100896952D01*
X83643905Y-101014095D01*
X83565810Y-101092190D01*
X83487714Y-101131238D01*
X129520858Y-88381952D02*
X129247524Y-87991476D01*
X129052286Y-88381952D02*
X129052286Y-87561952D01*
X129364667Y-87561952D01*
X129442762Y-87601000D01*
X129481810Y-87640048D01*
X129520858Y-87718143D01*
X129520858Y-87835286D01*
X129481810Y-87913381D01*
X129442762Y-87952429D01*
X129364667Y-87991476D01*
X129052286Y-87991476D01*
X130301810Y-88381952D02*
X129833238Y-88381952D01*
X130067524Y-88381952D02*
X130067524Y-87561952D01*
X129989429Y-87679095D01*
X129911334Y-87757190D01*
X129833238Y-87796238D01*
X130692286Y-88381952D02*
X130848476Y-88381952D01*
X130926571Y-88342905D01*
X130965619Y-88303857D01*
X131043714Y-88186714D01*
X131082762Y-88030524D01*
X131082762Y-87718143D01*
X131043714Y-87640048D01*
X131004667Y-87601000D01*
X130926571Y-87561952D01*
X130770381Y-87561952D01*
X130692286Y-87601000D01*
X130653238Y-87640048D01*
X130614190Y-87718143D01*
X130614190Y-87913381D01*
X130653238Y-87991476D01*
X130692286Y-88030524D01*
X130770381Y-88069571D01*
X130926571Y-88069571D01*
X131004667Y-88030524D01*
X131043714Y-87991476D01*
X131082762Y-87913381D01*
X138791858Y-88381952D02*
X138518524Y-87991476D01*
X138323286Y-88381952D02*
X138323286Y-87561952D01*
X138635667Y-87561952D01*
X138713762Y-87601000D01*
X138752810Y-87640048D01*
X138791858Y-87718143D01*
X138791858Y-87835286D01*
X138752810Y-87913381D01*
X138713762Y-87952429D01*
X138635667Y-87991476D01*
X138323286Y-87991476D01*
X139104238Y-87640048D02*
X139143286Y-87601000D01*
X139221381Y-87561952D01*
X139416619Y-87561952D01*
X139494715Y-87601000D01*
X139533762Y-87640048D01*
X139572810Y-87718143D01*
X139572810Y-87796238D01*
X139533762Y-87913381D01*
X139065191Y-88381952D01*
X139572810Y-88381952D01*
X140353762Y-88381952D02*
X139885190Y-88381952D01*
X140119476Y-88381952D02*
X140119476Y-87561952D01*
X140041381Y-87679095D01*
X139963286Y-87757190D01*
X139885190Y-87796238D01*
X124059858Y-105145952D02*
X123786524Y-104755476D01*
X123591286Y-105145952D02*
X123591286Y-104325952D01*
X123903667Y-104325952D01*
X123981762Y-104365000D01*
X124020810Y-104404048D01*
X124059858Y-104482143D01*
X124059858Y-104599286D01*
X124020810Y-104677381D01*
X123981762Y-104716429D01*
X123903667Y-104755476D01*
X123591286Y-104755476D01*
X124372238Y-104404048D02*
X124411286Y-104365000D01*
X124489381Y-104325952D01*
X124684619Y-104325952D01*
X124762715Y-104365000D01*
X124801762Y-104404048D01*
X124840810Y-104482143D01*
X124840810Y-104560238D01*
X124801762Y-104677381D01*
X124333191Y-105145952D01*
X124840810Y-105145952D01*
X125114143Y-104325952D02*
X125621762Y-104325952D01*
X125348429Y-104638333D01*
X125465571Y-104638333D01*
X125543667Y-104677381D01*
X125582714Y-104716429D01*
X125621762Y-104794524D01*
X125621762Y-104989762D01*
X125582714Y-105067857D01*
X125543667Y-105106905D01*
X125465571Y-105145952D01*
X125231286Y-105145952D01*
X125153190Y-105106905D01*
X125114143Y-105067857D01*
X133203858Y-105018952D02*
X132930524Y-104628476D01*
X132735286Y-105018952D02*
X132735286Y-104198952D01*
X133047667Y-104198952D01*
X133125762Y-104238000D01*
X133164810Y-104277048D01*
X133203858Y-104355143D01*
X133203858Y-104472286D01*
X133164810Y-104550381D01*
X133125762Y-104589429D01*
X133047667Y-104628476D01*
X132735286Y-104628476D01*
X133516238Y-104277048D02*
X133555286Y-104238000D01*
X133633381Y-104198952D01*
X133828619Y-104198952D01*
X133906715Y-104238000D01*
X133945762Y-104277048D01*
X133984810Y-104355143D01*
X133984810Y-104433238D01*
X133945762Y-104550381D01*
X133477191Y-105018952D01*
X133984810Y-105018952D01*
X134687667Y-104472286D02*
X134687667Y-105018952D01*
X134492429Y-104159905D02*
X134297190Y-104745619D01*
X134804810Y-104745619D01*
X137658334Y-92621857D02*
X137619286Y-92660905D01*
X137502143Y-92699952D01*
X137424048Y-92699952D01*
X137306905Y-92660905D01*
X137228810Y-92582810D01*
X137189762Y-92504714D01*
X137150714Y-92348524D01*
X137150714Y-92231381D01*
X137189762Y-92075190D01*
X137228810Y-91997095D01*
X137306905Y-91919000D01*
X137424048Y-91879952D01*
X137502143Y-91879952D01*
X137619286Y-91919000D01*
X137658334Y-91958048D01*
X138361191Y-92153286D02*
X138361191Y-92699952D01*
X138165953Y-91840905D02*
X137970714Y-92426619D01*
X138478334Y-92426619D01*
X60813858Y-90589857D02*
X60774810Y-90628905D01*
X60657667Y-90667952D01*
X60579572Y-90667952D01*
X60462429Y-90628905D01*
X60384334Y-90550810D01*
X60345286Y-90472714D01*
X60306238Y-90316524D01*
X60306238Y-90199381D01*
X60345286Y-90043190D01*
X60384334Y-89965095D01*
X60462429Y-89887000D01*
X60579572Y-89847952D01*
X60657667Y-89847952D01*
X60774810Y-89887000D01*
X60813858Y-89926048D01*
X61087191Y-89847952D02*
X61594810Y-89847952D01*
X61321477Y-90160333D01*
X61438619Y-90160333D01*
X61516715Y-90199381D01*
X61555762Y-90238429D01*
X61594810Y-90316524D01*
X61594810Y-90511762D01*
X61555762Y-90589857D01*
X61516715Y-90628905D01*
X61438619Y-90667952D01*
X61204334Y-90667952D01*
X61126238Y-90628905D01*
X61087191Y-90589857D01*
X62297667Y-90121286D02*
X62297667Y-90667952D01*
X62102429Y-89808905D02*
X61907190Y-90394619D01*
X62414810Y-90394619D01*
X71394286Y-67934952D02*
X71394286Y-67114952D01*
X71706667Y-67114952D01*
X71784762Y-67154000D01*
X71823810Y-67193048D01*
X71862858Y-67271143D01*
X71862858Y-67388286D01*
X71823810Y-67466381D01*
X71784762Y-67505429D01*
X71706667Y-67544476D01*
X71394286Y-67544476D01*
X72175238Y-67193048D02*
X72214286Y-67154000D01*
X72292381Y-67114952D01*
X72487619Y-67114952D01*
X72565715Y-67154000D01*
X72604762Y-67193048D01*
X72643810Y-67271143D01*
X72643810Y-67349238D01*
X72604762Y-67466381D01*
X72136191Y-67934952D01*
X72643810Y-67934952D01*
X73424762Y-67934952D02*
X72956190Y-67934952D01*
X73190476Y-67934952D02*
X73190476Y-67114952D01*
X73112381Y-67232095D01*
X73034286Y-67310190D01*
X72956190Y-67349238D01*
X80030286Y-77459952D02*
X80030286Y-76639952D01*
X80342667Y-76639952D01*
X80420762Y-76679000D01*
X80459810Y-76718048D01*
X80498858Y-76796143D01*
X80498858Y-76913286D01*
X80459810Y-76991381D01*
X80420762Y-77030429D01*
X80342667Y-77069476D01*
X80030286Y-77069476D01*
X80811238Y-76718048D02*
X80850286Y-76679000D01*
X80928381Y-76639952D01*
X81123619Y-76639952D01*
X81201715Y-76679000D01*
X81240762Y-76718048D01*
X81279810Y-76796143D01*
X81279810Y-76874238D01*
X81240762Y-76991381D01*
X80772191Y-77459952D01*
X81279810Y-77459952D01*
X81592190Y-76718048D02*
X81631238Y-76679000D01*
X81709333Y-76639952D01*
X81904571Y-76639952D01*
X81982667Y-76679000D01*
X82021714Y-76718048D01*
X82060762Y-76796143D01*
X82060762Y-76874238D01*
X82021714Y-76991381D01*
X81553143Y-77459952D01*
X82060762Y-77459952D01*
X76220286Y-75300952D02*
X76220286Y-74480952D01*
X76532667Y-74480952D01*
X76610762Y-74520000D01*
X76649810Y-74559048D01*
X76688858Y-74637143D01*
X76688858Y-74754286D01*
X76649810Y-74832381D01*
X76610762Y-74871429D01*
X76532667Y-74910476D01*
X76220286Y-74910476D01*
X77001238Y-74559048D02*
X77040286Y-74520000D01*
X77118381Y-74480952D01*
X77313619Y-74480952D01*
X77391715Y-74520000D01*
X77430762Y-74559048D01*
X77469810Y-74637143D01*
X77469810Y-74715238D01*
X77430762Y-74832381D01*
X76962191Y-75300952D01*
X77469810Y-75300952D01*
X77743143Y-74480952D02*
X78250762Y-74480952D01*
X77977429Y-74793333D01*
X78094571Y-74793333D01*
X78172667Y-74832381D01*
X78211714Y-74871429D01*
X78250762Y-74949524D01*
X78250762Y-75144762D01*
X78211714Y-75222857D01*
X78172667Y-75261905D01*
X78094571Y-75300952D01*
X77860286Y-75300952D01*
X77782190Y-75261905D01*
X77743143Y-75222857D01*
X109494286Y-92064952D02*
X109494286Y-91244952D01*
X109806667Y-91244952D01*
X109884762Y-91284000D01*
X109923810Y-91323048D01*
X109962858Y-91401143D01*
X109962858Y-91518286D01*
X109923810Y-91596381D01*
X109884762Y-91635429D01*
X109806667Y-91674476D01*
X109494286Y-91674476D01*
X110275238Y-91323048D02*
X110314286Y-91284000D01*
X110392381Y-91244952D01*
X110587619Y-91244952D01*
X110665715Y-91284000D01*
X110704762Y-91323048D01*
X110743810Y-91401143D01*
X110743810Y-91479238D01*
X110704762Y-91596381D01*
X110236191Y-92064952D01*
X110743810Y-92064952D01*
X111446667Y-91518286D02*
X111446667Y-92064952D01*
X111251429Y-91205905D02*
X111056190Y-91791619D01*
X111563810Y-91791619D01*
X83840286Y-73268952D02*
X83840286Y-72448952D01*
X84152667Y-72448952D01*
X84230762Y-72488000D01*
X84269810Y-72527048D01*
X84308858Y-72605143D01*
X84308858Y-72722286D01*
X84269810Y-72800381D01*
X84230762Y-72839429D01*
X84152667Y-72878476D01*
X83840286Y-72878476D01*
X84621238Y-72527048D02*
X84660286Y-72488000D01*
X84738381Y-72448952D01*
X84933619Y-72448952D01*
X85011715Y-72488000D01*
X85050762Y-72527048D01*
X85089810Y-72605143D01*
X85089810Y-72683238D01*
X85050762Y-72800381D01*
X84582191Y-73268952D01*
X85089810Y-73268952D01*
X85831714Y-72448952D02*
X85441238Y-72448952D01*
X85402190Y-72839429D01*
X85441238Y-72800381D01*
X85519333Y-72761333D01*
X85714571Y-72761333D01*
X85792667Y-72800381D01*
X85831714Y-72839429D01*
X85870762Y-72917524D01*
X85870762Y-73112762D01*
X85831714Y-73190857D01*
X85792667Y-73229905D01*
X85714571Y-73268952D01*
X85519333Y-73268952D01*
X85441238Y-73229905D01*
X85402190Y-73190857D01*
D16*
X112545905Y-83764381D02*
X112545905Y-82764381D01*
X112784000Y-82764381D01*
X112926858Y-82812000D01*
X113022096Y-82907238D01*
X113069715Y-83002476D01*
X113117334Y-83192952D01*
X113117334Y-83335810D01*
X113069715Y-83526286D01*
X113022096Y-83621524D01*
X112926858Y-83716762D01*
X112784000Y-83764381D01*
X112545905Y-83764381D01*
X113688762Y-83192952D02*
X113593524Y-83145333D01*
X113545905Y-83097714D01*
X113498286Y-83002476D01*
X113498286Y-82954857D01*
X113545905Y-82859619D01*
X113593524Y-82812000D01*
X113688762Y-82764381D01*
X113879239Y-82764381D01*
X113974477Y-82812000D01*
X114022096Y-82859619D01*
X114069715Y-82954857D01*
X114069715Y-83002476D01*
X114022096Y-83097714D01*
X113974477Y-83145333D01*
X113879239Y-83192952D01*
X113688762Y-83192952D01*
X113593524Y-83240571D01*
X113545905Y-83288190D01*
X113498286Y-83383429D01*
X113498286Y-83573905D01*
X113545905Y-83669143D01*
X113593524Y-83716762D01*
X113688762Y-83764381D01*
X113879239Y-83764381D01*
X113974477Y-83716762D01*
X114022096Y-83669143D01*
X114069715Y-83573905D01*
X114069715Y-83383429D01*
X114022096Y-83288190D01*
X113974477Y-83240571D01*
X113879239Y-83192952D01*
X59447870Y-70762121D02*
X59447870Y-69762121D01*
X60495489Y-70666883D02*
X60447870Y-70714502D01*
X60305013Y-70762121D01*
X60209775Y-70762121D01*
X60066917Y-70714502D01*
X59971679Y-70619264D01*
X59924060Y-70524026D01*
X59876441Y-70333550D01*
X59876441Y-70190692D01*
X59924060Y-70000216D01*
X59971679Y-69904978D01*
X60066917Y-69809740D01*
X60209775Y-69762121D01*
X60305013Y-69762121D01*
X60447870Y-69809740D01*
X60495489Y-69857359D01*
X61447870Y-70762121D02*
X60876441Y-70762121D01*
X61162155Y-70762121D02*
X61162155Y-69762121D01*
X61066917Y-69904978D01*
X60971679Y-70000216D01*
X60876441Y-70047835D01*
X66127334Y-82240381D02*
X65794000Y-81764190D01*
X65555905Y-82240381D02*
X65555905Y-81240381D01*
X65936858Y-81240381D01*
X66032096Y-81288000D01*
X66079715Y-81335619D01*
X66127334Y-81430857D01*
X66127334Y-81573714D01*
X66079715Y-81668952D01*
X66032096Y-81716571D01*
X65936858Y-81764190D01*
X65555905Y-81764190D01*
X66698762Y-81668952D02*
X66603524Y-81621333D01*
X66555905Y-81573714D01*
X66508286Y-81478476D01*
X66508286Y-81430857D01*
X66555905Y-81335619D01*
X66603524Y-81288000D01*
X66698762Y-81240381D01*
X66889239Y-81240381D01*
X66984477Y-81288000D01*
X67032096Y-81335619D01*
X67079715Y-81430857D01*
X67079715Y-81478476D01*
X67032096Y-81573714D01*
X66984477Y-81621333D01*
X66889239Y-81668952D01*
X66698762Y-81668952D01*
X66603524Y-81716571D01*
X66555905Y-81764190D01*
X66508286Y-81859429D01*
X66508286Y-82049905D01*
X66555905Y-82145143D01*
X66603524Y-82192762D01*
X66698762Y-82240381D01*
X66889239Y-82240381D01*
X66984477Y-82192762D01*
X67032096Y-82145143D01*
X67079715Y-82049905D01*
X67079715Y-81859429D01*
X67032096Y-81764190D01*
X66984477Y-81716571D01*
X66889239Y-81668952D01*
X65651143Y-84526381D02*
X65317809Y-84050190D01*
X65079714Y-84526381D02*
X65079714Y-83526381D01*
X65460667Y-83526381D01*
X65555905Y-83574000D01*
X65603524Y-83621619D01*
X65651143Y-83716857D01*
X65651143Y-83859714D01*
X65603524Y-83954952D01*
X65555905Y-84002571D01*
X65460667Y-84050190D01*
X65079714Y-84050190D01*
X66603524Y-84526381D02*
X66032095Y-84526381D01*
X66317809Y-84526381D02*
X66317809Y-83526381D01*
X66222571Y-83669238D01*
X66127333Y-83764476D01*
X66032095Y-83812095D01*
X67222571Y-83526381D02*
X67317810Y-83526381D01*
X67413048Y-83574000D01*
X67460667Y-83621619D01*
X67508286Y-83716857D01*
X67555905Y-83907333D01*
X67555905Y-84145429D01*
X67508286Y-84335905D01*
X67460667Y-84431143D01*
X67413048Y-84478762D01*
X67317810Y-84526381D01*
X67222571Y-84526381D01*
X67127333Y-84478762D01*
X67079714Y-84431143D01*
X67032095Y-84335905D01*
X66984476Y-84145429D01*
X66984476Y-83907333D01*
X67032095Y-83716857D01*
X67079714Y-83621619D01*
X67127333Y-83574000D01*
X67222571Y-83526381D01*
X58705905Y-96480381D02*
X58705905Y-97289905D01*
X58753524Y-97385143D01*
X58801143Y-97432762D01*
X58896381Y-97480381D01*
X59086858Y-97480381D01*
X59182096Y-97432762D01*
X59229715Y-97385143D01*
X59277334Y-97289905D01*
X59277334Y-96480381D01*
X60277334Y-97480381D02*
X59705905Y-97480381D01*
X59991619Y-97480381D02*
X59991619Y-96480381D01*
X59896381Y-96623238D01*
X59801143Y-96718476D01*
X59705905Y-96766095D01*
X60658286Y-96575619D02*
X60705905Y-96528000D01*
X60801143Y-96480381D01*
X61039239Y-96480381D01*
X61134477Y-96528000D01*
X61182096Y-96575619D01*
X61229715Y-96670857D01*
X61229715Y-96766095D01*
X61182096Y-96908952D01*
X60610667Y-97480381D01*
X61229715Y-97480381D01*
X95440667Y-105560762D02*
X95583524Y-105608381D01*
X95821620Y-105608381D01*
X95916858Y-105560762D01*
X95964477Y-105513143D01*
X96012096Y-105417905D01*
X96012096Y-105322667D01*
X95964477Y-105227429D01*
X95916858Y-105179810D01*
X95821620Y-105132190D01*
X95631143Y-105084571D01*
X95535905Y-105036952D01*
X95488286Y-104989333D01*
X95440667Y-104894095D01*
X95440667Y-104798857D01*
X95488286Y-104703619D01*
X95535905Y-104656000D01*
X95631143Y-104608381D01*
X95869239Y-104608381D01*
X96012096Y-104656000D01*
X96345429Y-104608381D02*
X96583524Y-105608381D01*
X96774001Y-104894095D01*
X96964477Y-105608381D01*
X97202572Y-104608381D01*
X98107334Y-105608381D02*
X97535905Y-105608381D01*
X97821619Y-105608381D02*
X97821619Y-104608381D01*
X97726381Y-104751238D01*
X97631143Y-104846476D01*
X97535905Y-104894095D01*
M02*
