M48
;DRILL file {kicad (2014-jul-16 BZR unknown)-product} date 2014-10-28T19:05:20 CET
;FORMAT={-:-/ absolute / metric / decimal}
FMAT,2
METRIC,TZ
T1C0.635
T2C0.762
T3C0.813
T4C1.016
T5C1.200
T6C2.301
T7C3.000
%
G90
G05
M71
T1
X51.308Y-100.965
X53.086Y-100.965
X54.356Y-101.473
X55.372Y-70.866
X56.896Y-100.838
X58.928Y-71.247
X59.182Y-95.758
X59.182Y-97.79
X61.722Y-95.758
X63.119Y-101.346
X64.77Y-78.867
X64.897Y-69.723
X66.04Y-90.043
X66.04Y-99.314
X66.548Y-84.074
X66.675Y-81.788
X67.31Y-77.089
X68.199Y-61.341
X69.723Y-87.63
X70.358Y-92.583
X71.501Y-75.184
X71.628Y-59.436
X71.882Y-85.09
X72.136Y-57.912
X72.39Y-87.63
X76.2Y-83.185
X77.597Y-84.074
X77.978Y-57.912
X78.232Y-89.662
X78.74Y-76.962
X80.264Y-59.944
X81.915Y-92.71
X81.915Y-96.901
X83.693Y-81.915
X84.582Y-96.139
X85.09Y-88.9
X85.344Y-83.058
X85.598Y-85.471
X85.725Y-84.201
X86.106Y-59.817
X86.741Y-71.247
X86.741Y-76.962
X86.741Y-86.36
X86.995Y-90.424
X87.63Y-93.98
X88.011Y-82.55
X88.773Y-100.838
X89.027Y-99.06
X89.281Y-82.677
X89.535Y-83.947
X89.789Y-66.421
X90.043Y-90.805
X90.17Y-62.357
X90.551Y-93.853
X90.932Y-83.82
X91.313Y-90.805
X91.567Y-72.39
X92.075Y-83.058
X92.202Y-85.979
X92.583Y-93.599
X92.837Y-84.328
X93.472Y-87.757
X94.488Y-68.072
X95.504Y-71.12
X96.52Y-70.231
X97.663Y-99.695
X97.79Y-103.505
X99.822Y-79.121
X100.457Y-70.866
X101.981Y-77.597
X101.981Y-79.248
X105.41Y-67.31
X106.045Y-72.644
X106.68Y-65.913
X107.696Y-63.627
X107.823Y-66.675
X108.458Y-104.14
X108.966Y-87.503
X110.109Y-65.405
X110.236Y-104.648
X110.363Y-71.374
X111.506Y-64.897
X112.522Y-69.596
X112.776Y-64.77
X113.284Y-89.154
X113.792Y-60.325
X114.554Y-73.533
X114.935Y-88.9
X115.824Y-73.787
X116.713Y-73.025
X116.84Y-91.313
X117.475Y-90.043
X120.904Y-63.119
X121.92Y-65.024
X125.857Y-71.501
X127.635Y-75.946
X128.778Y-65.024
X129.032Y-68.707
X129.159Y-67.437
X129.413Y-70.612
X130.048Y-90.424
X131.699Y-70.866
X133.223Y-89.535
X135.509Y-93.218
X136.525Y-95.758
X136.906Y-65.278
X139.827Y-100.711
T2
X119.922Y-85.598
X119.922Y-107.598
X121.922Y-85.598
X121.922Y-107.598
X123.922Y-85.598
X123.922Y-107.598
X125.922Y-85.598
X125.922Y-107.598
X127.922Y-85.598
X127.922Y-107.598
X129.922Y-85.598
X129.922Y-107.598
X131.922Y-85.598
X131.922Y-107.598
X133.922Y-85.598
X133.922Y-107.598
X135.922Y-85.598
X135.922Y-107.598
X137.922Y-85.598
X137.922Y-107.598
T3
X60.358Y-83.566
X60.358Y-86.106
X62.357Y-83.566
X62.357Y-86.106
X88.392Y-102.616
X88.392Y-107.696
X96.012Y-102.616
X96.012Y-107.696
X112.776Y-77.47
X112.776Y-82.55
X120.396Y-77.47
X120.396Y-82.55
T4
X72.39Y-69.85
X74.168Y-93.218
X74.168Y-95.758
X76.708Y-93.218
X76.708Y-95.758
X79.248Y-93.218
X79.248Y-95.758
X80.01Y-74.93
X82.55Y-74.93
X85.09Y-74.93
X87.63Y-74.93
X90.17Y-74.93
X92.71Y-74.93
X95.25Y-74.93
X97.79Y-74.93
X100.33Y-74.93
X102.87Y-83.82
X102.87Y-86.36
X102.87Y-88.9
X102.87Y-91.44
X102.87Y-93.98
X102.87Y-96.52
X102.87Y-99.06
X102.87Y-101.6
X110.49Y-93.98
T5
X54.102Y-59.69
X54.102Y-64.77
X58.558Y-53.848
X62.058Y-53.848
X65.558Y-53.848
X69.058Y-53.848
X72.558Y-53.848
X76.058Y-53.848
X79.558Y-53.848
X83.058Y-53.848
X87.768Y-53.848
X91.268Y-53.848
X94.768Y-53.848
X98.268Y-53.848
X101.768Y-53.848
X105.268Y-53.848
X108.768Y-53.848
X112.268Y-53.848
X116.978Y-53.848
X120.478Y-53.848
X123.978Y-53.848
X127.478Y-53.848
X130.978Y-53.848
X134.478Y-53.848
X137.978Y-53.848
X141.478Y-53.848
X146.05Y-58.812
X146.05Y-62.312
X146.05Y-65.812
X146.05Y-69.312
X146.05Y-72.812
X146.05Y-76.312
X146.05Y-79.812
X146.05Y-83.312
T6
X57.658Y-78.837
X57.658Y-90.835
T7
X53.Y-53.
X53.Y-107.
X147.Y-53.
X147.Y-107.
T0
M30
