%FSLAX46Y46*%
G04 Gerber Fmt 4.6, Leading zero omitted, Abs format (unit mm)*
G04 Created by KiCad (PCBNEW (2014-jul-16 BZR unknown)-product) date 2014-10-28T19:03:25 CET*
%MOMM*%
G01*
G04 APERTURE LIST*
%ADD10C,0.100000*%
%ADD11C,1.524000*%
%ADD12C,2.700020*%
%ADD13C,2.500000*%
%ADD14R,1.727200X1.727200*%
%ADD15O,1.727200X1.727200*%
%ADD16R,2.235200X2.235200*%
%ADD17C,1.397000*%
%ADD18C,2.000000*%
%ADD19C,5.000000*%
G04 APERTURE END LIST*
D10*
D11*
X62357000Y-86106000D03*
X62357000Y-83566000D03*
X60358020Y-83566000D03*
X60358020Y-86106000D03*
D12*
X57658000Y-90835480D03*
X57658000Y-78836520D03*
D13*
X54102000Y-64770000D03*
X54102000Y-59690000D03*
D14*
X74168000Y-95758000D03*
D15*
X74168000Y-93218000D03*
X76708000Y-95758000D03*
X76708000Y-93218000D03*
X79248000Y-95758000D03*
X79248000Y-93218000D03*
D16*
X102870000Y-91440000D03*
X102870000Y-88900000D03*
X102870000Y-86360000D03*
X102870000Y-83820000D03*
X102870000Y-101600000D03*
X102870000Y-99060000D03*
X102870000Y-96520000D03*
X102870000Y-93980000D03*
X87630000Y-74930000D03*
X90170000Y-74930000D03*
X92710000Y-74930000D03*
X95250000Y-74930000D03*
X97790000Y-74930000D03*
X100330000Y-74930000D03*
D17*
X88392000Y-107696000D03*
X88392000Y-102616000D03*
X96012000Y-107696000D03*
X96012000Y-102616000D03*
X120396000Y-77470000D03*
X120396000Y-82550000D03*
X112776000Y-77470000D03*
X112776000Y-82550000D03*
D11*
X137922000Y-85598000D03*
X135922000Y-85598000D03*
X133922000Y-85598000D03*
X131922000Y-85598000D03*
X129922000Y-85598000D03*
X127922000Y-85598000D03*
X125922000Y-85598000D03*
X123922000Y-85598000D03*
X121922000Y-85598000D03*
X119922000Y-85598000D03*
X119922000Y-107598000D03*
X121922000Y-107598000D03*
X123922000Y-107598000D03*
X125922000Y-107598000D03*
X127922000Y-107598000D03*
X129922000Y-107598000D03*
X131922000Y-107598000D03*
X133922000Y-107598000D03*
X135922000Y-107598000D03*
X137922000Y-107598000D03*
D18*
X146050000Y-83312000D03*
X146050000Y-79812000D03*
X146050000Y-76312000D03*
X146050000Y-72812000D03*
X146050000Y-69312000D03*
X146050000Y-65812000D03*
X146050000Y-62312000D03*
X146050000Y-58812000D03*
X112268000Y-53848000D03*
X108768000Y-53848000D03*
X105268000Y-53848000D03*
X101768000Y-53848000D03*
X98268000Y-53848000D03*
X94768000Y-53848000D03*
X91268000Y-53848000D03*
X87768000Y-53848000D03*
X83058000Y-53848000D03*
X79558000Y-53848000D03*
X76058000Y-53848000D03*
X72558000Y-53848000D03*
X69058000Y-53848000D03*
X65558000Y-53848000D03*
X62058000Y-53848000D03*
X58558000Y-53848000D03*
X141478000Y-53848000D03*
X137978000Y-53848000D03*
X134478000Y-53848000D03*
X130978000Y-53848000D03*
X127478000Y-53848000D03*
X123978000Y-53848000D03*
X120478000Y-53848000D03*
X116978000Y-53848000D03*
D19*
X147000000Y-53000000D03*
X53000000Y-53000000D03*
X53000000Y-107000000D03*
X147000000Y-107000000D03*
D16*
X72390000Y-69850000D03*
X82550000Y-74930000D03*
X80010000Y-74930000D03*
X110490000Y-93980000D03*
X85090000Y-74930000D03*
M02*
